<?xml version="1.0" encoding="utf-8" standalone="no"?>
<!DOCTYPE svg PUBLIC "-//W3C//DTD SVG 1.1//EN"
  "http://www.w3.org/Graphics/SVG/1.1/DTD/svg11.dtd">
<svg xmlns:xlink="http://www.w3.org/1999/xlink" width="864pt" height="273.6pt" viewBox="0 0 864 273.6" xmlns="http://www.w3.org/2000/svg" version="1.1">
 <metadata>
  <rdf:RDF xmlns:dc="http://purl.org/dc/elements/1.1/" xmlns:cc="http://creativecommons.org/ns#" xmlns:rdf="http://www.w3.org/1999/02/22-rdf-syntax-ns#">
   <cc:Work>
    <dc:type rdf:resource="http://purl.org/dc/dcmitype/StillImage"/>
    <dc:date>2026-09-16T11:21:07.984924</dc:date>
    <dc:format>image/svg+xml</dc:format>
    <dc:creator>
     <cc:Agent>
      <dc:title>Matplotlib v3.10.9, https://matplotlib.org/</dc:title>
     </cc:Agent>
    </dc:creator>
   </cc:Work>
  </rdf:RDF>
 </metadata>
 <defs>
  <style type="text/css">*{stroke-linejoin: round; stroke-linecap: butt}</style>
 </defs>
 <g id="figure_1">
  <g id="patch_1">
   <path d="M 0 273.6 
L 864 273.6 
L 864 0 
L 0 0 
z
" style="fill: #ffffff"/>
  </g>
  <g id="axes_1">
   <g id="patch_2">
    <path d="M 46.29 232.332 
L 444.345 232.332 
L 444.345 49.30125 
L 46.29 49.30125 
z
" style="fill: #ffffff"/>
   </g>
   <g id="matplotlib.axis_1">
    <g id="xtick_1">
     <g id="line2d_1">
      <path d="M 64.383409 232.332 
L 64.383409 49.30125 
" clip-path="url(#p58e3ec0655)" style="fill: none; stroke: #e5e5e5; stroke-width: 0.6; stroke-linecap: square"/>
     </g>
     <g id="line2d_2"/>
     <g id="text_1">
      <!-- $\mathdefault{10^{-4}}$ -->
      <g transform="translate(54.733409 243.791375) scale(0.1 -0.1)">
       <defs>
        <path id="NotoSansCJKjp-Regular-31" d="M 563 0 
L 3136 0 
L 3136 486 
L 2195 486 
L 2195 4691 
L 1747 4691 
C 1491 4544 1190 4435 774 4358 
L 774 3987 
L 1613 3987 
L 1613 486 
L 563 486 
L 563 0 
z
" transform="scale(0.015625)"/>
        <path id="NotoSansCJKjp-Regular-30" d="M 1779 -83 
C 2669 -83 3238 723 3238 2362 
C 3238 3987 2669 4774 1779 4774 
C 883 4774 320 3987 320 2362 
C 320 723 883 -83 1779 -83 
z
M 1779 390 
C 1248 390 883 986 883 2362 
C 883 3731 1248 4314 1779 4314 
C 2310 4314 2675 3731 2675 2362 
C 2675 986 2310 390 1779 390 
z
" transform="scale(0.015625)"/>
        <path id="NotoSansCJKjp-Regular-2212" d="M 243 2144 
L 3315 2144 
L 3315 2579 
L 243 2579 
L 243 2144 
z
" transform="scale(0.015625)"/>
        <path id="NotoSansCJKjp-Regular-34" d="M 2176 0 
L 2726 0 
L 2726 1293 
L 3354 1293 
L 3354 1760 
L 2726 1760 
L 2726 4691 
L 2080 4691 
L 128 1677 
L 128 1293 
L 2176 1293 
L 2176 0 
z
M 2176 1760 
L 736 1760 
L 1805 3360 
C 1939 3590 2067 3827 2182 4051 
L 2208 4051 
C 2195 3814 2176 3430 2176 3200 
L 2176 1760 
z
" transform="scale(0.015625)"/>
       </defs>
       <use xlink:href="#NotoSansCJKjp-Regular-31" transform="translate(0 0.684375)"/>
       <use xlink:href="#NotoSansCJKjp-Regular-30" transform="translate(55.499985 0.684375)"/>
       <use xlink:href="#NotoSansCJKjp-Regular-2212" transform="translate(111.950165 38.692188) scale(0.7)"/>
       <use xlink:href="#NotoSansCJKjp-Regular-34" transform="translate(150.800154 38.692188) scale(0.7)"/>
      </g>
     </g>
    </g>
    <g id="xtick_2">
     <g id="line2d_3">
      <path d="M 145.209494 232.332 
L 145.209494 49.30125 
" clip-path="url(#p58e3ec0655)" style="fill: none; stroke: #e5e5e5; stroke-width: 0.6; stroke-linecap: square"/>
     </g>
     <g id="line2d_4"/>
     <g id="text_2">
      <!-- $\mathdefault{10^{-3}}$ -->
      <g transform="translate(135.559494 243.791375) scale(0.1 -0.1)">
       <defs>
        <path id="NotoSansCJKjp-Regular-33" d="M 1683 -83 
C 2522 -83 3194 416 3194 1254 
C 3194 1901 2752 2310 2202 2445 
L 2202 2477 
C 2701 2650 3034 3034 3034 3603 
C 3034 4346 2458 4774 1664 4774 
C 1126 4774 710 4538 358 4218 
L 672 3846 
C 941 4115 1267 4301 1645 4301 
C 2138 4301 2438 4006 2438 3558 
C 2438 3053 2112 2662 1139 2662 
L 1139 2214 
C 2227 2214 2598 1843 2598 1274 
C 2598 736 2208 403 1645 403 
C 1114 403 762 659 486 941 
L 186 563 
C 493 224 954 -83 1683 -83 
z
" transform="scale(0.015625)"/>
       </defs>
       <use xlink:href="#NotoSansCJKjp-Regular-31" transform="translate(0 0.776563)"/>
       <use xlink:href="#NotoSansCJKjp-Regular-30" transform="translate(55.499985 0.776563)"/>
       <use xlink:href="#NotoSansCJKjp-Regular-2212" transform="translate(111.950165 38.784375) scale(0.7)"/>
       <use xlink:href="#NotoSansCJKjp-Regular-33" transform="translate(150.800154 38.784375) scale(0.7)"/>
      </g>
     </g>
    </g>
    <g id="xtick_3">
     <g id="line2d_5">
      <path d="M 226.035579 232.332 
L 226.035579 49.30125 
" clip-path="url(#p58e3ec0655)" style="fill: none; stroke: #e5e5e5; stroke-width: 0.6; stroke-linecap: square"/>
     </g>
     <g id="line2d_6"/>
     <g id="text_3">
      <!-- $\mathdefault{10^{-2}}$ -->
      <g transform="translate(216.385579 243.791375) scale(0.1 -0.1)">
       <defs>
        <path id="NotoSansCJKjp-Regular-32" d="M 282 0 
L 3232 0 
L 3232 506 
L 1933 506 
C 1696 506 1408 480 1165 461 
C 2266 1504 3008 2458 3008 3398 
C 3008 4230 2477 4774 1638 4774 
C 1043 4774 634 4506 256 4090 
L 595 3757 
C 858 4070 1184 4301 1568 4301 
C 2150 4301 2432 3910 2432 3373 
C 2432 2566 1754 1632 282 346 
L 282 0 
z
" transform="scale(0.015625)"/>
       </defs>
       <use xlink:href="#NotoSansCJKjp-Regular-31" transform="translate(0 0.776563)"/>
       <use xlink:href="#NotoSansCJKjp-Regular-30" transform="translate(55.499985 0.776563)"/>
       <use xlink:href="#NotoSansCJKjp-Regular-2212" transform="translate(111.950165 38.784375) scale(0.7)"/>
       <use xlink:href="#NotoSansCJKjp-Regular-32" transform="translate(150.800154 38.784375) scale(0.7)"/>
      </g>
     </g>
    </g>
    <g id="xtick_4">
     <g id="line2d_7">
      <path d="M 306.861663 232.332 
L 306.861663 49.30125 
" clip-path="url(#p58e3ec0655)" style="fill: none; stroke: #e5e5e5; stroke-width: 0.6; stroke-linecap: square"/>
     </g>
     <g id="line2d_8"/>
     <g id="text_4">
      <!-- $\mathdefault{10^{-1}}$ -->
      <g transform="translate(297.211663 243.791375) scale(0.1 -0.1)">
       <use xlink:href="#NotoSansCJKjp-Regular-31" transform="translate(0 0.684375)"/>
       <use xlink:href="#NotoSansCJKjp-Regular-30" transform="translate(55.499985 0.684375)"/>
       <use xlink:href="#NotoSansCJKjp-Regular-2212" transform="translate(111.950165 38.692188) scale(0.7)"/>
       <use xlink:href="#NotoSansCJKjp-Regular-31" transform="translate(150.800154 38.692188) scale(0.7)"/>
      </g>
     </g>
    </g>
    <g id="xtick_5">
     <g id="line2d_9">
      <path d="M 387.687748 232.332 
L 387.687748 49.30125 
" clip-path="url(#p58e3ec0655)" style="fill: none; stroke: #e5e5e5; stroke-width: 0.6; stroke-linecap: square"/>
     </g>
     <g id="line2d_10"/>
     <g id="text_5">
      <!-- $\mathdefault{10^{0}}$ -->
      <g transform="translate(379.987748 243.791375) scale(0.1 -0.1)">
       <use xlink:href="#NotoSansCJKjp-Regular-31" transform="translate(0 0.776563)"/>
       <use xlink:href="#NotoSansCJKjp-Regular-30" transform="translate(55.499985 0.776563)"/>
       <use xlink:href="#NotoSansCJKjp-Regular-30" transform="translate(111.950165 38.784375) scale(0.7)"/>
      </g>
     </g>
    </g>
    <g id="xtick_6">
     <g id="line2d_11">
      <defs>
       <path id="m7b2a0c424a" d="M 0 0 
L 0 2 
" style="stroke: #000000; stroke-width: 0.6"/>
      </defs>
      <g>
       <use xlink:href="#m7b2a0c424a" x="46.452243" y="232.332" style="stroke: #000000; stroke-width: 0.6"/>
      </g>
     </g>
    </g>
    <g id="xtick_7">
     <g id="line2d_12">
      <g>
       <use xlink:href="#m7b2a0c424a" x="51.86329" y="232.332" style="stroke: #000000; stroke-width: 0.6"/>
      </g>
     </g>
    </g>
    <g id="xtick_8">
     <g id="line2d_13">
      <g>
       <use xlink:href="#m7b2a0c424a" x="56.550552" y="232.332" style="stroke: #000000; stroke-width: 0.6"/>
      </g>
     </g>
    </g>
    <g id="xtick_9">
     <g id="line2d_14">
      <g>
       <use xlink:href="#m7b2a0c424a" x="60.68501" y="232.332" style="stroke: #000000; stroke-width: 0.6"/>
      </g>
     </g>
    </g>
    <g id="xtick_10">
     <g id="line2d_15">
      <g>
       <use xlink:href="#m7b2a0c424a" x="88.714485" y="232.332" style="stroke: #000000; stroke-width: 0.6"/>
      </g>
     </g>
    </g>
    <g id="xtick_11">
     <g id="line2d_16">
      <g>
       <use xlink:href="#m7b2a0c424a" x="102.947252" y="232.332" style="stroke: #000000; stroke-width: 0.6"/>
      </g>
     </g>
    </g>
    <g id="xtick_12">
     <g id="line2d_17">
      <g>
       <use xlink:href="#m7b2a0c424a" x="113.045561" y="232.332" style="stroke: #000000; stroke-width: 0.6"/>
      </g>
     </g>
    </g>
    <g id="xtick_13">
     <g id="line2d_18">
      <g>
       <use xlink:href="#m7b2a0c424a" x="120.878418" y="232.332" style="stroke: #000000; stroke-width: 0.6"/>
      </g>
     </g>
    </g>
    <g id="xtick_14">
     <g id="line2d_19">
      <g>
       <use xlink:href="#m7b2a0c424a" x="127.278328" y="232.332" style="stroke: #000000; stroke-width: 0.6"/>
      </g>
     </g>
    </g>
    <g id="xtick_15">
     <g id="line2d_20">
      <g>
       <use xlink:href="#m7b2a0c424a" x="132.689375" y="232.332" style="stroke: #000000; stroke-width: 0.6"/>
      </g>
     </g>
    </g>
    <g id="xtick_16">
     <g id="line2d_21">
      <g>
       <use xlink:href="#m7b2a0c424a" x="137.376637" y="232.332" style="stroke: #000000; stroke-width: 0.6"/>
      </g>
     </g>
    </g>
    <g id="xtick_17">
     <g id="line2d_22">
      <g>
       <use xlink:href="#m7b2a0c424a" x="141.511095" y="232.332" style="stroke: #000000; stroke-width: 0.6"/>
      </g>
     </g>
    </g>
    <g id="xtick_18">
     <g id="line2d_23">
      <g>
       <use xlink:href="#m7b2a0c424a" x="169.54057" y="232.332" style="stroke: #000000; stroke-width: 0.6"/>
      </g>
     </g>
    </g>
    <g id="xtick_19">
     <g id="line2d_24">
      <g>
       <use xlink:href="#m7b2a0c424a" x="183.773337" y="232.332" style="stroke: #000000; stroke-width: 0.6"/>
      </g>
     </g>
    </g>
    <g id="xtick_20">
     <g id="line2d_25">
      <g>
       <use xlink:href="#m7b2a0c424a" x="193.871646" y="232.332" style="stroke: #000000; stroke-width: 0.6"/>
      </g>
     </g>
    </g>
    <g id="xtick_21">
     <g id="line2d_26">
      <g>
       <use xlink:href="#m7b2a0c424a" x="201.704503" y="232.332" style="stroke: #000000; stroke-width: 0.6"/>
      </g>
     </g>
    </g>
    <g id="xtick_22">
     <g id="line2d_27">
      <g>
       <use xlink:href="#m7b2a0c424a" x="208.104413" y="232.332" style="stroke: #000000; stroke-width: 0.6"/>
      </g>
     </g>
    </g>
    <g id="xtick_23">
     <g id="line2d_28">
      <g>
       <use xlink:href="#m7b2a0c424a" x="213.51546" y="232.332" style="stroke: #000000; stroke-width: 0.6"/>
      </g>
     </g>
    </g>
    <g id="xtick_24">
     <g id="line2d_29">
      <g>
       <use xlink:href="#m7b2a0c424a" x="218.202722" y="232.332" style="stroke: #000000; stroke-width: 0.6"/>
      </g>
     </g>
    </g>
    <g id="xtick_25">
     <g id="line2d_30">
      <g>
       <use xlink:href="#m7b2a0c424a" x="222.33718" y="232.332" style="stroke: #000000; stroke-width: 0.6"/>
      </g>
     </g>
    </g>
    <g id="xtick_26">
     <g id="line2d_31">
      <g>
       <use xlink:href="#m7b2a0c424a" x="250.366654" y="232.332" style="stroke: #000000; stroke-width: 0.6"/>
      </g>
     </g>
    </g>
    <g id="xtick_27">
     <g id="line2d_32">
      <g>
       <use xlink:href="#m7b2a0c424a" x="264.599421" y="232.332" style="stroke: #000000; stroke-width: 0.6"/>
      </g>
     </g>
    </g>
    <g id="xtick_28">
     <g id="line2d_33">
      <g>
       <use xlink:href="#m7b2a0c424a" x="274.69773" y="232.332" style="stroke: #000000; stroke-width: 0.6"/>
      </g>
     </g>
    </g>
    <g id="xtick_29">
     <g id="line2d_34">
      <g>
       <use xlink:href="#m7b2a0c424a" x="282.530587" y="232.332" style="stroke: #000000; stroke-width: 0.6"/>
      </g>
     </g>
    </g>
    <g id="xtick_30">
     <g id="line2d_35">
      <g>
       <use xlink:href="#m7b2a0c424a" x="288.930497" y="232.332" style="stroke: #000000; stroke-width: 0.6"/>
      </g>
     </g>
    </g>
    <g id="xtick_31">
     <g id="line2d_36">
      <g>
       <use xlink:href="#m7b2a0c424a" x="294.341544" y="232.332" style="stroke: #000000; stroke-width: 0.6"/>
      </g>
     </g>
    </g>
    <g id="xtick_32">
     <g id="line2d_37">
      <g>
       <use xlink:href="#m7b2a0c424a" x="299.028806" y="232.332" style="stroke: #000000; stroke-width: 0.6"/>
      </g>
     </g>
    </g>
    <g id="xtick_33">
     <g id="line2d_38">
      <g>
       <use xlink:href="#m7b2a0c424a" x="303.163264" y="232.332" style="stroke: #000000; stroke-width: 0.6"/>
      </g>
     </g>
    </g>
    <g id="xtick_34">
     <g id="line2d_39">
      <g>
       <use xlink:href="#m7b2a0c424a" x="331.192739" y="232.332" style="stroke: #000000; stroke-width: 0.6"/>
      </g>
     </g>
    </g>
    <g id="xtick_35">
     <g id="line2d_40">
      <g>
       <use xlink:href="#m7b2a0c424a" x="345.425506" y="232.332" style="stroke: #000000; stroke-width: 0.6"/>
      </g>
     </g>
    </g>
    <g id="xtick_36">
     <g id="line2d_41">
      <g>
       <use xlink:href="#m7b2a0c424a" x="355.523815" y="232.332" style="stroke: #000000; stroke-width: 0.6"/>
      </g>
     </g>
    </g>
    <g id="xtick_37">
     <g id="line2d_42">
      <g>
       <use xlink:href="#m7b2a0c424a" x="363.356672" y="232.332" style="stroke: #000000; stroke-width: 0.6"/>
      </g>
     </g>
    </g>
    <g id="xtick_38">
     <g id="line2d_43">
      <g>
       <use xlink:href="#m7b2a0c424a" x="369.756582" y="232.332" style="stroke: #000000; stroke-width: 0.6"/>
      </g>
     </g>
    </g>
    <g id="xtick_39">
     <g id="line2d_44">
      <g>
       <use xlink:href="#m7b2a0c424a" x="375.167629" y="232.332" style="stroke: #000000; stroke-width: 0.6"/>
      </g>
     </g>
    </g>
    <g id="xtick_40">
     <g id="line2d_45">
      <g>
       <use xlink:href="#m7b2a0c424a" x="379.854891" y="232.332" style="stroke: #000000; stroke-width: 0.6"/>
      </g>
     </g>
    </g>
    <g id="xtick_41">
     <g id="line2d_46">
      <g>
       <use xlink:href="#m7b2a0c424a" x="383.989349" y="232.332" style="stroke: #000000; stroke-width: 0.6"/>
      </g>
     </g>
    </g>
    <g id="xtick_42">
     <g id="line2d_47">
      <g>
       <use xlink:href="#m7b2a0c424a" x="412.018824" y="232.332" style="stroke: #000000; stroke-width: 0.6"/>
      </g>
     </g>
    </g>
    <g id="xtick_43">
     <g id="line2d_48">
      <g>
       <use xlink:href="#m7b2a0c424a" x="426.251591" y="232.332" style="stroke: #000000; stroke-width: 0.6"/>
      </g>
     </g>
    </g>
    <g id="xtick_44">
     <g id="line2d_49">
      <g>
       <use xlink:href="#m7b2a0c424a" x="436.3499" y="232.332" style="stroke: #000000; stroke-width: 0.6"/>
      </g>
     </g>
    </g>
    <g id="xtick_45">
     <g id="line2d_50">
      <g>
       <use xlink:href="#m7b2a0c424a" x="444.182757" y="232.332" style="stroke: #000000; stroke-width: 0.6"/>
      </g>
     </g>
    </g>
    <g id="text_6">
     <!-- ΔU（0 畫在 10⁻⁴） -->
     <g transform="translate(203.17375 258.041375) scale(0.1 -0.1)">
      <defs>
       <path id="NotoSansCJKjp-Regular-394" d="M 211 0 
L 3987 0 
L 3987 358 
L 2438 4691 
L 1766 4691 
L 211 358 
L 211 0 
z
M 851 506 
L 1587 2650 
L 2080 4160 
L 2112 4160 
L 2598 2650 
L 3334 506 
L 851 506 
z
" transform="scale(0.015625)"/>
       <path id="NotoSansCJKjp-Regular-55" d="M 2310 -83 
C 3264 -83 3994 429 3994 1933 
L 3994 4691 
L 3424 4691 
L 3424 1920 
C 3424 794 2931 435 2310 435 
C 1696 435 1216 794 1216 1920 
L 1216 4691 
L 627 4691 
L 627 1933 
C 627 429 1350 -83 2310 -83 
z
" transform="scale(0.015625)"/>
       <path id="NotoSansCJKjp-Regular-ff08" d="M 4448 2432 
C 4448 1184 4954 166 5722 -614 
L 6106 -416 
C 5370 346 4915 1293 4915 2432 
C 4915 3571 5370 4518 6106 5280 
L 5722 5478 
C 4954 4698 4448 3680 4448 2432 
z
" transform="scale(0.015625)"/>
       <path id="NotoSansCJKjp-Regular-20" transform="scale(0.015625)"/>
       <path id="NotoSansCJKjp-Regular-756b" d="M 333 13 
L 333 -326 
L 6080 -326 
L 6080 13 
L 333 13 
z
M 1062 1818 
L 1062 314 
L 5376 314 
L 5376 1818 
L 1062 1818 
z
M 1530 934 
L 2950 934 
L 2950 595 
L 1530 595 
L 1530 934 
z
M 3405 934 
L 4890 934 
L 4890 595 
L 3405 595 
L 3405 934 
z
M 1530 1536 
L 2950 1536 
L 2950 1210 
L 1530 1210 
L 1530 1536 
z
M 3405 1536 
L 4890 1536 
L 4890 1210 
L 3405 1210 
L 3405 1536 
z
M 4883 4051 
L 4883 3699 
L 3418 3699 
L 3418 4051 
L 4883 4051 
z
M 2931 5382 
L 2931 4986 
L 1024 4986 
L 1024 4685 
L 2931 4685 
L 2931 4358 
L 346 4358 
L 346 4051 
L 2931 4051 
L 2931 3699 
L 986 3699 
L 986 3398 
L 2931 3398 
L 2931 3072 
L 826 3072 
L 826 2771 
L 2931 2771 
L 2931 2432 
L 333 2432 
L 333 2099 
L 6086 2099 
L 6086 2432 
L 3418 2432 
L 3418 2771 
L 5619 2771 
L 5619 3072 
L 3418 3072 
L 3418 3398 
L 5363 3398 
L 5363 4051 
L 6061 4051 
L 6061 4358 
L 5363 4358 
L 5363 4986 
L 3418 4986 
L 3418 5382 
L 2931 5382 
z
M 4883 4358 
L 3418 4358 
L 3418 4685 
L 4883 4685 
L 4883 4358 
z
" transform="scale(0.015625)"/>
       <path id="NotoSansCJKjp-Regular-5728" d="M 2502 5376 
C 2413 5050 2298 4710 2163 4384 
L 403 4384 
L 403 3923 
L 1952 3923 
C 1542 3104 979 2342 243 1830 
C 320 1722 442 1517 493 1389 
C 762 1581 1011 1798 1235 2035 
L 1235 -486 
L 1715 -486 
L 1715 2605 
C 2016 3014 2278 3462 2496 3923 
L 6010 3923 
L 6010 4384 
L 2694 4384 
C 2810 4672 2912 4966 3002 5254 
L 2502 5376 
z
M 3827 3590 
L 3827 2355 
L 2387 2355 
L 2387 1907 
L 3827 1907 
L 3827 90 
L 2131 90 
L 2131 -358 
L 6003 -358 
L 6003 90 
L 4307 90 
L 4307 1907 
L 5760 1907 
L 5760 2355 
L 4307 2355 
L 4307 3590 
L 3827 3590 
z
" transform="scale(0.015625)"/>
       <path id="DejaVuSans-207b" d="M 428 3359 
L 2950 3359 
L 2950 3063 
L 428 3063 
L 428 3359 
z
" transform="scale(0.015625)"/>
       <path id="NotoSansCJKjp-Regular-2074" d="M 1568 2822 
L 1984 2822 
L 1984 3571 
L 2394 3571 
L 2394 3891 
L 1984 3891 
L 1984 5613 
L 1478 5613 
L 307 3802 
L 307 3571 
L 1568 3571 
L 1568 2822 
z
M 1568 3891 
L 774 3891 
L 1216 4595 
L 1574 5178 
L 1606 5178 
L 1568 4403 
L 1568 3891 
z
" transform="scale(0.015625)"/>
       <path id="NotoSansCJKjp-Regular-ff09" d="M 1952 2432 
C 1952 3680 1446 4698 678 5478 
L 294 5280 
C 1030 4518 1485 3571 1485 2432 
C 1485 1293 1030 346 294 -416 
L 678 -614 
C 1446 166 1952 1184 1952 2432 
z
" transform="scale(0.015625)"/>
      </defs>
      <use xlink:href="#NotoSansCJKjp-Regular-394"/>
      <use xlink:href="#NotoSansCJKjp-Regular-55" transform="translate(65.599991 0)"/>
      <use xlink:href="#NotoSansCJKjp-Regular-ff08" transform="translate(137.699982 0)"/>
      <use xlink:href="#NotoSansCJKjp-Regular-30" transform="translate(237.699966 0)"/>
      <use xlink:href="#NotoSansCJKjp-Regular-20" transform="translate(293.199951 0)"/>
      <use xlink:href="#NotoSansCJKjp-Regular-756b" transform="translate(315.599945 0)"/>
      <use xlink:href="#NotoSansCJKjp-Regular-5728" transform="translate(415.59993 0)"/>
      <use xlink:href="#NotoSansCJKjp-Regular-20" transform="translate(515.599915 0)"/>
      <use xlink:href="#NotoSansCJKjp-Regular-31" transform="translate(537.999908 0)"/>
      <use xlink:href="#NotoSansCJKjp-Regular-30" transform="translate(593.499893 0)"/>
      <use xlink:href="#DejaVuSans-207b" transform="translate(648.999878 0)"/>
      <use xlink:href="#NotoSansCJKjp-Regular-2074" transform="translate(701.783081 0)"/>
      <use xlink:href="#NotoSansCJKjp-Regular-ff09" transform="translate(742.883072 0)"/>
     </g>
    </g>
   </g>
   <g id="matplotlib.axis_2">
    <g id="ytick_1">
     <g id="line2d_51">
      <path d="M 46.29 206.335669 
L 444.345 206.335669 
" clip-path="url(#p58e3ec0655)" style="fill: none; stroke: #e5e5e5; stroke-width: 0.6; stroke-linecap: square"/>
     </g>
     <g id="line2d_52"/>
     <g id="text_7">
      <!-- -0.4 -->
      <g transform="translate(25.44 210.315357) scale(0.1 -0.1)">
       <defs>
        <path id="NotoSansCJKjp-Regular-2d" d="M 294 1568 
L 1933 1568 
L 1933 2016 
L 294 2016 
L 294 1568 
z
" transform="scale(0.015625)"/>
        <path id="NotoSansCJKjp-Regular-2e" d="M 890 -83 
C 1120 -83 1312 96 1312 358 
C 1312 627 1120 806 890 806 
C 653 806 467 627 467 358 
C 467 96 653 -83 890 -83 
z
" transform="scale(0.015625)"/>
       </defs>
       <use xlink:href="#NotoSansCJKjp-Regular-2d"/>
       <use xlink:href="#NotoSansCJKjp-Regular-30" transform="translate(34.699997 0)"/>
       <use xlink:href="#NotoSansCJKjp-Regular-2e" transform="translate(90.199982 0)"/>
       <use xlink:href="#NotoSansCJKjp-Regular-34" transform="translate(117.999969 0)"/>
      </g>
     </g>
    </g>
    <g id="ytick_2">
     <g id="line2d_53">
      <path d="M 46.29 166.851543 
L 444.345 166.851543 
" clip-path="url(#p58e3ec0655)" style="fill: none; stroke: #e5e5e5; stroke-width: 0.6; stroke-linecap: square"/>
     </g>
     <g id="line2d_54"/>
     <g id="text_8">
      <!-- -0.2 -->
      <g transform="translate(25.44 170.831231) scale(0.1 -0.1)">
       <use xlink:href="#NotoSansCJKjp-Regular-2d"/>
       <use xlink:href="#NotoSansCJKjp-Regular-30" transform="translate(34.699997 0)"/>
       <use xlink:href="#NotoSansCJKjp-Regular-2e" transform="translate(90.199982 0)"/>
       <use xlink:href="#NotoSansCJKjp-Regular-32" transform="translate(117.999969 0)"/>
      </g>
     </g>
    </g>
    <g id="ytick_3">
     <g id="line2d_55">
      <path d="M 46.29 127.367417 
L 444.345 127.367417 
" clip-path="url(#p58e3ec0655)" style="fill: none; stroke: #e5e5e5; stroke-width: 0.6; stroke-linecap: square"/>
     </g>
     <g id="line2d_56"/>
     <g id="text_9">
      <!-- 0.0 -->
      <g transform="translate(28.910312 131.347105) scale(0.1 -0.1)">
       <use xlink:href="#NotoSansCJKjp-Regular-30"/>
       <use xlink:href="#NotoSansCJKjp-Regular-2e" transform="translate(55.499985 0)"/>
       <use xlink:href="#NotoSansCJKjp-Regular-30" transform="translate(83.299973 0)"/>
      </g>
     </g>
    </g>
    <g id="ytick_4">
     <g id="line2d_57">
      <path d="M 46.29 87.883292 
L 444.345 87.883292 
" clip-path="url(#p58e3ec0655)" style="fill: none; stroke: #e5e5e5; stroke-width: 0.6; stroke-linecap: square"/>
     </g>
     <g id="line2d_58"/>
     <g id="text_10">
      <!-- 0.2 -->
      <g transform="translate(28.910312 91.862979) scale(0.1 -0.1)">
       <use xlink:href="#NotoSansCJKjp-Regular-30"/>
       <use xlink:href="#NotoSansCJKjp-Regular-2e" transform="translate(55.499985 0)"/>
       <use xlink:href="#NotoSansCJKjp-Regular-32" transform="translate(83.299973 0)"/>
      </g>
     </g>
    </g>
    <g id="text_11">
     <!-- Berry phase γ (π) -->
     <g transform="translate(19.099375 180.127562) rotate(-90) scale(0.1 -0.1)">
      <defs>
       <path id="NotoSansCJKjp-Regular-42" d="M 646 0 
L 2138 0 
C 3187 0 3917 454 3917 1376 
C 3917 2016 3520 2387 2963 2496 
L 2963 2528 
C 3405 2669 3648 3078 3648 3546 
C 3648 4371 2982 4691 2035 4691 
L 646 4691 
L 646 0 
z
M 1235 2701 
L 1235 4224 
L 1958 4224 
C 2694 4224 3066 4019 3066 3469 
C 3066 2989 2739 2701 1933 2701 
L 1235 2701 
z
M 1235 474 
L 1235 2240 
L 2054 2240 
C 2880 2240 3334 1978 3334 1395 
C 3334 762 2861 474 2054 474 
L 1235 474 
z
" transform="scale(0.015625)"/>
       <path id="NotoSansCJKjp-Regular-65" d="M 1997 -83 
C 2464 -83 2835 70 3136 269 
L 2931 659 
C 2669 486 2400 384 2061 384 
C 1402 384 947 858 909 1600 
L 3251 1600 
C 3264 1690 3277 1805 3277 1933 
C 3277 2925 2778 3565 1888 3565 
C 1094 3565 333 2867 333 1734 
C 333 589 1069 -83 1997 -83 
z
M 902 2016 
C 973 2707 1408 3098 1901 3098 
C 2445 3098 2765 2720 2765 2016 
L 902 2016 
z
" transform="scale(0.015625)"/>
       <path id="NotoSansCJKjp-Regular-72" d="M 589 0 
L 1178 0 
L 1178 2234 
C 1408 2822 1760 3040 2048 3040 
C 2195 3040 2272 3021 2387 2982 
L 2496 3488 
C 2387 3546 2278 3565 2125 3565 
C 1741 3565 1382 3283 1139 2842 
L 1126 2842 
L 1069 3475 
L 589 3475 
L 589 0 
z
" transform="scale(0.015625)"/>
       <path id="NotoSansCJKjp-Regular-79" d="M 646 -1498 
C 1338 -1498 1702 -973 1946 -294 
L 3251 3475 
L 2682 3475 
L 2054 1549 
C 1965 1235 1862 883 1773 563 
L 1741 563 
C 1619 890 1504 1242 1395 1549 
L 691 3475 
L 83 3475 
L 1478 -6 
L 1402 -269 
C 1254 -698 1011 -1018 621 -1018 
C 525 -1018 422 -986 352 -960 
L 237 -1427 
C 346 -1472 486 -1498 646 -1498 
z
" transform="scale(0.015625)"/>
       <path id="NotoSansCJKjp-Regular-70" d="M 589 -1466 
L 1178 -1466 
L 1178 -288 
L 1158 320 
C 1472 58 1805 -83 2118 -83 
C 2912 -83 3629 602 3629 1792 
C 3629 2867 3142 3565 2246 3565 
C 1843 3565 1453 3334 1139 3072 
L 1126 3072 
L 1069 3475 
L 589 3475 
L 589 -1466 
z
M 2022 410 
C 1792 410 1485 499 1178 768 
L 1178 2598 
C 1510 2906 1811 3072 2099 3072 
C 2765 3072 3021 2560 3021 1786 
C 3021 928 2598 410 2022 410 
z
" transform="scale(0.015625)"/>
       <path id="NotoSansCJKjp-Regular-68" d="M 589 0 
L 1178 0 
L 1178 2522 
C 1523 2874 1766 3053 2125 3053 
C 2586 3053 2784 2778 2784 2125 
L 2784 0 
L 3366 0 
L 3366 2202 
C 3366 3085 3034 3565 2304 3565 
C 1830 3565 1472 3302 1152 2982 
L 1178 3699 
L 1178 5094 
L 589 5094 
L 589 0 
z
" transform="scale(0.015625)"/>
       <path id="NotoSansCJKjp-Regular-61" d="M 1389 -83 
C 1818 -83 2208 141 2541 416 
L 2560 416 
L 2611 0 
L 3091 0 
L 3091 2138 
C 3091 3002 2739 3565 1888 3565 
C 1325 3565 838 3315 525 3110 
L 749 2707 
C 1024 2893 1389 3078 1792 3078 
C 2362 3078 2509 2650 2509 2202 
C 1030 2035 378 1658 378 902 
C 378 275 806 -83 1389 -83 
z
M 1555 390 
C 1210 390 941 544 941 941 
C 941 1389 1338 1677 2509 1811 
L 2509 845 
C 2170 544 1888 390 1555 390 
z
" transform="scale(0.015625)"/>
       <path id="NotoSansCJKjp-Regular-73" d="M 1498 -83 
C 2317 -83 2758 384 2758 947 
C 2758 1606 2208 1811 1702 2003 
C 1312 2150 954 2278 954 2605 
C 954 2880 1158 3110 1600 3110 
C 1907 3110 2150 2976 2387 2803 
L 2669 3168 
C 2406 3386 2022 3565 1594 3565 
C 832 3565 397 3130 397 2579 
C 397 1984 922 1754 1408 1574 
C 1792 1434 2202 1267 2202 915 
C 2202 614 1978 371 1517 371 
C 1101 371 794 538 486 787 
L 205 397 
C 531 122 1005 -83 1498 -83 
z
" transform="scale(0.015625)"/>
       <path id="NotoSansCJKjp-Regular-3b3" d="M 1408 -1280 
L 2003 -1280 
C 2003 -877 1984 -384 1933 32 
C 2790 1427 3130 2304 3309 3475 
L 2726 3475 
C 2650 2502 2259 1562 1811 691 
L 1779 691 
C 1574 1773 1062 2957 627 3565 
L 45 3411 
C 742 2490 1440 742 1440 -416 
C 1440 -800 1434 -960 1408 -1280 
z
" transform="scale(0.015625)"/>
       <path id="NotoSansCJKjp-Regular-28" d="M 1530 -1254 
L 1888 -1094 
C 1338 -186 1075 902 1075 1990 
C 1075 3072 1338 4154 1888 5069 
L 1530 5235 
C 941 4275 589 3245 589 1990 
C 589 730 941 -301 1530 -1254 
z
" transform="scale(0.015625)"/>
       <path id="NotoSansCJKjp-Regular-3c0" d="M 3469 -83 
C 3667 -83 3827 -45 3942 -6 
L 3859 442 
C 3731 416 3642 403 3584 403 
C 3366 403 3258 499 3258 742 
C 3258 1082 3264 2202 3309 2995 
L 4006 2995 
L 4006 3475 
L 659 3475 
L 160 3443 
L 160 2995 
L 966 2995 
C 966 2054 877 979 717 0 
L 1306 -32 
C 1402 941 1504 2016 1504 2995 
L 2752 2995 
C 2739 2227 2707 1146 2707 781 
C 2707 224 2918 -83 3469 -83 
z
" transform="scale(0.015625)"/>
       <path id="NotoSansCJKjp-Regular-29" d="M 634 -1254 
C 1222 -301 1574 730 1574 1990 
C 1574 3245 1222 4275 634 5235 
L 269 5069 
C 819 4154 1094 3072 1094 1990 
C 1094 902 819 -186 269 -1094 
L 634 -1254 
z
" transform="scale(0.015625)"/>
      </defs>
      <use xlink:href="#NotoSansCJKjp-Regular-42"/>
      <use xlink:href="#NotoSansCJKjp-Regular-65" transform="translate(65.699997 0)"/>
      <use xlink:href="#NotoSansCJKjp-Regular-72" transform="translate(121.099991 0)"/>
      <use xlink:href="#NotoSansCJKjp-Regular-72" transform="translate(159.899979 0)"/>
      <use xlink:href="#NotoSansCJKjp-Regular-79" transform="translate(198.699966 0)"/>
      <use xlink:href="#NotoSansCJKjp-Regular-20" transform="translate(250.799957 0)"/>
      <use xlink:href="#NotoSansCJKjp-Regular-70" transform="translate(273.199951 0)"/>
      <use xlink:href="#NotoSansCJKjp-Regular-68" transform="translate(335.199936 0)"/>
      <use xlink:href="#NotoSansCJKjp-Regular-61" transform="translate(395.899933 0)"/>
      <use xlink:href="#NotoSansCJKjp-Regular-73" transform="translate(452.199921 0)"/>
      <use xlink:href="#NotoSansCJKjp-Regular-65" transform="translate(498.999908 0)"/>
      <use xlink:href="#NotoSansCJKjp-Regular-20" transform="translate(554.399902 0)"/>
      <use xlink:href="#NotoSansCJKjp-Regular-3b3" transform="translate(576.799896 0)"/>
      <use xlink:href="#NotoSansCJKjp-Regular-20" transform="translate(630.799881 0)"/>
      <use xlink:href="#NotoSansCJKjp-Regular-28" transform="translate(653.199875 0)"/>
      <use xlink:href="#NotoSansCJKjp-Regular-3c0" transform="translate(686.999863 0)"/>
      <use xlink:href="#NotoSansCJKjp-Regular-29" transform="translate(752.399857 0)"/>
     </g>
    </g>
   </g>
   <g id="line2d_59">
    <path d="M 64.383409 127.367417 
L 102.947252 127.376076 
L 145.209494 127.396329 
L 183.773337 127.454461 
L 226.035579 127.658186 
L 264.599421 128.242022 
L 306.861663 130.29366 
L 345.425506 136.224792 
L 387.687748 157.665811 
L 426.251591 219.273546 
" clip-path="url(#p58e3ec0655)" style="fill: none; stroke-dasharray: 5.55,2.4; stroke-dashoffset: 0; stroke: #eb6834; stroke-width: 1.5"/>
    <defs>
     <path id="m784ead51ae" d="M 0 2.5 
C 0.663008 2.5 1.29895 2.236584 1.767767 1.767767 
C 2.236584 1.29895 2.5 0.663008 2.5 0 
C 2.5 -0.663008 2.236584 -1.29895 1.767767 -1.767767 
C 1.29895 -2.236584 0.663008 -2.5 0 -2.5 
C -0.663008 -2.5 -1.29895 -2.236584 -1.767767 -1.767767 
C -2.236584 -1.29895 -2.5 -0.663008 -2.5 0 
C -2.5 0.663008 -2.236584 1.29895 -1.767767 1.767767 
C -1.29895 2.236584 -0.663008 2.5 0 2.5 
z
" style="stroke: #eb6834"/>
    </defs>
    <g clip-path="url(#p58e3ec0655)">
     <use xlink:href="#m784ead51ae" x="64.383409" y="127.367417" style="fill: #eb6834; stroke: #eb6834"/>
     <use xlink:href="#m784ead51ae" x="102.947252" y="127.376076" style="fill: #eb6834; stroke: #eb6834"/>
     <use xlink:href="#m784ead51ae" x="145.209494" y="127.396329" style="fill: #eb6834; stroke: #eb6834"/>
     <use xlink:href="#m784ead51ae" x="183.773337" y="127.454461" style="fill: #eb6834; stroke: #eb6834"/>
     <use xlink:href="#m784ead51ae" x="226.035579" y="127.658186" style="fill: #eb6834; stroke: #eb6834"/>
     <use xlink:href="#m784ead51ae" x="264.599421" y="128.242022" style="fill: #eb6834; stroke: #eb6834"/>
     <use xlink:href="#m784ead51ae" x="306.861663" y="130.29366" style="fill: #eb6834; stroke: #eb6834"/>
     <use xlink:href="#m784ead51ae" x="345.425506" y="136.224792" style="fill: #eb6834; stroke: #eb6834"/>
     <use xlink:href="#m784ead51ae" x="387.687748" y="157.665811" style="fill: #eb6834; stroke: #eb6834"/>
     <use xlink:href="#m784ead51ae" x="426.251591" y="219.273546" style="fill: #eb6834; stroke: #eb6834"/>
    </g>
   </g>
   <g id="line2d_60">
    <path d="M 64.383409 127.367417 
L 102.947252 127.358693 
L 145.209494 127.33837 
L 183.773337 127.280138 
L 226.035579 127.077058 
L 264.599421 126.496999 
L 306.861663 124.476574 
L 345.425506 118.786702 
L 387.687748 99.965588 
L 426.251591 57.62083 
" clip-path="url(#p58e3ec0655)" style="fill: none; stroke: #2a78d6; stroke-width: 1.5; stroke-linecap: square"/>
    <defs>
     <path id="m2598333916" d="M 0 2.5 
C 0.663008 2.5 1.29895 2.236584 1.767767 1.767767 
C 2.236584 1.29895 2.5 0.663008 2.5 0 
C 2.5 -0.663008 2.236584 -1.29895 1.767767 -1.767767 
C 1.29895 -2.236584 0.663008 -2.5 0 -2.5 
C -0.663008 -2.5 -1.29895 -2.236584 -1.767767 -1.767767 
C -2.236584 -1.29895 -2.5 -0.663008 -2.5 0 
C -2.5 0.663008 -2.236584 1.29895 -1.767767 1.767767 
C -1.29895 2.236584 -0.663008 2.5 0 2.5 
z
" style="stroke: #2a78d6"/>
    </defs>
    <g clip-path="url(#p58e3ec0655)">
     <use xlink:href="#m2598333916" x="64.383409" y="127.367417" style="fill: #2a78d6; stroke: #2a78d6"/>
     <use xlink:href="#m2598333916" x="102.947252" y="127.358693" style="fill: #2a78d6; stroke: #2a78d6"/>
     <use xlink:href="#m2598333916" x="145.209494" y="127.33837" style="fill: #2a78d6; stroke: #2a78d6"/>
     <use xlink:href="#m2598333916" x="183.773337" y="127.280138" style="fill: #2a78d6; stroke: #2a78d6"/>
     <use xlink:href="#m2598333916" x="226.035579" y="127.077058" style="fill: #2a78d6; stroke: #2a78d6"/>
     <use xlink:href="#m2598333916" x="264.599421" y="126.496999" style="fill: #2a78d6; stroke: #2a78d6"/>
     <use xlink:href="#m2598333916" x="306.861663" y="124.476574" style="fill: #2a78d6; stroke: #2a78d6"/>
     <use xlink:href="#m2598333916" x="345.425506" y="118.786702" style="fill: #2a78d6; stroke: #2a78d6"/>
     <use xlink:href="#m2598333916" x="387.687748" y="99.965588" style="fill: #2a78d6; stroke: #2a78d6"/>
     <use xlink:href="#m2598333916" x="426.251591" y="57.62083" style="fill: #2a78d6; stroke: #2a78d6"/>
    </g>
   </g>
   <g id="line2d_61">
    <defs>
     <path id="m653f55c711" d="M -4.5 4.5 
L 4.5 -4.5 
M -4.5 -4.5 
L 4.5 4.5 
" style="stroke: #1c5cab; stroke-width: 1.5"/>
    </defs>
    <g clip-path="url(#p58e3ec0655)">
     <use xlink:href="#m653f55c711" x="64.383409" y="127.367417" style="fill: #1c5cab; stroke: #1c5cab; stroke-width: 1.5"/>
     <use xlink:href="#m653f55c711" x="102.947252" y="127.376076" style="fill: #1c5cab; stroke: #1c5cab; stroke-width: 1.5"/>
     <use xlink:href="#m653f55c711" x="145.209494" y="127.396329" style="fill: #1c5cab; stroke: #1c5cab; stroke-width: 1.5"/>
     <use xlink:href="#m653f55c711" x="183.773337" y="127.454461" style="fill: #1c5cab; stroke: #1c5cab; stroke-width: 1.5"/>
     <use xlink:href="#m653f55c711" x="226.035579" y="127.658186" style="fill: #1c5cab; stroke: #1c5cab; stroke-width: 1.5"/>
     <use xlink:href="#m653f55c711" x="264.599421" y="128.242022" style="fill: #1c5cab; stroke: #1c5cab; stroke-width: 1.5"/>
     <use xlink:href="#m653f55c711" x="306.861663" y="130.29366" style="fill: #1c5cab; stroke: #1c5cab; stroke-width: 1.5"/>
     <use xlink:href="#m653f55c711" x="345.425506" y="136.224792" style="fill: #1c5cab; stroke: #1c5cab; stroke-width: 1.5"/>
     <use xlink:href="#m653f55c711" x="387.687748" y="157.665811" style="fill: #1c5cab; stroke: #1c5cab; stroke-width: 1.5"/>
     <use xlink:href="#m653f55c711" x="426.251591" y="219.273546" style="fill: #1c5cab; stroke: #1c5cab; stroke-width: 1.5"/>
    </g>
   </g>
   <g id="line2d_62">
    <path d="M 46.29 127.367417 
L 444.345 127.367417 
" clip-path="url(#p58e3ec0655)" style="fill: none; stroke: #999999; stroke-width: 0.8; stroke-linecap: square"/>
   </g>
   <g id="patch_3">
    <path d="M 46.29 232.332 
L 46.29 49.30125 
" style="fill: none; stroke: #000000; stroke-width: 0.8; stroke-linejoin: miter; stroke-linecap: square"/>
   </g>
   <g id="patch_4">
    <path d="M 46.29 232.332 
L 444.345 232.332 
" style="fill: none; stroke: #000000; stroke-width: 0.8; stroke-linejoin: miter; stroke-linecap: square"/>
   </g>
   <g id="text_12">
    <!-- w = 1.5 -->
    <g transform="translate(46.29 43.30125) scale(0.11 -0.11)">
     <defs>
      <path id="NotoSansCJKjp-Regular-77" d="M 1139 0 
L 1818 0 
L 2310 1862 
C 2400 2195 2470 2522 2547 2874 
L 2579 2874 
C 2662 2522 2726 2202 2816 1875 
L 3315 0 
L 4026 0 
L 4966 3475 
L 4403 3475 
L 3898 1466 
C 3821 1133 3757 819 3686 499 
L 3654 499 
C 3571 819 3494 1133 3411 1466 
L 2867 3475 
L 2298 3475 
L 1754 1466 
C 1670 1133 1594 819 1523 499 
L 1491 499 
C 1421 819 1357 1133 1286 1466 
L 768 3475 
L 173 3475 
L 1139 0 
z
" transform="scale(0.015625)"/>
      <path id="NotoSansCJKjp-Regular-3d" d="M 243 2912 
L 3315 2912 
L 3315 3347 
L 243 3347 
L 243 2912 
z
M 243 1376 
L 3315 1376 
L 3315 1811 
L 243 1811 
L 243 1376 
z
" transform="scale(0.015625)"/>
      <path id="NotoSansCJKjp-Regular-35" d="M 1677 -83 
C 2464 -83 3213 499 3213 1523 
C 3213 2560 2573 3021 1798 3021 
C 1517 3021 1306 2950 1094 2835 
L 1216 4192 
L 2982 4192 
L 2982 4691 
L 704 4691 
L 550 2502 
L 864 2304 
C 1133 2483 1331 2579 1645 2579 
C 2234 2579 2618 2182 2618 1510 
C 2618 826 2176 403 1619 403 
C 1075 403 730 653 467 922 
L 173 538 
C 493 224 941 -83 1677 -83 
z
" transform="scale(0.015625)"/>
     </defs>
     <use xlink:href="#NotoSansCJKjp-Regular-77"/>
     <use xlink:href="#NotoSansCJKjp-Regular-20" transform="translate(80.199982 0)"/>
     <use xlink:href="#NotoSansCJKjp-Regular-3d" transform="translate(102.599976 0)"/>
     <use xlink:href="#NotoSansCJKjp-Regular-20" transform="translate(158.09996 0)"/>
     <use xlink:href="#NotoSansCJKjp-Regular-31" transform="translate(180.499954 0)"/>
     <use xlink:href="#NotoSansCJKjp-Regular-2e" transform="translate(235.999939 0)"/>
     <use xlink:href="#NotoSansCJKjp-Regular-35" transform="translate(263.799927 0)"/>
    </g>
   </g>
   <g id="legend_1">
    <g id="line2d_63">
     <path d="M 53.49 60.06875 
L 61.49 60.06875 
L 69.49 60.06875 
" style="fill: none; stroke-dasharray: 5.55,2.4; stroke-dashoffset: 0; stroke: #eb6834; stroke-width: 1.5"/>
     <g>
      <use xlink:href="#m784ead51ae" x="61.49" y="60.06875" style="fill: #eb6834; stroke: #eb6834"/>
     </g>
    </g>
    <g id="text_13">
     <!-- 修正前（論文所用） -->
     <g transform="translate(75.89 62.86875) scale(0.08 -0.08)">
      <defs>
       <path id="NotoSansCJKjp-Regular-4fee" d="M 4467 2470 
C 4122 2138 3475 1837 2906 1664 
C 2995 1587 3110 1472 3174 1376 
C 3782 1581 4442 1914 4832 2317 
L 4467 2470 
z
M 5082 1850 
C 4646 1395 3802 1037 2989 851 
C 3085 762 3181 627 3238 531 
C 4102 762 4954 1165 5440 1702 
L 5082 1850 
z
M 5677 1152 
C 5107 499 3930 90 2643 -96 
C 2739 -205 2842 -371 2893 -486 
C 4250 -243 5453 211 6093 973 
L 5677 1152 
z
M 3539 4275 
L 5050 4275 
C 4864 3942 4614 3661 4314 3424 
C 3968 3680 3706 3968 3526 4256 
L 3539 4275 
z
M 1984 4614 
L 1984 550 
L 2413 550 
L 2413 3565 
C 2522 3501 2669 3386 2739 3315 
C 2931 3488 3117 3693 3290 3930 
C 3469 3674 3699 3418 3981 3187 
C 3533 2899 3008 2694 2426 2547 
C 2509 2458 2656 2266 2707 2163 
C 3309 2349 3866 2592 4339 2918 
C 4794 2618 5350 2374 6016 2221 
C 6074 2342 6195 2515 6285 2611 
C 5658 2726 5120 2931 4685 3181 
C 5043 3488 5338 3846 5555 4275 
L 6080 4275 
L 6080 4678 
L 3776 4678 
C 3885 4870 3974 5069 4058 5267 
L 3616 5382 
C 3354 4710 2912 4064 2413 3635 
L 2413 4614 
L 1984 4614 
z
M 1491 5338 
C 1178 4346 672 3366 115 2726 
C 192 2605 320 2349 365 2234 
C 576 2483 787 2778 979 3104 
L 979 -512 
L 1434 -512 
L 1434 3955 
C 1626 4358 1798 4787 1933 5216 
L 1491 5338 
z
" transform="scale(0.015625)"/>
       <path id="NotoSansCJKjp-Regular-6b63" d="M 1203 3264 
L 1203 243 
L 333 243 
L 333 -224 
L 6080 -224 
L 6080 243 
L 3616 243 
L 3616 2259 
L 5619 2259 
L 5619 2726 
L 3616 2726 
L 3616 4435 
L 5869 4435 
L 5869 4909 
L 576 4909 
L 576 4435 
L 3110 4435 
L 3110 243 
L 1696 243 
L 1696 3264 
L 1203 3264 
z
" transform="scale(0.015625)"/>
       <path id="NotoSansCJKjp-Regular-524d" d="M 3866 3290 
L 3866 666 
L 4314 666 
L 4314 3290 
L 3866 3290 
z
M 5165 3482 
L 5165 90 
C 5165 -6 5133 -32 5030 -32 
C 4922 -38 4576 -38 4186 -26 
C 4256 -154 4333 -358 4358 -486 
C 4851 -493 5178 -480 5370 -403 
C 5568 -326 5638 -192 5638 83 
L 5638 3482 
L 5165 3482 
z
M 4627 5408 
C 4486 5094 4243 4672 4026 4365 
L 2106 4365 
L 2419 4480 
C 2298 4736 2022 5114 1779 5382 
L 1331 5222 
C 1562 4960 1798 4614 1920 4365 
L 339 4365 
L 339 3923 
L 6061 3923 
L 6061 4365 
L 4570 4365 
C 4755 4627 4960 4947 5139 5242 
L 4627 5408 
z
M 2618 1926 
L 2618 1280 
L 1197 1280 
L 1197 1926 
L 2618 1926 
z
M 2618 2304 
L 1197 2304 
L 1197 2938 
L 2618 2938 
L 2618 2304 
z
M 742 3347 
L 742 -480 
L 1197 -480 
L 1197 902 
L 2618 902 
L 2618 45 
C 2618 -38 2592 -64 2502 -64 
C 2419 -70 2125 -70 1798 -58 
C 1862 -179 1933 -365 1965 -486 
C 2394 -486 2682 -480 2854 -403 
C 3034 -333 3085 -205 3085 38 
L 3085 3347 
L 742 3347 
z
" transform="scale(0.015625)"/>
       <path id="NotoSansCJKjp-Regular-8ad6" d="M 4230 4915 
C 4621 4326 5318 3635 5952 3219 
C 6022 3354 6131 3520 6227 3635 
C 5581 4006 4877 4691 4435 5363 
L 3987 5363 
C 3654 4730 2970 3981 2272 3552 
C 2355 3456 2470 3283 2522 3168 
C 3219 3622 3878 4333 4230 4915 
z
M 3155 3616 
L 3155 3206 
L 5363 3206 
L 5363 3616 
L 3155 3616 
z
M 518 3437 
L 518 3059 
L 2246 3059 
L 2246 3437 
L 518 3437 
z
M 557 5152 
L 557 4768 
L 2227 4768 
L 2227 5152 
L 557 5152 
z
M 518 2586 
L 518 2202 
L 2246 2202 
L 2246 2586 
L 518 2586 
z
M 243 4314 
L 243 3910 
L 2438 3910 
L 2438 4314 
L 243 4314 
z
M 5434 2253 
L 5434 1344 
L 4870 1344 
L 4870 2253 
L 5434 2253 
z
M 2682 2656 
L 2682 -493 
L 3098 -493 
L 3098 947 
L 3629 947 
L 3629 -422 
L 3974 -422 
L 3974 947 
L 4518 947 
L 4518 -422 
L 4870 -422 
L 4870 947 
L 5434 947 
L 5434 -38 
C 5434 -102 5421 -122 5363 -122 
C 5312 -122 5158 -122 4973 -115 
C 5024 -224 5082 -397 5101 -499 
C 5376 -499 5562 -499 5696 -429 
C 5824 -358 5862 -250 5862 -45 
L 5862 2656 
L 2682 2656 
z
M 3629 2253 
L 3629 1344 
L 3098 1344 
L 3098 2253 
L 3629 2253 
z
M 3974 2253 
L 4518 2253 
L 4518 1344 
L 3974 1344 
L 3974 2253 
z
M 512 1722 
L 512 -442 
L 922 -442 
L 922 -141 
L 2253 -141 
L 2253 1722 
L 512 1722 
z
M 922 1325 
L 1843 1325 
L 1843 256 
L 922 256 
L 922 1325 
z
" transform="scale(0.015625)"/>
       <path id="NotoSansCJKjp-Regular-6587" d="M 2944 5376 
L 2944 4288 
L 320 4288 
L 320 3821 
L 1274 3821 
C 1638 2797 2138 1920 2803 1216 
C 2118 653 1274 237 250 -58 
C 346 -173 499 -403 557 -518 
C 1594 -186 2458 262 3162 864 
C 3878 230 4755 -237 5824 -512 
C 5907 -378 6061 -154 6176 -45 
C 5133 198 4262 640 3558 1229 
C 4230 1914 4742 2758 5120 3821 
L 6106 3821 
L 6106 4288 
L 3437 4288 
L 3437 5376 
L 2944 5376 
z
M 3187 1574 
C 2579 2195 2118 2950 1798 3821 
L 4563 3821 
C 4230 2912 3782 2170 3187 1574 
z
" transform="scale(0.015625)"/>
       <path id="NotoSansCJKjp-Regular-6240" d="M 390 5024 
L 390 4582 
L 3155 4582 
L 3155 5024 
L 390 5024 
z
M 5626 5299 
C 5203 5062 4493 4826 3808 4646 
L 3424 4742 
L 3424 3040 
C 3424 2054 3328 774 2438 -173 
C 2554 -230 2733 -397 2797 -499 
C 3667 435 3866 1728 3891 2733 
L 4998 2733 
L 4998 -512 
L 5472 -512 
L 5472 2733 
L 6182 2733 
L 6182 3194 
L 3898 3194 
L 3898 4230 
C 4646 4410 5466 4653 6048 4941 
L 5626 5299 
z
M 627 3910 
L 627 2189 
C 627 1446 582 467 141 -230 
C 243 -282 435 -435 512 -518 
C 954 154 1069 1133 1082 1914 
L 2989 1914 
L 2989 3910 
L 627 3910 
z
M 1088 3469 
L 2522 3469 
L 2522 2349 
L 1088 2349 
L 1088 3469 
z
" transform="scale(0.015625)"/>
       <path id="NotoSansCJKjp-Regular-7528" d="M 979 4928 
L 979 2605 
C 979 1702 915 570 205 -230 
C 314 -288 506 -448 576 -544 
C 1069 0 1286 736 1382 1453 
L 2989 1453 
L 2989 -454 
L 3475 -454 
L 3475 1453 
L 5203 1453 
L 5203 141 
C 5203 26 5158 -13 5030 -19 
C 4909 -26 4474 -32 4026 -13 
C 4090 -141 4166 -352 4192 -474 
C 4794 -480 5165 -474 5382 -397 
C 5600 -320 5677 -173 5677 141 
L 5677 4928 
L 979 4928 
z
M 1453 4467 
L 2989 4467 
L 2989 3437 
L 1453 3437 
L 1453 4467 
z
M 5203 4467 
L 5203 3437 
L 3475 3437 
L 3475 4467 
L 5203 4467 
z
M 1453 2982 
L 2989 2982 
L 2989 1907 
L 1427 1907 
C 1446 2150 1453 2387 1453 2605 
L 1453 2982 
z
M 5203 2982 
L 5203 1907 
L 3475 1907 
L 3475 2982 
L 5203 2982 
z
" transform="scale(0.015625)"/>
      </defs>
      <use xlink:href="#NotoSansCJKjp-Regular-4fee"/>
      <use xlink:href="#NotoSansCJKjp-Regular-6b63" transform="translate(99.999985 0)"/>
      <use xlink:href="#NotoSansCJKjp-Regular-524d" transform="translate(199.999969 0)"/>
      <use xlink:href="#NotoSansCJKjp-Regular-ff08" transform="translate(299.999954 0)"/>
      <use xlink:href="#NotoSansCJKjp-Regular-8ad6" transform="translate(399.999939 0)"/>
      <use xlink:href="#NotoSansCJKjp-Regular-6587" transform="translate(499.999924 0)"/>
      <use xlink:href="#NotoSansCJKjp-Regular-6240" transform="translate(599.999908 0)"/>
      <use xlink:href="#NotoSansCJKjp-Regular-7528" transform="translate(699.999893 0)"/>
      <use xlink:href="#NotoSansCJKjp-Regular-ff09" transform="translate(799.999878 0)"/>
     </g>
    </g>
    <g id="line2d_64">
     <path d="M 53.49 72.26875 
L 61.49 72.26875 
L 69.49 72.26875 
" style="fill: none; stroke: #2a78d6; stroke-width: 1.5; stroke-linecap: square"/>
     <g>
      <use xlink:href="#m2598333916" x="61.49" y="72.26875" style="fill: #2a78d6; stroke: #2a78d6"/>
     </g>
    </g>
    <g id="text_14">
     <!-- 修正後 -->
     <g transform="translate(75.89 75.06875) scale(0.08 -0.08)">
      <defs>
       <path id="NotoSansCJKjp-Regular-5f8c" d="M 1562 5376 
C 1280 4922 710 4371 211 4032 
C 288 3949 416 3776 474 3680 
C 1024 4070 1619 4666 1997 5203 
L 1562 5376 
z
M 1933 2944 
L 1978 2509 
L 3456 2554 
C 3072 1984 2470 1485 1862 1152 
C 1965 1069 2125 883 2189 787 
C 2451 947 2714 1139 2963 1357 
C 3168 1062 3418 794 3699 557 
C 3142 230 2490 13 1843 -115 
C 1933 -218 2035 -410 2080 -531 
C 2784 -365 3482 -109 4083 269 
C 4614 -90 5248 -358 5939 -518 
C 6003 -397 6125 -211 6234 -109 
C 5581 19 4979 243 4467 544 
C 4934 909 5318 1363 5562 1926 
L 5254 2074 
L 5171 2054 
L 3629 2054 
C 3763 2221 3885 2394 3994 2573 
L 5542 2624 
C 5664 2451 5760 2291 5824 2157 
L 6227 2394 
C 6029 2784 5568 3366 5165 3782 
L 4787 3584 
C 4947 3411 5114 3213 5261 3014 
L 3539 2976 
C 4141 3469 4794 4102 5306 4653 
L 4870 4890 
C 4570 4512 4147 4064 3712 3654 
C 3565 3808 3360 3981 3142 4154 
C 3437 4435 3776 4813 4058 5158 
L 3629 5376 
C 3430 5082 3110 4691 2822 4390 
L 2445 4653 
L 2150 4339 
C 2579 4058 3072 3661 3379 3347 
C 3226 3206 3072 3078 2931 2963 
L 1933 2944 
z
M 3258 1638 
L 3290 1670 
L 4915 1670 
C 4704 1338 4416 1043 4077 800 
C 3744 1043 3469 1325 3258 1638 
z
M 1715 4070 
C 1338 3392 723 2726 134 2285 
C 218 2189 358 1958 410 1862 
C 646 2054 896 2291 1133 2547 
L 1133 -531 
L 1587 -531 
L 1587 3085 
C 1798 3354 1984 3635 2144 3917 
L 1715 4070 
z
" transform="scale(0.015625)"/>
      </defs>
      <use xlink:href="#NotoSansCJKjp-Regular-4fee"/>
      <use xlink:href="#NotoSansCJKjp-Regular-6b63" transform="translate(99.999985 0)"/>
      <use xlink:href="#NotoSansCJKjp-Regular-5f8c" transform="translate(199.999969 0)"/>
     </g>
    </g>
    <g id="line2d_65">
     <g>
      <use xlink:href="#m653f55c711" x="61.49" y="84.51625" style="fill: #1c5cab; stroke: #1c5cab; stroke-width: 1.5"/>
     </g>
    </g>
    <g id="text_15">
     <!-- 修正後，但 U_A, U_B → −U_A, −U_B -->
     <g transform="translate(75.89 87.31625) scale(0.08 -0.08)">
      <defs>
       <path id="NotoSansCJKjp-Regular-ff0c" d="M 1005 -685 
C 1677 -448 2112 77 2112 768 
C 2112 1216 1920 1504 1568 1504 
C 1306 1504 1082 1344 1082 1043 
C 1082 742 1299 589 1562 589 
L 1670 602 
C 1638 160 1357 -141 864 -346 
L 1005 -685 
z
" transform="scale(0.015625)"/>
       <path id="NotoSansCJKjp-Regular-4f46" d="M 1971 198 
L 1971 -250 
L 6189 -250 
L 6189 198 
L 1971 198 
z
M 3008 2758 
L 5126 2758 
L 5126 1472 
L 3008 1472 
L 3008 2758 
z
M 3008 4467 
L 5126 4467 
L 5126 3206 
L 3008 3206 
L 3008 4467 
z
M 2515 4922 
L 2515 1024 
L 5645 1024 
L 5645 4922 
L 2515 4922 
z
M 1779 5350 
C 1414 4378 806 3418 166 2803 
C 256 2688 403 2426 448 2310 
C 672 2534 890 2803 1101 3091 
L 1101 -499 
L 1574 -499 
L 1574 3821 
C 1830 4262 2061 4736 2246 5210 
L 1779 5350 
z
" transform="scale(0.015625)"/>
       <path id="NotoSansCJKjp-Regular-5f" d="M 83 -896 
L 3488 -896 
L 3488 -512 
L 83 -512 
L 83 -896 
z
" transform="scale(0.015625)"/>
       <path id="NotoSansCJKjp-Regular-41" d="M 26 0 
L 621 0 
L 1075 1434 
L 2790 1434 
L 3238 0 
L 3866 0 
L 2272 4691 
L 1613 4691 
L 26 0 
z
M 1222 1901 
L 1453 2624 
C 1619 3155 1773 3661 1920 4211 
L 1946 4211 
C 2099 3667 2246 3155 2419 2624 
L 2643 1901 
L 1222 1901 
z
" transform="scale(0.015625)"/>
       <path id="NotoSansCJKjp-Regular-2c" d="M 480 -1216 
C 1056 -973 1414 -493 1414 122 
C 1414 550 1229 806 922 806 
C 685 806 480 653 480 397 
C 480 141 678 -13 909 -13 
L 979 -6 
C 973 -390 736 -698 339 -870 
L 480 -1216 
z
" transform="scale(0.015625)"/>
       <path id="NotoSansCJKjp-Regular-2192" d="M 5190 2650 
L 256 2650 
L 256 2214 
L 5190 2214 
C 4864 1965 4442 1562 4154 1165 
L 4538 941 
C 4966 1504 5606 2067 6176 2432 
C 5606 2797 4966 3360 4538 3923 
L 4154 3699 
C 4442 3302 4864 2899 5190 2650 
z
" transform="scale(0.015625)"/>
      </defs>
      <use xlink:href="#NotoSansCJKjp-Regular-4fee"/>
      <use xlink:href="#NotoSansCJKjp-Regular-6b63" transform="translate(99.999985 0)"/>
      <use xlink:href="#NotoSansCJKjp-Regular-5f8c" transform="translate(199.999969 0)"/>
      <use xlink:href="#NotoSansCJKjp-Regular-ff0c" transform="translate(299.999954 0)"/>
      <use xlink:href="#NotoSansCJKjp-Regular-4f46" transform="translate(399.999939 0)"/>
      <use xlink:href="#NotoSansCJKjp-Regular-20" transform="translate(499.999924 0)"/>
      <use xlink:href="#NotoSansCJKjp-Regular-55" transform="translate(522.399918 0)"/>
      <use xlink:href="#NotoSansCJKjp-Regular-5f" transform="translate(594.499908 0)"/>
      <use xlink:href="#NotoSansCJKjp-Regular-41" transform="translate(650.399902 0)"/>
      <use xlink:href="#NotoSansCJKjp-Regular-2c" transform="translate(711.19989 0)"/>
      <use xlink:href="#NotoSansCJKjp-Regular-20" transform="translate(738.999878 0)"/>
      <use xlink:href="#NotoSansCJKjp-Regular-55" transform="translate(761.399872 0)"/>
      <use xlink:href="#NotoSansCJKjp-Regular-5f" transform="translate(833.499863 0)"/>
      <use xlink:href="#NotoSansCJKjp-Regular-42" transform="translate(889.399857 0)"/>
      <use xlink:href="#NotoSansCJKjp-Regular-20" transform="translate(955.099854 0)"/>
      <use xlink:href="#NotoSansCJKjp-Regular-2192" transform="translate(977.499847 0)"/>
      <use xlink:href="#NotoSansCJKjp-Regular-20" transform="translate(1077.499832 0)"/>
      <use xlink:href="#NotoSansCJKjp-Regular-2212" transform="translate(1099.899826 0)"/>
      <use xlink:href="#NotoSansCJKjp-Regular-55" transform="translate(1155.399811 0)"/>
      <use xlink:href="#NotoSansCJKjp-Regular-5f" transform="translate(1227.499802 0)"/>
      <use xlink:href="#NotoSansCJKjp-Regular-41" transform="translate(1283.399796 0)"/>
      <use xlink:href="#NotoSansCJKjp-Regular-2c" transform="translate(1344.199783 0)"/>
      <use xlink:href="#NotoSansCJKjp-Regular-20" transform="translate(1371.999771 0)"/>
      <use xlink:href="#NotoSansCJKjp-Regular-2212" transform="translate(1394.399765 0)"/>
      <use xlink:href="#NotoSansCJKjp-Regular-55" transform="translate(1449.89975 0)"/>
      <use xlink:href="#NotoSansCJKjp-Regular-5f" transform="translate(1521.999741 0)"/>
      <use xlink:href="#NotoSansCJKjp-Regular-42" transform="translate(1577.899734 0)"/>
     </g>
    </g>
   </g>
  </g>
  <g id="axes_2">
   <g id="patch_5">
    <path d="M 455.145 232.332 
L 853.2 232.332 
L 853.2 49.30125 
L 455.145 49.30125 
z
" style="fill: #ffffff"/>
   </g>
   <g id="matplotlib.axis_3">
    <g id="xtick_46">
     <g id="line2d_66">
      <path d="M 473.238409 232.332 
L 473.238409 49.30125 
" clip-path="url(#p5282470f28)" style="fill: none; stroke: #e5e5e5; stroke-width: 0.6; stroke-linecap: square"/>
     </g>
     <g id="line2d_67"/>
     <g id="text_16">
      <!-- $\mathdefault{10^{-4}}$ -->
      <g transform="translate(463.588409 243.791375) scale(0.1 -0.1)">
       <use xlink:href="#NotoSansCJKjp-Regular-31" transform="translate(0 0.684375)"/>
       <use xlink:href="#NotoSansCJKjp-Regular-30" transform="translate(55.499985 0.684375)"/>
       <use xlink:href="#NotoSansCJKjp-Regular-2212" transform="translate(111.950165 38.692188) scale(0.7)"/>
       <use xlink:href="#NotoSansCJKjp-Regular-34" transform="translate(150.800154 38.692188) scale(0.7)"/>
      </g>
     </g>
    </g>
    <g id="xtick_47">
     <g id="line2d_68">
      <path d="M 554.064494 232.332 
L 554.064494 49.30125 
" clip-path="url(#p5282470f28)" style="fill: none; stroke: #e5e5e5; stroke-width: 0.6; stroke-linecap: square"/>
     </g>
     <g id="line2d_69"/>
     <g id="text_17">
      <!-- $\mathdefault{10^{-3}}$ -->
      <g transform="translate(544.414494 243.791375) scale(0.1 -0.1)">
       <use xlink:href="#NotoSansCJKjp-Regular-31" transform="translate(0 0.776563)"/>
       <use xlink:href="#NotoSansCJKjp-Regular-30" transform="translate(55.499985 0.776563)"/>
       <use xlink:href="#NotoSansCJKjp-Regular-2212" transform="translate(111.950165 38.784375) scale(0.7)"/>
       <use xlink:href="#NotoSansCJKjp-Regular-33" transform="translate(150.800154 38.784375) scale(0.7)"/>
      </g>
     </g>
    </g>
    <g id="xtick_48">
     <g id="line2d_70">
      <path d="M 634.890579 232.332 
L 634.890579 49.30125 
" clip-path="url(#p5282470f28)" style="fill: none; stroke: #e5e5e5; stroke-width: 0.6; stroke-linecap: square"/>
     </g>
     <g id="line2d_71"/>
     <g id="text_18">
      <!-- $\mathdefault{10^{-2}}$ -->
      <g transform="translate(625.240579 243.791375) scale(0.1 -0.1)">
       <use xlink:href="#NotoSansCJKjp-Regular-31" transform="translate(0 0.776563)"/>
       <use xlink:href="#NotoSansCJKjp-Regular-30" transform="translate(55.499985 0.776563)"/>
       <use xlink:href="#NotoSansCJKjp-Regular-2212" transform="translate(111.950165 38.784375) scale(0.7)"/>
       <use xlink:href="#NotoSansCJKjp-Regular-32" transform="translate(150.800154 38.784375) scale(0.7)"/>
      </g>
     </g>
    </g>
    <g id="xtick_49">
     <g id="line2d_72">
      <path d="M 715.716663 232.332 
L 715.716663 49.30125 
" clip-path="url(#p5282470f28)" style="fill: none; stroke: #e5e5e5; stroke-width: 0.6; stroke-linecap: square"/>
     </g>
     <g id="line2d_73"/>
     <g id="text_19">
      <!-- $\mathdefault{10^{-1}}$ -->
      <g transform="translate(706.066663 243.791375) scale(0.1 -0.1)">
       <use xlink:href="#NotoSansCJKjp-Regular-31" transform="translate(0 0.684375)"/>
       <use xlink:href="#NotoSansCJKjp-Regular-30" transform="translate(55.499985 0.684375)"/>
       <use xlink:href="#NotoSansCJKjp-Regular-2212" transform="translate(111.950165 38.692188) scale(0.7)"/>
       <use xlink:href="#NotoSansCJKjp-Regular-31" transform="translate(150.800154 38.692188) scale(0.7)"/>
      </g>
     </g>
    </g>
    <g id="xtick_50">
     <g id="line2d_74">
      <path d="M 796.542748 232.332 
L 796.542748 49.30125 
" clip-path="url(#p5282470f28)" style="fill: none; stroke: #e5e5e5; stroke-width: 0.6; stroke-linecap: square"/>
     </g>
     <g id="line2d_75"/>
     <g id="text_20">
      <!-- $\mathdefault{10^{0}}$ -->
      <g transform="translate(788.842748 243.791375) scale(0.1 -0.1)">
       <use xlink:href="#NotoSansCJKjp-Regular-31" transform="translate(0 0.776563)"/>
       <use xlink:href="#NotoSansCJKjp-Regular-30" transform="translate(55.499985 0.776563)"/>
       <use xlink:href="#NotoSansCJKjp-Regular-30" transform="translate(111.950165 38.784375) scale(0.7)"/>
      </g>
     </g>
    </g>
    <g id="xtick_51">
     <g id="line2d_76">
      <g>
       <use xlink:href="#m7b2a0c424a" x="455.307243" y="232.332" style="stroke: #000000; stroke-width: 0.6"/>
      </g>
     </g>
    </g>
    <g id="xtick_52">
     <g id="line2d_77">
      <g>
       <use xlink:href="#m7b2a0c424a" x="460.71829" y="232.332" style="stroke: #000000; stroke-width: 0.6"/>
      </g>
     </g>
    </g>
    <g id="xtick_53">
     <g id="line2d_78">
      <g>
       <use xlink:href="#m7b2a0c424a" x="465.405552" y="232.332" style="stroke: #000000; stroke-width: 0.6"/>
      </g>
     </g>
    </g>
    <g id="xtick_54">
     <g id="line2d_79">
      <g>
       <use xlink:href="#m7b2a0c424a" x="469.54001" y="232.332" style="stroke: #000000; stroke-width: 0.6"/>
      </g>
     </g>
    </g>
    <g id="xtick_55">
     <g id="line2d_80">
      <g>
       <use xlink:href="#m7b2a0c424a" x="497.569485" y="232.332" style="stroke: #000000; stroke-width: 0.6"/>
      </g>
     </g>
    </g>
    <g id="xtick_56">
     <g id="line2d_81">
      <g>
       <use xlink:href="#m7b2a0c424a" x="511.802252" y="232.332" style="stroke: #000000; stroke-width: 0.6"/>
      </g>
     </g>
    </g>
    <g id="xtick_57">
     <g id="line2d_82">
      <g>
       <use xlink:href="#m7b2a0c424a" x="521.900561" y="232.332" style="stroke: #000000; stroke-width: 0.6"/>
      </g>
     </g>
    </g>
    <g id="xtick_58">
     <g id="line2d_83">
      <g>
       <use xlink:href="#m7b2a0c424a" x="529.733418" y="232.332" style="stroke: #000000; stroke-width: 0.6"/>
      </g>
     </g>
    </g>
    <g id="xtick_59">
     <g id="line2d_84">
      <g>
       <use xlink:href="#m7b2a0c424a" x="536.133328" y="232.332" style="stroke: #000000; stroke-width: 0.6"/>
      </g>
     </g>
    </g>
    <g id="xtick_60">
     <g id="line2d_85">
      <g>
       <use xlink:href="#m7b2a0c424a" x="541.544375" y="232.332" style="stroke: #000000; stroke-width: 0.6"/>
      </g>
     </g>
    </g>
    <g id="xtick_61">
     <g id="line2d_86">
      <g>
       <use xlink:href="#m7b2a0c424a" x="546.231637" y="232.332" style="stroke: #000000; stroke-width: 0.6"/>
      </g>
     </g>
    </g>
    <g id="xtick_62">
     <g id="line2d_87">
      <g>
       <use xlink:href="#m7b2a0c424a" x="550.366095" y="232.332" style="stroke: #000000; stroke-width: 0.6"/>
      </g>
     </g>
    </g>
    <g id="xtick_63">
     <g id="line2d_88">
      <g>
       <use xlink:href="#m7b2a0c424a" x="578.39557" y="232.332" style="stroke: #000000; stroke-width: 0.6"/>
      </g>
     </g>
    </g>
    <g id="xtick_64">
     <g id="line2d_89">
      <g>
       <use xlink:href="#m7b2a0c424a" x="592.628337" y="232.332" style="stroke: #000000; stroke-width: 0.6"/>
      </g>
     </g>
    </g>
    <g id="xtick_65">
     <g id="line2d_90">
      <g>
       <use xlink:href="#m7b2a0c424a" x="602.726646" y="232.332" style="stroke: #000000; stroke-width: 0.6"/>
      </g>
     </g>
    </g>
    <g id="xtick_66">
     <g id="line2d_91">
      <g>
       <use xlink:href="#m7b2a0c424a" x="610.559503" y="232.332" style="stroke: #000000; stroke-width: 0.6"/>
      </g>
     </g>
    </g>
    <g id="xtick_67">
     <g id="line2d_92">
      <g>
       <use xlink:href="#m7b2a0c424a" x="616.959413" y="232.332" style="stroke: #000000; stroke-width: 0.6"/>
      </g>
     </g>
    </g>
    <g id="xtick_68">
     <g id="line2d_93">
      <g>
       <use xlink:href="#m7b2a0c424a" x="622.37046" y="232.332" style="stroke: #000000; stroke-width: 0.6"/>
      </g>
     </g>
    </g>
    <g id="xtick_69">
     <g id="line2d_94">
      <g>
       <use xlink:href="#m7b2a0c424a" x="627.057722" y="232.332" style="stroke: #000000; stroke-width: 0.6"/>
      </g>
     </g>
    </g>
    <g id="xtick_70">
     <g id="line2d_95">
      <g>
       <use xlink:href="#m7b2a0c424a" x="631.19218" y="232.332" style="stroke: #000000; stroke-width: 0.6"/>
      </g>
     </g>
    </g>
    <g id="xtick_71">
     <g id="line2d_96">
      <g>
       <use xlink:href="#m7b2a0c424a" x="659.221654" y="232.332" style="stroke: #000000; stroke-width: 0.6"/>
      </g>
     </g>
    </g>
    <g id="xtick_72">
     <g id="line2d_97">
      <g>
       <use xlink:href="#m7b2a0c424a" x="673.454421" y="232.332" style="stroke: #000000; stroke-width: 0.6"/>
      </g>
     </g>
    </g>
    <g id="xtick_73">
     <g id="line2d_98">
      <g>
       <use xlink:href="#m7b2a0c424a" x="683.55273" y="232.332" style="stroke: #000000; stroke-width: 0.6"/>
      </g>
     </g>
    </g>
    <g id="xtick_74">
     <g id="line2d_99">
      <g>
       <use xlink:href="#m7b2a0c424a" x="691.385587" y="232.332" style="stroke: #000000; stroke-width: 0.6"/>
      </g>
     </g>
    </g>
    <g id="xtick_75">
     <g id="line2d_100">
      <g>
       <use xlink:href="#m7b2a0c424a" x="697.785497" y="232.332" style="stroke: #000000; stroke-width: 0.6"/>
      </g>
     </g>
    </g>
    <g id="xtick_76">
     <g id="line2d_101">
      <g>
       <use xlink:href="#m7b2a0c424a" x="703.196544" y="232.332" style="stroke: #000000; stroke-width: 0.6"/>
      </g>
     </g>
    </g>
    <g id="xtick_77">
     <g id="line2d_102">
      <g>
       <use xlink:href="#m7b2a0c424a" x="707.883806" y="232.332" style="stroke: #000000; stroke-width: 0.6"/>
      </g>
     </g>
    </g>
    <g id="xtick_78">
     <g id="line2d_103">
      <g>
       <use xlink:href="#m7b2a0c424a" x="712.018264" y="232.332" style="stroke: #000000; stroke-width: 0.6"/>
      </g>
     </g>
    </g>
    <g id="xtick_79">
     <g id="line2d_104">
      <g>
       <use xlink:href="#m7b2a0c424a" x="740.047739" y="232.332" style="stroke: #000000; stroke-width: 0.6"/>
      </g>
     </g>
    </g>
    <g id="xtick_80">
     <g id="line2d_105">
      <g>
       <use xlink:href="#m7b2a0c424a" x="754.280506" y="232.332" style="stroke: #000000; stroke-width: 0.6"/>
      </g>
     </g>
    </g>
    <g id="xtick_81">
     <g id="line2d_106">
      <g>
       <use xlink:href="#m7b2a0c424a" x="764.378815" y="232.332" style="stroke: #000000; stroke-width: 0.6"/>
      </g>
     </g>
    </g>
    <g id="xtick_82">
     <g id="line2d_107">
      <g>
       <use xlink:href="#m7b2a0c424a" x="772.211672" y="232.332" style="stroke: #000000; stroke-width: 0.6"/>
      </g>
     </g>
    </g>
    <g id="xtick_83">
     <g id="line2d_108">
      <g>
       <use xlink:href="#m7b2a0c424a" x="778.611582" y="232.332" style="stroke: #000000; stroke-width: 0.6"/>
      </g>
     </g>
    </g>
    <g id="xtick_84">
     <g id="line2d_109">
      <g>
       <use xlink:href="#m7b2a0c424a" x="784.022629" y="232.332" style="stroke: #000000; stroke-width: 0.6"/>
      </g>
     </g>
    </g>
    <g id="xtick_85">
     <g id="line2d_110">
      <g>
       <use xlink:href="#m7b2a0c424a" x="788.709891" y="232.332" style="stroke: #000000; stroke-width: 0.6"/>
      </g>
     </g>
    </g>
    <g id="xtick_86">
     <g id="line2d_111">
      <g>
       <use xlink:href="#m7b2a0c424a" x="792.844349" y="232.332" style="stroke: #000000; stroke-width: 0.6"/>
      </g>
     </g>
    </g>
    <g id="xtick_87">
     <g id="line2d_112">
      <g>
       <use xlink:href="#m7b2a0c424a" x="820.873824" y="232.332" style="stroke: #000000; stroke-width: 0.6"/>
      </g>
     </g>
    </g>
    <g id="xtick_88">
     <g id="line2d_113">
      <g>
       <use xlink:href="#m7b2a0c424a" x="835.106591" y="232.332" style="stroke: #000000; stroke-width: 0.6"/>
      </g>
     </g>
    </g>
    <g id="xtick_89">
     <g id="line2d_114">
      <g>
       <use xlink:href="#m7b2a0c424a" x="845.2049" y="232.332" style="stroke: #000000; stroke-width: 0.6"/>
      </g>
     </g>
    </g>
    <g id="xtick_90">
     <g id="line2d_115">
      <g>
       <use xlink:href="#m7b2a0c424a" x="853.037757" y="232.332" style="stroke: #000000; stroke-width: 0.6"/>
      </g>
     </g>
    </g>
    <g id="text_21">
     <!-- ΔU（0 畫在 10⁻⁴） -->
     <g transform="translate(612.02875 258.041375) scale(0.1 -0.1)">
      <use xlink:href="#NotoSansCJKjp-Regular-394"/>
      <use xlink:href="#NotoSansCJKjp-Regular-55" transform="translate(65.599991 0)"/>
      <use xlink:href="#NotoSansCJKjp-Regular-ff08" transform="translate(137.699982 0)"/>
      <use xlink:href="#NotoSansCJKjp-Regular-30" transform="translate(237.699966 0)"/>
      <use xlink:href="#NotoSansCJKjp-Regular-20" transform="translate(293.199951 0)"/>
      <use xlink:href="#NotoSansCJKjp-Regular-756b" transform="translate(315.599945 0)"/>
      <use xlink:href="#NotoSansCJKjp-Regular-5728" transform="translate(415.59993 0)"/>
      <use xlink:href="#NotoSansCJKjp-Regular-20" transform="translate(515.599915 0)"/>
      <use xlink:href="#NotoSansCJKjp-Regular-31" transform="translate(537.999908 0)"/>
      <use xlink:href="#NotoSansCJKjp-Regular-30" transform="translate(593.499893 0)"/>
      <use xlink:href="#DejaVuSans-207b" transform="translate(648.999878 0)"/>
      <use xlink:href="#NotoSansCJKjp-Regular-2074" transform="translate(701.783081 0)"/>
      <use xlink:href="#NotoSansCJKjp-Regular-ff09" transform="translate(742.883072 0)"/>
     </g>
    </g>
   </g>
   <g id="matplotlib.axis_4">
    <g id="ytick_5">
     <g id="line2d_116">
      <path d="M 455.145 206.335669 
L 853.2 206.335669 
" clip-path="url(#p5282470f28)" style="fill: none; stroke: #e5e5e5; stroke-width: 0.6; stroke-linecap: square"/>
     </g>
     <g id="line2d_117"/>
    </g>
    <g id="ytick_6">
     <g id="line2d_118">
      <path d="M 455.145 166.851543 
L 853.2 166.851543 
" clip-path="url(#p5282470f28)" style="fill: none; stroke: #e5e5e5; stroke-width: 0.6; stroke-linecap: square"/>
     </g>
     <g id="line2d_119"/>
    </g>
    <g id="ytick_7">
     <g id="line2d_120">
      <path d="M 455.145 127.367417 
L 853.2 127.367417 
" clip-path="url(#p5282470f28)" style="fill: none; stroke: #e5e5e5; stroke-width: 0.6; stroke-linecap: square"/>
     </g>
     <g id="line2d_121"/>
    </g>
    <g id="ytick_8">
     <g id="line2d_122">
      <path d="M 455.145 87.883292 
L 853.2 87.883292 
" clip-path="url(#p5282470f28)" style="fill: none; stroke: #e5e5e5; stroke-width: 0.6; stroke-linecap: square"/>
     </g>
     <g id="line2d_123"/>
    </g>
   </g>
   <g id="line2d_124">
    <path d="M 473.238409 127.367417 
L 511.802252 127.376291 
L 554.064494 127.396998 
L 592.628337 127.456143 
L 634.890579 127.663099 
L 673.454421 128.255305 
L 715.716663 130.337848 
L 754.280506 136.387192 
L 796.542748 158.505415 
L 835.106591 224.01242 
" clip-path="url(#p5282470f28)" style="fill: none; stroke-dasharray: 5.55,2.4; stroke-dashoffset: 0; stroke: #eb6834; stroke-width: 1.5"/>
    <g clip-path="url(#p5282470f28)">
     <use xlink:href="#m784ead51ae" x="473.238409" y="127.367417" style="fill: #eb6834; stroke: #eb6834"/>
     <use xlink:href="#m784ead51ae" x="511.802252" y="127.376291" style="fill: #eb6834; stroke: #eb6834"/>
     <use xlink:href="#m784ead51ae" x="554.064494" y="127.396998" style="fill: #eb6834; stroke: #eb6834"/>
     <use xlink:href="#m784ead51ae" x="592.628337" y="127.456143" style="fill: #eb6834; stroke: #eb6834"/>
     <use xlink:href="#m784ead51ae" x="634.890579" y="127.663099" style="fill: #eb6834; stroke: #eb6834"/>
     <use xlink:href="#m784ead51ae" x="673.454421" y="128.255305" style="fill: #eb6834; stroke: #eb6834"/>
     <use xlink:href="#m784ead51ae" x="715.716663" y="130.337848" style="fill: #eb6834; stroke: #eb6834"/>
     <use xlink:href="#m784ead51ae" x="754.280506" y="136.387192" style="fill: #eb6834; stroke: #eb6834"/>
     <use xlink:href="#m784ead51ae" x="796.542748" y="158.505415" style="fill: #eb6834; stroke: #eb6834"/>
     <use xlink:href="#m784ead51ae" x="835.106591" y="224.01242" style="fill: #eb6834; stroke: #eb6834"/>
    </g>
   </g>
   <g id="line2d_125">
    <path d="M 473.238409 127.367417 
L 511.802252 127.358566 
L 554.064494 127.337914 
L 592.628337 127.278962 
L 634.890579 127.072822 
L 673.454421 126.485049 
L 715.716663 124.440487 
L 754.280506 118.697135 
L 796.542748 99.884257 
L 835.106591 58.567952 
" clip-path="url(#p5282470f28)" style="fill: none; stroke: #2a78d6; stroke-width: 1.5; stroke-linecap: square"/>
    <g clip-path="url(#p5282470f28)">
     <use xlink:href="#m2598333916" x="473.238409" y="127.367417" style="fill: #2a78d6; stroke: #2a78d6"/>
     <use xlink:href="#m2598333916" x="511.802252" y="127.358566" style="fill: #2a78d6; stroke: #2a78d6"/>
     <use xlink:href="#m2598333916" x="554.064494" y="127.337914" style="fill: #2a78d6; stroke: #2a78d6"/>
     <use xlink:href="#m2598333916" x="592.628337" y="127.278962" style="fill: #2a78d6; stroke: #2a78d6"/>
     <use xlink:href="#m2598333916" x="634.890579" y="127.072822" style="fill: #2a78d6; stroke: #2a78d6"/>
     <use xlink:href="#m2598333916" x="673.454421" y="126.485049" style="fill: #2a78d6; stroke: #2a78d6"/>
     <use xlink:href="#m2598333916" x="715.716663" y="124.440487" style="fill: #2a78d6; stroke: #2a78d6"/>
     <use xlink:href="#m2598333916" x="754.280506" y="118.697135" style="fill: #2a78d6; stroke: #2a78d6"/>
     <use xlink:href="#m2598333916" x="796.542748" y="99.884257" style="fill: #2a78d6; stroke: #2a78d6"/>
     <use xlink:href="#m2598333916" x="835.106591" y="58.567952" style="fill: #2a78d6; stroke: #2a78d6"/>
    </g>
   </g>
   <g id="line2d_126">
    <g clip-path="url(#p5282470f28)">
     <use xlink:href="#m653f55c711" x="473.238409" y="127.367417" style="fill: #1c5cab; stroke: #1c5cab; stroke-width: 1.5"/>
     <use xlink:href="#m653f55c711" x="511.802252" y="127.376291" style="fill: #1c5cab; stroke: #1c5cab; stroke-width: 1.5"/>
     <use xlink:href="#m653f55c711" x="554.064494" y="127.396998" style="fill: #1c5cab; stroke: #1c5cab; stroke-width: 1.5"/>
     <use xlink:href="#m653f55c711" x="592.628337" y="127.456143" style="fill: #1c5cab; stroke: #1c5cab; stroke-width: 1.5"/>
     <use xlink:href="#m653f55c711" x="634.890579" y="127.663099" style="fill: #1c5cab; stroke: #1c5cab; stroke-width: 1.5"/>
     <use xlink:href="#m653f55c711" x="673.454421" y="128.255305" style="fill: #1c5cab; stroke: #1c5cab; stroke-width: 1.5"/>
     <use xlink:href="#m653f55c711" x="715.716663" y="130.337848" style="fill: #1c5cab; stroke: #1c5cab; stroke-width: 1.5"/>
     <use xlink:href="#m653f55c711" x="754.280506" y="136.387192" style="fill: #1c5cab; stroke: #1c5cab; stroke-width: 1.5"/>
     <use xlink:href="#m653f55c711" x="796.542748" y="158.505415" style="fill: #1c5cab; stroke: #1c5cab; stroke-width: 1.5"/>
     <use xlink:href="#m653f55c711" x="835.106591" y="224.01242" style="fill: #1c5cab; stroke: #1c5cab; stroke-width: 1.5"/>
    </g>
   </g>
   <g id="line2d_127">
    <path d="M 455.145 127.367417 
L 853.2 127.367417 
" clip-path="url(#p5282470f28)" style="fill: none; stroke: #999999; stroke-width: 0.8; stroke-linecap: square"/>
   </g>
   <g id="patch_6">
    <path d="M 455.145 232.332 
L 455.145 49.30125 
" style="fill: none; stroke: #000000; stroke-width: 0.8; stroke-linejoin: miter; stroke-linecap: square"/>
   </g>
   <g id="patch_7">
    <path d="M 455.145 232.332 
L 853.2 232.332 
" style="fill: none; stroke: #000000; stroke-width: 0.8; stroke-linejoin: miter; stroke-linecap: square"/>
   </g>
   <g id="text_22">
    <!-- w = 2.0 -->
    <g transform="translate(455.145 43.30125) scale(0.11 -0.11)">
     <use xlink:href="#NotoSansCJKjp-Regular-77"/>
     <use xlink:href="#NotoSansCJKjp-Regular-20" transform="translate(80.199982 0)"/>
     <use xlink:href="#NotoSansCJKjp-Regular-3d" transform="translate(102.599976 0)"/>
     <use xlink:href="#NotoSansCJKjp-Regular-20" transform="translate(158.09996 0)"/>
     <use xlink:href="#NotoSansCJKjp-Regular-32" transform="translate(180.499954 0)"/>
     <use xlink:href="#NotoSansCJKjp-Regular-2e" transform="translate(235.999939 0)"/>
     <use xlink:href="#NotoSansCJKjp-Regular-30" transform="translate(263.799927 0)"/>
    </g>
   </g>
  </g>
  <g id="text_23">
   <!-- 論文 Fig. 3 下圖重算：γ 對 ΔU（N=6, v=1, U_A=0.01） -->
   <g transform="translate(8.64 14.887313) scale(0.11 -0.11)">
    <defs>
     <path id="NotoSansCJKjp-Regular-46" d="M 646 0 
L 1235 0 
L 1235 2106 
L 3027 2106 
L 3027 2605 
L 1235 2605 
L 1235 4192 
L 3347 4192 
L 3347 4691 
L 646 4691 
L 646 0 
z
" transform="scale(0.015625)"/>
     <path id="NotoSansCJKjp-Regular-69" d="M 589 0 
L 1178 0 
L 1178 3475 
L 589 3475 
L 589 0 
z
M 883 4192 
C 1114 4192 1274 4346 1274 4582 
C 1274 4806 1114 4960 883 4960 
C 653 4960 499 4806 499 4582 
C 499 4346 653 4192 883 4192 
z
" transform="scale(0.015625)"/>
     <path id="NotoSansCJKjp-Regular-67" d="M 1760 -1600 
C 2835 -1600 3520 -1043 3520 -397 
C 3520 179 3110 429 2310 429 
L 1626 429 
C 1158 429 1018 589 1018 806 
C 1018 998 1114 1114 1242 1222 
C 1395 1146 1587 1101 1754 1101 
C 2470 1101 3027 1568 3027 2310 
C 3027 2611 2912 2867 2746 3027 
L 3456 3027 
L 3456 3475 
L 2246 3475 
C 2125 3526 1952 3565 1754 3565 
C 1056 3565 454 3085 454 2323 
C 454 1907 678 1568 909 1389 
L 909 1363 
C 723 1235 525 1005 525 717 
C 525 442 659 256 838 147 
L 838 115 
C 512 -83 326 -371 326 -672 
C 326 -1267 915 -1600 1760 -1600 
z
M 1754 1498 
C 1357 1498 1018 1818 1018 2323 
C 1018 2835 1350 3136 1754 3136 
C 2170 3136 2496 2835 2496 2323 
C 2496 1818 2157 1498 1754 1498 
z
M 1843 -1197 
C 1210 -1197 838 -960 838 -589 
C 838 -390 941 -179 1190 0 
C 1344 -38 1510 -51 1638 -51 
L 2240 -51 
C 2701 -51 2944 -166 2944 -493 
C 2944 -851 2515 -1197 1843 -1197 
z
" transform="scale(0.015625)"/>
     <path id="NotoSansCJKjp-Regular-4e0b" d="M 352 4902 
L 352 4422 
L 2822 4422 
L 2822 -506 
L 3328 -506 
L 3328 2886 
C 4064 2490 4922 1958 5370 1600 
L 5709 2035 
C 5197 2426 4179 3002 3418 3373 
L 3328 3270 
L 3328 4422 
L 6054 4422 
L 6054 4902 
L 352 4902 
z
" transform="scale(0.015625)"/>
     <path id="NotoSansCJKjp-Regular-5716" d="M 2317 4122 
L 4058 4122 
L 4058 3699 
L 2317 3699 
L 2317 4122 
z
M 2099 2234 
L 4275 2234 
L 4275 806 
L 2099 806 
L 2099 2234 
z
M 1715 2534 
L 1715 506 
L 4678 506 
L 4678 2534 
L 1715 2534 
z
M 2810 1709 
L 3552 1709 
L 3552 1331 
L 2810 1331 
L 2810 1709 
z
M 2509 1965 
L 2509 1082 
L 3872 1082 
L 3872 1965 
L 2509 1965 
z
M 1280 3117 
L 1280 2816 
L 5133 2816 
L 5133 3117 
L 3386 3117 
L 3386 3411 
L 4474 3411 
L 4474 4403 
L 1920 4403 
L 1920 3411 
L 2970 3411 
L 2970 3117 
L 1280 3117 
z
M 525 5114 
L 525 -506 
L 979 -506 
L 979 -250 
L 5421 -250 
L 5421 -506 
L 5888 -506 
L 5888 5114 
L 525 5114 
z
M 979 154 
L 979 4710 
L 5421 4710 
L 5421 154 
L 979 154 
z
" transform="scale(0.015625)"/>
     <path id="NotoSansCJKjp-Regular-91cd" d="M 1018 3456 
L 1018 1466 
L 2938 1466 
L 2938 1024 
L 813 1024 
L 813 640 
L 2938 640 
L 2938 83 
L 333 83 
L 333 -307 
L 6074 -307 
L 6074 83 
L 3418 83 
L 3418 640 
L 5670 640 
L 5670 1024 
L 3418 1024 
L 3418 1466 
L 5427 1466 
L 5427 3456 
L 3418 3456 
L 3418 3846 
L 6042 3846 
L 6042 4243 
L 3418 4243 
L 3418 4736 
C 4166 4794 4870 4870 5421 4966 
L 5165 5338 
C 4154 5158 2342 5037 851 4998 
C 896 4902 947 4730 954 4621 
C 1581 4634 2266 4659 2938 4698 
L 2938 4243 
L 371 4243 
L 371 3846 
L 2938 3846 
L 2938 3456 
L 1018 3456 
z
M 1485 2304 
L 2938 2304 
L 2938 1818 
L 1485 1818 
L 1485 2304 
z
M 3418 2304 
L 4941 2304 
L 4941 1818 
L 3418 1818 
L 3418 2304 
z
M 1485 3110 
L 2938 3110 
L 2938 2630 
L 1485 2630 
L 1485 3110 
z
M 3418 3110 
L 4941 3110 
L 4941 2630 
L 3418 2630 
L 3418 3110 
z
" transform="scale(0.015625)"/>
     <path id="NotoSansCJKjp-Regular-7b97" d="M 1613 2925 
L 4890 2925 
L 4890 2547 
L 1613 2547 
L 1613 2925 
z
M 1613 2240 
L 4890 2240 
L 4890 1856 
L 1613 1856 
L 1613 2240 
z
M 1613 3597 
L 4890 3597 
L 4890 3232 
L 1613 3232 
L 1613 3597 
z
M 3686 5408 
C 3507 4915 3181 4448 2790 4141 
C 2899 4096 3085 3994 3181 3923 
L 1894 3923 
L 2259 4058 
C 2214 4179 2118 4352 2016 4506 
L 3117 4506 
L 3117 4902 
L 1427 4902 
C 1498 5030 1562 5158 1619 5286 
L 1171 5408 
C 966 4909 614 4410 224 4083 
C 333 4019 525 3891 614 3814 
C 813 4000 1011 4243 1184 4506 
L 1517 4506 
C 1645 4314 1773 4077 1837 3923 
L 1133 3923 
L 1133 1530 
L 1990 1530 
L 1990 1114 
L 1984 973 
L 358 973 
L 358 576 
L 1830 576 
C 1651 307 1267 38 461 -160 
C 563 -250 698 -416 762 -518 
C 1786 -224 2214 179 2381 576 
L 4109 576 
L 4109 -499 
L 4602 -499 
L 4602 576 
L 6067 576 
L 6067 973 
L 4602 973 
L 4602 1530 
L 5389 1530 
L 5389 3923 
L 4749 3923 
L 5094 4083 
C 5030 4205 4915 4358 4787 4506 
L 6016 4506 
L 6016 4902 
L 3968 4902 
C 4038 5030 4096 5165 4147 5299 
L 3686 5408 
z
M 4109 973 
L 2470 973 
L 2477 1101 
L 2477 1530 
L 4109 1530 
L 4109 973 
z
M 3232 3923 
C 3405 4083 3578 4282 3731 4506 
L 4243 4506 
C 4416 4320 4595 4090 4678 3923 
L 3232 3923 
z
" transform="scale(0.015625)"/>
     <path id="NotoSansCJKjp-Regular-ff1a" d="M 3200 3482 
C 3456 3482 3686 3667 3686 3962 
C 3686 4256 3456 4442 3200 4442 
C 2944 4442 2714 4256 2714 3962 
C 2714 3667 2944 3482 3200 3482 
z
M 3200 346 
C 3456 346 3686 538 3686 826 
C 3686 1120 3456 1312 3200 1312 
C 2944 1312 2714 1120 2714 826 
C 2714 538 2944 346 3200 346 
z
" transform="scale(0.015625)"/>
     <path id="NotoSansCJKjp-Regular-5c0d" d="M 3693 2554 
C 3955 2086 4192 1472 4256 1082 
L 4691 1242 
C 4627 1632 4371 2234 4102 2694 
L 3693 2554 
z
M 339 5037 
C 531 4730 717 4320 781 4058 
L 1152 4230 
C 1088 4493 890 4890 685 5190 
L 339 5037 
z
M 3168 5222 
C 3053 4922 2829 4467 2662 4192 
L 2989 4045 
C 3174 4307 3398 4710 3590 5056 
L 3168 5222 
z
M 294 224 
L 358 -230 
C 1184 -122 2387 45 3514 205 
L 3501 627 
L 2138 448 
L 2138 1152 
L 3194 1152 
L 3194 1555 
L 2138 1555 
L 2138 2208 
L 3328 2208 
L 3328 2618 
L 2643 2618 
C 2778 2842 2925 3181 3066 3482 
L 2637 3603 
L 3494 3603 
L 3494 3206 
L 5005 3206 
L 5005 83 
C 5005 -32 4960 -64 4845 -70 
C 4749 -70 4397 -77 4006 -64 
C 4077 -192 4154 -397 4179 -518 
C 4704 -518 5011 -506 5203 -429 
C 5389 -352 5466 -218 5466 83 
L 5466 3206 
L 6150 3206 
L 6150 3654 
L 5466 3654 
L 5466 5338 
L 5005 5338 
L 5005 3654 
L 3558 3654 
L 3558 4013 
L 2554 4013 
L 2554 5344 
L 2157 5344 
L 2157 4013 
L 1670 4013 
L 1670 5344 
L 1274 5344 
L 1274 4013 
L 269 4013 
L 269 3603 
L 2618 3603 
C 2547 3334 2381 2957 2259 2714 
L 2592 2618 
L 1184 2618 
L 1542 2746 
C 1498 2976 1350 3328 1184 3597 
L 800 3469 
C 954 3200 1088 2848 1126 2618 
L 506 2618 
L 506 2208 
L 1690 2208 
L 1690 1555 
L 672 1555 
L 672 1152 
L 1690 1152 
L 1690 390 
L 294 224 
z
" transform="scale(0.015625)"/>
     <path id="NotoSansCJKjp-Regular-4e" d="M 646 0 
L 1203 0 
L 1203 2464 
C 1203 2957 1158 3456 1133 3930 
L 1158 3930 
L 1664 2963 
L 3373 0 
L 3981 0 
L 3981 4691 
L 3418 4691 
L 3418 2253 
C 3418 1766 3462 1235 3501 768 
L 3469 768 
L 2963 1734 
L 1248 4691 
L 646 4691 
L 646 0 
z
" transform="scale(0.015625)"/>
     <path id="NotoSansCJKjp-Regular-36" d="M 1926 -83 
C 2656 -83 3277 531 3277 1440 
C 3277 2426 2765 2912 1971 2912 
C 1606 2912 1197 2701 909 2349 
C 934 3802 1466 4294 2118 4294 
C 2400 4294 2682 4154 2861 3936 
L 3194 4294 
C 2931 4576 2579 4774 2093 4774 
C 1184 4774 358 4077 358 2240 
C 358 691 1030 -83 1926 -83 
z
M 922 1882 
C 1229 2317 1587 2477 1875 2477 
C 2445 2477 2720 2074 2720 1440 
C 2720 800 2374 378 1926 378 
C 1338 378 986 909 922 1882 
z
" transform="scale(0.015625)"/>
     <path id="NotoSansCJKjp-Regular-76" d="M 1338 0 
L 2022 0 
L 3251 3475 
L 2675 3475 
L 2016 1498 
C 1914 1158 1798 806 1696 474 
L 1664 474 
C 1562 806 1453 1158 1344 1498 
L 691 3475 
L 83 3475 
L 1338 0 
z
" transform="scale(0.015625)"/>
    </defs>
    <use xlink:href="#NotoSansCJKjp-Regular-8ad6"/>
    <use xlink:href="#NotoSansCJKjp-Regular-6587" transform="translate(99.999985 0)"/>
    <use xlink:href="#NotoSansCJKjp-Regular-20" transform="translate(199.999969 0)"/>
    <use xlink:href="#NotoSansCJKjp-Regular-46" transform="translate(222.399963 0)"/>
    <use xlink:href="#NotoSansCJKjp-Regular-69" transform="translate(277.59996 0)"/>
    <use xlink:href="#NotoSansCJKjp-Regular-67" transform="translate(305.099945 0)"/>
    <use xlink:href="#NotoSansCJKjp-Regular-2e" transform="translate(361.499939 0)"/>
    <use xlink:href="#NotoSansCJKjp-Regular-20" transform="translate(389.299927 0)"/>
    <use xlink:href="#NotoSansCJKjp-Regular-33" transform="translate(411.699921 0)"/>
    <use xlink:href="#NotoSansCJKjp-Regular-20" transform="translate(467.199905 0)"/>
    <use xlink:href="#NotoSansCJKjp-Regular-4e0b" transform="translate(489.599899 0)"/>
    <use xlink:href="#NotoSansCJKjp-Regular-5716" transform="translate(589.599884 0)"/>
    <use xlink:href="#NotoSansCJKjp-Regular-91cd" transform="translate(689.599869 0)"/>
    <use xlink:href="#NotoSansCJKjp-Regular-7b97" transform="translate(789.599854 0)"/>
    <use xlink:href="#NotoSansCJKjp-Regular-ff1a" transform="translate(889.599838 0)"/>
    <use xlink:href="#NotoSansCJKjp-Regular-3b3" transform="translate(989.599823 0)"/>
    <use xlink:href="#NotoSansCJKjp-Regular-20" transform="translate(1043.599808 0)"/>
    <use xlink:href="#NotoSansCJKjp-Regular-5c0d" transform="translate(1065.999802 0)"/>
    <use xlink:href="#NotoSansCJKjp-Regular-20" transform="translate(1165.999786 0)"/>
    <use xlink:href="#NotoSansCJKjp-Regular-394" transform="translate(1188.39978 0)"/>
    <use xlink:href="#NotoSansCJKjp-Regular-55" transform="translate(1253.999771 0)"/>
    <use xlink:href="#NotoSansCJKjp-Regular-ff08" transform="translate(1326.099762 0)"/>
    <use xlink:href="#NotoSansCJKjp-Regular-4e" transform="translate(1426.099747 0)"/>
    <use xlink:href="#NotoSansCJKjp-Regular-3d" transform="translate(1498.399734 0)"/>
    <use xlink:href="#NotoSansCJKjp-Regular-36" transform="translate(1553.899719 0)"/>
    <use xlink:href="#NotoSansCJKjp-Regular-2c" transform="translate(1609.399704 0)"/>
    <use xlink:href="#NotoSansCJKjp-Regular-20" transform="translate(1637.199692 0)"/>
    <use xlink:href="#NotoSansCJKjp-Regular-76" transform="translate(1659.599686 0)"/>
    <use xlink:href="#NotoSansCJKjp-Regular-3d" transform="translate(1711.699677 0)"/>
    <use xlink:href="#NotoSansCJKjp-Regular-31" transform="translate(1767.199661 0)"/>
    <use xlink:href="#NotoSansCJKjp-Regular-2c" transform="translate(1822.699646 0)"/>
    <use xlink:href="#NotoSansCJKjp-Regular-20" transform="translate(1850.499634 0)"/>
    <use xlink:href="#NotoSansCJKjp-Regular-55" transform="translate(1872.899628 0)"/>
    <use xlink:href="#NotoSansCJKjp-Regular-5f" transform="translate(1944.999619 0)"/>
    <use xlink:href="#NotoSansCJKjp-Regular-41" transform="translate(2000.899612 0)"/>
    <use xlink:href="#NotoSansCJKjp-Regular-3d" transform="translate(2061.6996 0)"/>
    <use xlink:href="#NotoSansCJKjp-Regular-30" transform="translate(2117.199585 0)"/>
    <use xlink:href="#NotoSansCJKjp-Regular-2e" transform="translate(2172.69957 0)"/>
    <use xlink:href="#NotoSansCJKjp-Regular-30" transform="translate(2200.499557 0)"/>
    <use xlink:href="#NotoSansCJKjp-Regular-31" transform="translate(2255.999542 0)"/>
    <use xlink:href="#NotoSansCJKjp-Regular-ff09" transform="translate(2311.499527 0)"/>
   </g>
  </g>
 </g>
 <defs>
  <clipPath id="p58e3ec0655">
   <rect x="46.29" y="49.30125" width="398.055" height="183.03075"/>
  </clipPath>
  <clipPath id="p5282470f28">
   <rect x="455.145" y="49.30125" width="398.055" height="183.03075"/>
  </clipPath>
 </defs>
</svg>
