<?xml version="1.0" encoding="utf-8" standalone="no"?>
<!DOCTYPE svg PUBLIC "-//W3C//DTD SVG 1.1//EN"
  "http://www.w3.org/Graphics/SVG/1.1/DTD/svg11.dtd">
<svg xmlns:xlink="http://www.w3.org/1999/xlink" width="572.4pt" height="213.984pt" viewBox="0 0 572.4 213.984" xmlns="http://www.w3.org/2000/svg" version="1.1">
 <metadata>
  <rdf:RDF xmlns:dc="http://purl.org/dc/elements/1.1/" xmlns:cc="http://creativecommons.org/ns#" xmlns:rdf="http://www.w3.org/1999/02/22-rdf-syntax-ns#">
   <cc:Work>
    <dc:type rdf:resource="http://purl.org/dc/dcmitype/StillImage"/>
    <dc:date>2026-09-17T14:12:58.318942</dc:date>
    <dc:format>image/svg+xml</dc:format>
    <dc:creator>
     <cc:Agent>
      <dc:title>Matplotlib v3.10.9, https://matplotlib.org/</dc:title>
     </cc:Agent>
    </dc:creator>
   </cc:Work>
  </rdf:RDF>
 </metadata>
 <defs>
  <style type="text/css">*{stroke-linejoin: round; stroke-linecap: butt}</style>
 </defs>
 <g id="figure_1">
  <g id="patch_1">
   <path d="M 0 213.984 
L 572.4 213.984 
L 572.4 0 
L 0 0 
z
" style="fill: #ffffff"/>
  </g>
  <g id="axes_1">
   <g id="patch_2">
    <path d="M 47.057143 57.718588 
C 51.708048 57.718588 56.169089 56.893905 59.457775 55.426165 
C 62.746462 53.958425 64.594286 51.967463 64.594286 49.891765 
C 64.594286 47.816067 62.746462 45.825105 59.457775 44.357365 
C 56.169089 42.889625 51.708048 42.064941 47.057143 42.064941 
C 42.406238 42.064941 37.945196 42.889625 34.65651 44.357365 
C 31.367824 45.825105 29.52 47.816067 29.52 49.891765 
C 29.52 51.967463 31.367824 53.958425 34.65651 55.426165 
C 37.945196 56.893905 42.406238 57.718588 47.057143 57.718588 
z
" clip-path="url(#p65c8fde16d)" style="fill: #2a78d6"/>
   </g>
   <g id="patch_3">
    <path d="M 126.771429 57.718588 
C 131.422333 57.718588 135.883375 56.893905 139.172061 55.426165 
C 142.460747 53.958425 144.308571 51.967463 144.308571 49.891765 
C 144.308571 47.816067 142.460747 45.825105 139.172061 44.357365 
C 135.883375 42.889625 131.422333 42.064941 126.771429 42.064941 
C 122.120524 42.064941 117.659482 42.889625 114.370796 44.357365 
C 111.08211 45.825105 109.234286 47.816067 109.234286 49.891765 
C 109.234286 51.967463 111.08211 53.958425 114.370796 55.426165 
C 117.659482 56.893905 122.120524 57.718588 126.771429 57.718588 
z
" clip-path="url(#p65c8fde16d)" style="fill: #666666"/>
   </g>
   <g id="patch_4">
    <path d="M 206.485714 57.718588 
C 211.136619 57.718588 215.597661 56.893905 218.886347 55.426165 
C 222.175033 53.958425 224.022857 51.967463 224.022857 49.891765 
C 224.022857 47.816067 222.175033 45.825105 218.886347 44.357365 
C 215.597661 42.889625 211.136619 42.064941 206.485714 42.064941 
C 201.83481 42.064941 197.373768 42.889625 194.085082 44.357365 
C 190.796395 45.825105 188.948571 47.816067 188.948571 49.891765 
C 188.948571 51.967463 190.796395 53.958425 194.085082 55.426165 
C 197.373768 56.893905 201.83481 57.718588 206.485714 57.718588 
z
" clip-path="url(#p65c8fde16d)" style="fill: #2a78d6"/>
   </g>
   <g id="patch_5">
    <path d="M 286.2 57.718588 
C 290.850905 57.718588 295.311946 56.893905 298.600633 55.426165 
C 301.889319 53.958425 303.737143 51.967463 303.737143 49.891765 
C 303.737143 47.816067 301.889319 45.825105 298.600633 44.357365 
C 295.311946 42.889625 290.850905 42.064941 286.2 42.064941 
C 281.549095 42.064941 277.088054 42.889625 273.799367 44.357365 
C 270.510681 45.825105 268.662857 47.816067 268.662857 49.891765 
C 268.662857 51.967463 270.510681 53.958425 273.799367 55.426165 
C 277.088054 56.893905 281.549095 57.718588 286.2 57.718588 
z
" clip-path="url(#p65c8fde16d)" style="fill: #666666"/>
   </g>
   <g id="patch_6">
    <path d="M 365.914286 57.718588 
C 370.56519 57.718588 375.026232 56.893905 378.314918 55.426165 
C 381.603605 53.958425 383.451429 51.967463 383.451429 49.891765 
C 383.451429 47.816067 381.603605 45.825105 378.314918 44.357365 
C 375.026232 42.889625 370.56519 42.064941 365.914286 42.064941 
C 361.263381 42.064941 356.802339 42.889625 353.513653 44.357365 
C 350.224967 45.825105 348.377143 47.816067 348.377143 49.891765 
C 348.377143 51.967463 350.224967 53.958425 353.513653 55.426165 
C 356.802339 56.893905 361.263381 57.718588 365.914286 57.718588 
z
" clip-path="url(#p65c8fde16d)" style="fill: #2a78d6"/>
   </g>
   <g id="patch_7">
    <path d="M 445.628571 57.718588 
C 450.279476 57.718588 454.740518 56.893905 458.029204 55.426165 
C 461.31789 53.958425 463.165714 51.967463 463.165714 49.891765 
C 463.165714 47.816067 461.31789 45.825105 458.029204 44.357365 
C 454.740518 42.889625 450.279476 42.064941 445.628571 42.064941 
C 440.977667 42.064941 436.516625 42.889625 433.227939 44.357365 
C 429.939253 45.825105 428.091429 47.816067 428.091429 49.891765 
C 428.091429 51.967463 429.939253 53.958425 433.227939 55.426165 
C 436.516625 56.893905 440.977667 57.718588 445.628571 57.718588 
z
" clip-path="url(#p65c8fde16d)" style="fill: #666666"/>
   </g>
   <g id="line2d_1">
    <path d="M 64.594286 49.891765 
L 109.234286 49.891765 
" clip-path="url(#p65c8fde16d)" style="fill: none; stroke: #333333; stroke-width: 2; stroke-linecap: square"/>
   </g>
   <g id="line2d_2">
    <path d="M 144.308571 49.891765 
L 188.948571 49.891765 
" clip-path="url(#p65c8fde16d)" style="fill: none; stroke: #333333; stroke-width: 2; stroke-linecap: square"/>
   </g>
   <g id="line2d_3">
    <path d="M 224.022857 49.891765 
L 268.662857 49.891765 
" clip-path="url(#p65c8fde16d)" style="fill: none; stroke: #333333; stroke-width: 2; stroke-linecap: square"/>
   </g>
   <g id="line2d_4">
    <path d="M 303.737143 49.891765 
L 348.377143 49.891765 
" clip-path="url(#p65c8fde16d)" style="fill: none; stroke: #333333; stroke-width: 2; stroke-linecap: square"/>
   </g>
   <g id="line2d_5">
    <path d="M 383.451429 49.891765 
L 428.091429 49.891765 
" clip-path="url(#p65c8fde16d)" style="fill: none; stroke: #333333; stroke-width: 2; stroke-linecap: square"/>
   </g>
   <g id="text_1">
    <!-- A -->
    <g style="fill: #ffffff" transform="translate(43.852455 52.806608) scale(0.1 -0.1)">
     <defs>
      <path id="NotoSansCJKjp-Bold-41" d="M -26 0 
L 934 0 
L 1267 1216 
L 2797 1216 
L 3130 0 
L 4128 0 
L 2611 4742 
L 1491 4742 
L -26 0 
z
M 1472 1952 
L 1613 2470 
C 1754 2963 1888 3501 2016 4019 
L 2042 4019 
C 2182 3514 2310 2963 2458 2470 
L 2598 1952 
L 1472 1952 
z
" transform="scale(0.015625)"/>
     </defs>
     <use xlink:href="#NotoSansCJKjp-Bold-41"/>
    </g>
   </g>
   <g id="text_2">
    <!-- B -->
    <g style="fill: #ffffff" transform="translate(123.366741 52.806608) scale(0.1 -0.1)">
     <defs>
      <path id="NotoSansCJKjp-Bold-42" d="M 582 0 
L 2272 0 
C 3315 0 4102 442 4102 1395 
C 4102 2029 3731 2394 3219 2515 
L 3219 2541 
C 3622 2688 3866 3130 3866 3571 
C 3866 4454 3123 4742 2150 4742 
L 582 4742 
L 582 0 
z
M 1530 2810 
L 1530 4013 
L 2093 4013 
C 2662 4013 2944 3846 2944 3430 
C 2944 3053 2688 2810 2086 2810 
L 1530 2810 
z
M 1530 730 
L 1530 2112 
L 2189 2112 
C 2842 2112 3181 1914 3181 1453 
C 3181 960 2829 730 2189 730 
L 1530 730 
z
" transform="scale(0.015625)"/>
     </defs>
     <use xlink:href="#NotoSansCJKjp-Bold-42"/>
    </g>
   </g>
   <g id="text_3">
    <!-- v -->
    <g transform="translate(84.309598 38.507294) scale(0.1 -0.1)">
     <defs>
      <path id="NotoSansCJKjp-Regular-76" d="M 1338 0 
L 2022 0 
L 3251 3475 
L 2675 3475 
L 2016 1498 
C 1914 1158 1798 806 1696 474 
L 1664 474 
C 1562 806 1453 1158 1344 1498 
L 691 3475 
L 83 3475 
L 1338 0 
z
" transform="scale(0.015625)"/>
     </defs>
     <use xlink:href="#NotoSansCJKjp-Regular-76"/>
    </g>
   </g>
   <g id="text_4">
    <!-- w -->
    <g transform="translate(162.618415 38.507294) scale(0.1 -0.1)">
     <defs>
      <path id="NotoSansCJKjp-Regular-77" d="M 1139 0 
L 1818 0 
L 2310 1862 
C 2400 2195 2470 2522 2547 2874 
L 2579 2874 
C 2662 2522 2726 2202 2816 1875 
L 3315 0 
L 4026 0 
L 4966 3475 
L 4403 3475 
L 3898 1466 
C 3821 1133 3757 819 3686 499 
L 3654 499 
C 3571 819 3494 1133 3411 1466 
L 2867 3475 
L 2298 3475 
L 1754 1466 
C 1670 1133 1594 819 1523 499 
L 1491 499 
C 1421 819 1357 1133 1286 1466 
L 768 3475 
L 173 3475 
L 1139 0 
z
" transform="scale(0.015625)"/>
     </defs>
     <use xlink:href="#NotoSansCJKjp-Regular-77"/>
    </g>
   </g>
   <g id="text_5">
    <!-- U_A n↑n↓ -->
    <g style="fill: #444444" transform="translate(24.39601 69.458824) scale(0.085 -0.085)">
     <defs>
      <path id="NotoSansCJKjp-Regular-55" d="M 2310 -83 
C 3264 -83 3994 429 3994 1933 
L 3994 4691 
L 3424 4691 
L 3424 1920 
C 3424 794 2931 435 2310 435 
C 1696 435 1216 794 1216 1920 
L 1216 4691 
L 627 4691 
L 627 1933 
C 627 429 1350 -83 2310 -83 
z
" transform="scale(0.015625)"/>
      <path id="NotoSansCJKjp-Regular-5f" d="M 83 -896 
L 3488 -896 
L 3488 -512 
L 83 -512 
L 83 -896 
z
" transform="scale(0.015625)"/>
      <path id="NotoSansCJKjp-Regular-41" d="M 26 0 
L 621 0 
L 1075 1434 
L 2790 1434 
L 3238 0 
L 3866 0 
L 2272 4691 
L 1613 4691 
L 26 0 
z
M 1222 1901 
L 1453 2624 
C 1619 3155 1773 3661 1920 4211 
L 1946 4211 
C 2099 3667 2246 3155 2419 2624 
L 2643 1901 
L 1222 1901 
z
" transform="scale(0.015625)"/>
      <path id="NotoSansCJKjp-Regular-20" transform="scale(0.015625)"/>
      <path id="NotoSansCJKjp-Regular-6e" d="M 589 0 
L 1178 0 
L 1178 2522 
C 1523 2874 1766 3053 2125 3053 
C 2586 3053 2784 2778 2784 2125 
L 2784 0 
L 3366 0 
L 3366 2202 
C 3366 3085 3034 3565 2304 3565 
C 1830 3565 1466 3302 1139 2970 
L 1126 2970 
L 1069 3475 
L 589 3475 
L 589 0 
z
" transform="scale(0.015625)"/>
      <path id="NotoSansCJKjp-Regular-2191" d="M 2982 4422 
L 2982 -512 
L 3418 -512 
L 3418 4422 
C 3667 4096 4070 3674 4467 3386 
L 4691 3770 
C 4128 4198 3565 4838 3200 5408 
C 2835 4838 2272 4198 1709 3770 
L 1933 3386 
C 2330 3674 2733 4096 2982 4422 
z
" transform="scale(0.015625)"/>
      <path id="NotoSansCJKjp-Regular-2193" d="M 3418 442 
L 3418 5376 
L 2982 5376 
L 2982 442 
C 2733 768 2330 1190 1933 1478 
L 1709 1094 
C 2272 666 2835 26 3200 -544 
C 3565 26 4128 666 4691 1094 
L 4467 1478 
C 4070 1190 3667 768 3418 442 
z
" transform="scale(0.015625)"/>
     </defs>
     <use xlink:href="#NotoSansCJKjp-Regular-55"/>
     <use xlink:href="#NotoSansCJKjp-Regular-5f" transform="translate(72.099991 0)"/>
     <use xlink:href="#NotoSansCJKjp-Regular-41" transform="translate(127.999985 0)"/>
     <use xlink:href="#NotoSansCJKjp-Regular-20" transform="translate(188.799973 0)"/>
     <use xlink:href="#NotoSansCJKjp-Regular-6e" transform="translate(211.199966 0)"/>
     <use xlink:href="#NotoSansCJKjp-Regular-2191" transform="translate(272.199951 0)"/>
     <use xlink:href="#NotoSansCJKjp-Regular-6e" transform="translate(372.199936 0)"/>
     <use xlink:href="#NotoSansCJKjp-Regular-2193" transform="translate(433.199921 0)"/>
    </g>
   </g>
   <g id="text_6">
    <!-- U_B n↑n↓ -->
    <g style="fill: #444444" transform="translate(103.90178 69.458824) scale(0.085 -0.085)">
     <defs>
      <path id="NotoSansCJKjp-Regular-42" d="M 646 0 
L 2138 0 
C 3187 0 3917 454 3917 1376 
C 3917 2016 3520 2387 2963 2496 
L 2963 2528 
C 3405 2669 3648 3078 3648 3546 
C 3648 4371 2982 4691 2035 4691 
L 646 4691 
L 646 0 
z
M 1235 2701 
L 1235 4224 
L 1958 4224 
C 2694 4224 3066 4019 3066 3469 
C 3066 2989 2739 2701 1933 2701 
L 1235 2701 
z
M 1235 474 
L 1235 2240 
L 2054 2240 
C 2880 2240 3334 1978 3334 1395 
C 3334 762 2861 474 2054 474 
L 1235 474 
z
" transform="scale(0.015625)"/>
     </defs>
     <use xlink:href="#NotoSansCJKjp-Regular-55"/>
     <use xlink:href="#NotoSansCJKjp-Regular-5f" transform="translate(72.099991 0)"/>
     <use xlink:href="#NotoSansCJKjp-Regular-42" transform="translate(127.999985 0)"/>
     <use xlink:href="#NotoSansCJKjp-Regular-20" transform="translate(193.699982 0)"/>
     <use xlink:href="#NotoSansCJKjp-Regular-6e" transform="translate(216.099976 0)"/>
     <use xlink:href="#NotoSansCJKjp-Regular-2191" transform="translate(277.09996 0)"/>
     <use xlink:href="#NotoSansCJKjp-Regular-6e" transform="translate(377.099945 0)"/>
     <use xlink:href="#NotoSansCJKjp-Regular-2193" transform="translate(438.09993 0)"/>
    </g>
   </g>
   <g id="text_7">
    <!-- A -->
    <g style="fill: #ffffff" transform="translate(203.281027 52.806608) scale(0.1 -0.1)">
     <use xlink:href="#NotoSansCJKjp-Bold-41"/>
    </g>
   </g>
   <g id="text_8">
    <!-- B -->
    <g style="fill: #ffffff" transform="translate(282.795312 52.806608) scale(0.1 -0.1)">
     <use xlink:href="#NotoSansCJKjp-Bold-42"/>
    </g>
   </g>
   <g id="text_9">
    <!-- v -->
    <g transform="translate(243.73817 38.507294) scale(0.1 -0.1)">
     <use xlink:href="#NotoSansCJKjp-Regular-76"/>
    </g>
   </g>
   <g id="text_10">
    <!-- w -->
    <g transform="translate(322.046987 38.507294) scale(0.1 -0.1)">
     <use xlink:href="#NotoSansCJKjp-Regular-77"/>
    </g>
   </g>
   <g id="text_11">
    <!-- U_A n↑n↓ -->
    <g style="fill: #444444" transform="translate(183.824581 69.458824) scale(0.085 -0.085)">
     <use xlink:href="#NotoSansCJKjp-Regular-55"/>
     <use xlink:href="#NotoSansCJKjp-Regular-5f" transform="translate(72.099991 0)"/>
     <use xlink:href="#NotoSansCJKjp-Regular-41" transform="translate(127.999985 0)"/>
     <use xlink:href="#NotoSansCJKjp-Regular-20" transform="translate(188.799973 0)"/>
     <use xlink:href="#NotoSansCJKjp-Regular-6e" transform="translate(211.199966 0)"/>
     <use xlink:href="#NotoSansCJKjp-Regular-2191" transform="translate(272.199951 0)"/>
     <use xlink:href="#NotoSansCJKjp-Regular-6e" transform="translate(372.199936 0)"/>
     <use xlink:href="#NotoSansCJKjp-Regular-2193" transform="translate(433.199921 0)"/>
    </g>
   </g>
   <g id="text_12">
    <!-- U_B n↑n↓ -->
    <g style="fill: #444444" transform="translate(263.330352 69.458824) scale(0.085 -0.085)">
     <use xlink:href="#NotoSansCJKjp-Regular-55"/>
     <use xlink:href="#NotoSansCJKjp-Regular-5f" transform="translate(72.099991 0)"/>
     <use xlink:href="#NotoSansCJKjp-Regular-42" transform="translate(127.999985 0)"/>
     <use xlink:href="#NotoSansCJKjp-Regular-20" transform="translate(193.699982 0)"/>
     <use xlink:href="#NotoSansCJKjp-Regular-6e" transform="translate(216.099976 0)"/>
     <use xlink:href="#NotoSansCJKjp-Regular-2191" transform="translate(277.09996 0)"/>
     <use xlink:href="#NotoSansCJKjp-Regular-6e" transform="translate(377.099945 0)"/>
     <use xlink:href="#NotoSansCJKjp-Regular-2193" transform="translate(438.09993 0)"/>
    </g>
   </g>
   <g id="text_13">
    <!-- A -->
    <g style="fill: #ffffff" transform="translate(362.709598 52.806608) scale(0.1 -0.1)">
     <use xlink:href="#NotoSansCJKjp-Bold-41"/>
    </g>
   </g>
   <g id="text_14">
    <!-- B -->
    <g style="fill: #ffffff" transform="translate(442.223884 52.806608) scale(0.1 -0.1)">
     <use xlink:href="#NotoSansCJKjp-Bold-42"/>
    </g>
   </g>
   <g id="text_15">
    <!-- v -->
    <g transform="translate(403.166741 38.507294) scale(0.1 -0.1)">
     <use xlink:href="#NotoSansCJKjp-Regular-76"/>
    </g>
   </g>
   <g id="text_16">
    <!-- U_A n↑n↓ -->
    <g style="fill: #444444" transform="translate(343.253153 69.458824) scale(0.085 -0.085)">
     <use xlink:href="#NotoSansCJKjp-Regular-55"/>
     <use xlink:href="#NotoSansCJKjp-Regular-5f" transform="translate(72.099991 0)"/>
     <use xlink:href="#NotoSansCJKjp-Regular-41" transform="translate(127.999985 0)"/>
     <use xlink:href="#NotoSansCJKjp-Regular-20" transform="translate(188.799973 0)"/>
     <use xlink:href="#NotoSansCJKjp-Regular-6e" transform="translate(211.199966 0)"/>
     <use xlink:href="#NotoSansCJKjp-Regular-2191" transform="translate(272.199951 0)"/>
     <use xlink:href="#NotoSansCJKjp-Regular-6e" transform="translate(372.199936 0)"/>
     <use xlink:href="#NotoSansCJKjp-Regular-2193" transform="translate(433.199921 0)"/>
    </g>
   </g>
   <g id="text_17">
    <!-- U_B n↑n↓ -->
    <g style="fill: #444444" transform="translate(422.758923 69.458824) scale(0.085 -0.085)">
     <use xlink:href="#NotoSansCJKjp-Regular-55"/>
     <use xlink:href="#NotoSansCJKjp-Regular-5f" transform="translate(72.099991 0)"/>
     <use xlink:href="#NotoSansCJKjp-Regular-42" transform="translate(127.999985 0)"/>
     <use xlink:href="#NotoSansCJKjp-Regular-20" transform="translate(193.699982 0)"/>
     <use xlink:href="#NotoSansCJKjp-Regular-6e" transform="translate(216.099976 0)"/>
     <use xlink:href="#NotoSansCJKjp-Regular-2191" transform="translate(277.09996 0)"/>
     <use xlink:href="#NotoSansCJKjp-Regular-6e" transform="translate(377.099945 0)"/>
     <use xlink:href="#NotoSansCJKjp-Regular-2193" transform="translate(438.09993 0)"/>
    </g>
   </g>
   <g id="text_18">
    <!-- 原模型 H(v, w, U)：舊碼製備的是它的最高本徵態 -->
    <g style="fill: #1a1a1a" transform="translate(15.171429 16.094118) scale(0.105 -0.105)">
     <defs>
      <path id="NotoSansCJKjp-Regular-539f" d="M 2362 2624 
L 5024 2624 
L 5024 2029 
L 2362 2029 
L 2362 2624 
z
M 2362 3571 
L 5024 3571 
L 5024 2989 
L 2362 2989 
L 2362 3571 
z
M 4474 1107 
C 4954 723 5510 166 5754 -211 
L 6150 51 
C 5888 435 5325 966 4838 1338 
L 4474 1107 
z
M 2374 1318 
C 2080 838 1606 352 1126 45 
C 1242 -26 1434 -160 1523 -237 
C 1990 109 2496 646 2835 1184 
L 2374 1318 
z
M 1888 3955 
L 1888 1645 
L 3450 1645 
L 3450 13 
C 3450 -64 3424 -90 3328 -96 
C 3232 -96 2899 -96 2522 -90 
C 2586 -211 2650 -390 2669 -512 
C 3168 -512 3482 -512 3674 -442 
C 3866 -371 3917 -243 3917 6 
L 3917 1645 
L 5510 1645 
L 5510 3955 
L 3750 3955 
C 3814 4147 3885 4365 3949 4576 
L 6035 4576 
L 6035 5024 
L 838 5024 
L 838 3168 
C 838 2163 787 749 224 -256 
C 339 -301 550 -422 640 -499 
C 1229 550 1312 2106 1312 3168 
L 1312 4576 
L 3386 4576 
C 3347 4390 3296 4154 3238 3955 
L 1888 3955 
z
" transform="scale(0.015625)"/>
      <path id="NotoSansCJKjp-Regular-6a21" d="M 3021 2669 
L 5248 2669 
L 5248 2208 
L 3021 2208 
L 3021 2669 
z
M 3021 3469 
L 5248 3469 
L 5248 3021 
L 3021 3021 
L 3021 3469 
z
M 4685 5376 
L 4685 4845 
L 3699 4845 
L 3699 5376 
L 3245 5376 
L 3245 4845 
L 2304 4845 
L 2304 4435 
L 3245 4435 
L 3245 3955 
L 3699 3955 
L 3699 4435 
L 4685 4435 
L 4685 3955 
L 5152 3955 
L 5152 4435 
L 6048 4435 
L 6048 4845 
L 5152 4845 
L 5152 5376 
L 4685 5376 
z
M 2573 3834 
L 2573 1850 
L 3878 1850 
C 3853 1658 3827 1485 3782 1318 
L 2176 1318 
L 2176 909 
L 3642 909 
C 3398 416 2938 77 1997 -128 
C 2086 -224 2208 -403 2253 -512 
C 3366 -243 3885 218 4141 896 
C 4461 192 5056 -288 5888 -512 
C 5952 -390 6080 -211 6182 -115 
C 5459 38 4909 390 4602 909 
L 6035 909 
L 6035 1318 
L 4262 1318 
C 4294 1485 4326 1664 4346 1850 
L 5715 1850 
L 5715 3834 
L 2573 3834 
z
M 1120 5376 
L 1120 4141 
L 320 4141 
L 320 3693 
L 1120 3693 
L 1120 3686 
C 947 2816 576 1798 205 1261 
C 288 1146 403 934 461 794 
C 704 1171 934 1754 1120 2381 
L 1120 -506 
L 1581 -506 
L 1581 2790 
C 1754 2451 1952 2042 2035 1830 
L 2342 2176 
C 2234 2374 1747 3174 1581 3424 
L 1581 3693 
L 2240 3693 
L 2240 4141 
L 1581 4141 
L 1581 5376 
L 1120 5376 
z
" transform="scale(0.015625)"/>
      <path id="NotoSansCJKjp-Regular-578b" d="M 4064 5011 
L 4064 2867 
L 4506 2867 
L 4506 5011 
L 4064 5011 
z
M 5261 5338 
L 5261 2477 
C 5261 2394 5235 2368 5133 2362 
C 5037 2355 4717 2355 4352 2368 
C 4422 2240 4486 2054 4512 1926 
C 4966 1926 5280 1933 5472 2010 
C 5664 2080 5715 2202 5715 2470 
L 5715 5338 
L 5261 5338 
z
M 2483 4691 
L 2483 3808 
L 1690 3808 
L 1690 3846 
L 1690 4691 
L 2483 4691 
z
M 429 3808 
L 429 3379 
L 1210 3379 
C 1139 2950 928 2515 378 2176 
C 467 2112 627 1933 691 1843 
C 1344 2246 1587 2822 1658 3379 
L 2483 3379 
L 2483 2003 
L 2938 2003 
L 2938 3379 
L 3667 3379 
L 3667 3808 
L 2938 3808 
L 2938 4691 
L 3533 4691 
L 3533 5114 
L 640 5114 
L 640 4691 
L 1248 4691 
L 1248 3853 
L 1248 3808 
L 429 3808 
z
M 2989 2125 
L 2989 1414 
L 966 1414 
L 966 973 
L 2989 973 
L 2989 160 
L 301 160 
L 301 -288 
L 6093 -288 
L 6093 160 
L 3482 160 
L 3482 973 
L 5427 973 
L 5427 1414 
L 3482 1414 
L 3482 2125 
L 2989 2125 
z
" transform="scale(0.015625)"/>
      <path id="NotoSansCJKjp-Regular-48" d="M 646 0 
L 1235 0 
L 1235 2214 
L 3424 2214 
L 3424 0 
L 4019 0 
L 4019 4691 
L 3424 4691 
L 3424 2726 
L 1235 2726 
L 1235 4691 
L 646 4691 
L 646 0 
z
" transform="scale(0.015625)"/>
      <path id="NotoSansCJKjp-Regular-28" d="M 1530 -1254 
L 1888 -1094 
C 1338 -186 1075 902 1075 1990 
C 1075 3072 1338 4154 1888 5069 
L 1530 5235 
C 941 4275 589 3245 589 1990 
C 589 730 941 -301 1530 -1254 
z
" transform="scale(0.015625)"/>
      <path id="NotoSansCJKjp-Regular-2c" d="M 480 -1216 
C 1056 -973 1414 -493 1414 122 
C 1414 550 1229 806 922 806 
C 685 806 480 653 480 397 
C 480 141 678 -13 909 -13 
L 979 -6 
C 973 -390 736 -698 339 -870 
L 480 -1216 
z
" transform="scale(0.015625)"/>
      <path id="NotoSansCJKjp-Regular-29" d="M 634 -1254 
C 1222 -301 1574 730 1574 1990 
C 1574 3245 1222 4275 634 5235 
L 269 5069 
C 819 4154 1094 3072 1094 1990 
C 1094 902 819 -186 269 -1094 
L 634 -1254 
z
" transform="scale(0.015625)"/>
      <path id="NotoSansCJKjp-Regular-ff1a" d="M 3200 3482 
C 3456 3482 3686 3667 3686 3962 
C 3686 4256 3456 4442 3200 4442 
C 2944 4442 2714 4256 2714 3962 
C 2714 3667 2944 3482 3200 3482 
z
M 3200 346 
C 3456 346 3686 538 3686 826 
C 3686 1120 3456 1312 3200 1312 
C 2944 1312 2714 1120 2714 826 
C 2714 538 2944 346 3200 346 
z
" transform="scale(0.015625)"/>
      <path id="NotoSansCJKjp-Regular-820a" d="M 1491 4410 
C 1274 3955 877 3386 314 2957 
C 416 2899 563 2758 634 2662 
C 794 2797 947 2938 1082 3085 
L 1082 1549 
L 1523 1549 
L 1523 1677 
L 5875 1677 
L 5875 2010 
L 3437 2010 
L 3437 2342 
L 5357 2342 
L 5357 2630 
L 3437 2630 
L 3437 2944 
L 5338 2944 
L 5338 3232 
L 3437 3232 
L 3437 3571 
L 5638 3571 
L 5638 3904 
L 3386 3904 
C 3462 4038 3539 4192 3610 4346 
L 3130 4410 
C 3091 4275 3014 4077 2938 3904 
L 1709 3904 
L 1882 4205 
L 2349 4205 
L 2349 4550 
L 4026 4550 
L 4026 4205 
L 4493 4205 
L 4493 4550 
L 6042 4550 
L 6042 4941 
L 4493 4941 
L 4493 5376 
L 4026 5376 
L 4026 4941 
L 2349 4941 
L 2349 5376 
L 1882 5376 
L 1882 4941 
L 384 4941 
L 384 4550 
L 1882 4550 
L 1882 4339 
L 1491 4410 
z
M 2982 2944 
L 2982 2630 
L 1523 2630 
L 1523 2944 
L 2982 2944 
z
M 2982 3232 
L 1523 3232 
L 1523 3571 
L 2982 3571 
L 2982 3232 
z
M 2982 2342 
L 2982 2010 
L 1523 2010 
L 1523 2342 
L 2982 2342 
z
M 2784 1606 
C 2438 1485 1837 1363 1274 1286 
L 864 1382 
L 864 -525 
L 1344 -525 
L 1344 -314 
L 5120 -314 
L 5120 -518 
L 5600 -518 
L 5600 1363 
L 3354 1363 
L 3354 1043 
L 5120 1043 
L 5120 691 
L 3398 691 
L 3398 390 
L 5120 390 
L 5120 6 
L 1344 6 
L 1344 390 
L 2976 390 
L 2976 691 
L 1344 691 
L 1344 986 
C 1958 1062 2637 1184 3110 1344 
L 2784 1606 
z
" transform="scale(0.015625)"/>
      <path id="NotoSansCJKjp-Regular-78bc" d="M 3469 1178 
C 3533 794 3571 307 3565 -13 
L 3917 45 
C 3923 365 3872 845 3802 1222 
L 3469 1178 
z
M 4147 1229 
C 4269 909 4390 499 4435 230 
L 4762 333 
C 4717 595 4589 1005 4454 1312 
L 4147 1229 
z
M 4787 1370 
C 4954 1126 5133 800 5216 595 
L 5498 723 
C 5414 928 5235 1242 5050 1478 
L 4787 1370 
z
M 2842 1376 
C 2784 851 2656 294 2374 -32 
L 2720 -224 
C 3027 128 3149 730 3206 1286 
L 2842 1376 
z
M 314 5069 
L 314 4634 
L 1056 4634 
C 902 3514 627 2464 154 1779 
C 243 1677 390 1453 442 1344 
C 557 1510 666 1702 762 1901 
L 762 -218 
L 1184 -218 
L 1184 307 
L 2419 307 
L 2419 3078 
L 1197 3078 
C 1331 3565 1440 4096 1517 4634 
L 2662 4634 
L 2662 5069 
L 314 5069 
z
M 1184 2650 
L 1990 2650 
L 1990 730 
L 1184 730 
L 1184 2650 
z
M 4256 3706 
L 4256 3117 
L 3379 3117 
L 3379 3706 
L 4256 3706 
z
M 2938 5107 
L 2938 1683 
L 5587 1683 
C 5530 518 5459 70 5357 -51 
C 5299 -102 5248 -115 5146 -115 
C 5050 -115 4794 -115 4518 -90 
C 4589 -205 4634 -384 4646 -506 
C 4928 -525 5203 -525 5344 -512 
C 5517 -499 5626 -454 5728 -333 
C 5894 -141 5965 410 6035 1907 
C 6042 1971 6048 2112 6048 2112 
L 4698 2112 
L 4698 2720 
L 5766 2720 
L 5766 3117 
L 4698 3117 
L 4698 3706 
L 5766 3706 
L 5766 4096 
L 4698 4096 
L 4698 4685 
L 5920 4685 
L 5920 5107 
L 2938 5107 
z
M 4256 4096 
L 3379 4096 
L 3379 4685 
L 4256 4685 
L 4256 4096 
z
M 4256 2720 
L 4256 2112 
L 3379 2112 
L 3379 2720 
L 4256 2720 
z
" transform="scale(0.015625)"/>
      <path id="NotoSansCJKjp-Regular-88fd" d="M 3898 5126 
L 3898 2970 
L 4339 2970 
L 4339 5126 
L 3898 5126 
z
M 5363 5312 
L 5363 2643 
C 5363 2566 5338 2541 5242 2541 
C 5146 2534 4838 2534 4486 2547 
C 4550 2426 4614 2259 4640 2144 
C 5094 2144 5389 2144 5568 2214 
C 5754 2278 5805 2394 5805 2643 
L 5805 5312 
L 5363 5312 
z
M 352 1882 
L 352 1485 
L 2598 1485 
C 1978 1107 1056 800 243 659 
C 339 570 461 403 518 294 
C 928 384 1370 518 1792 685 
L 1792 38 
L 1133 -58 
L 1216 -461 
C 1894 -358 2842 -198 3750 -51 
L 3731 333 
L 2259 109 
L 2259 883 
C 2605 1050 2925 1235 3187 1440 
C 3674 390 4570 -256 5882 -525 
C 5939 -410 6054 -230 6157 -141 
C 5498 -26 4941 186 4499 493 
C 4902 678 5370 922 5734 1178 
L 5382 1434 
C 5088 1216 4602 928 4198 736 
C 3955 954 3763 1203 3616 1485 
L 6054 1485 
L 6054 1882 
L 3443 1882 
L 3443 2266 
L 2957 2266 
L 2957 1882 
L 352 1882 
z
M 934 5357 
C 819 5005 646 4640 422 4378 
C 518 4339 685 4250 768 4192 
C 851 4301 934 4435 1011 4582 
L 1766 4582 
L 1766 4186 
L 326 4186 
L 326 3840 
L 1766 3840 
L 1766 3501 
L 646 3501 
L 646 2298 
L 1030 2298 
L 1030 3174 
L 1766 3174 
L 1766 2125 
L 2195 2125 
L 2195 3174 
L 2970 3174 
L 2970 2714 
C 2970 2662 2957 2643 2899 2643 
C 2842 2637 2682 2637 2470 2643 
C 2515 2554 2579 2432 2598 2336 
C 2886 2336 3078 2336 3206 2394 
C 3347 2445 3373 2534 3373 2714 
L 3373 3501 
L 2195 3501 
L 2195 3840 
L 3558 3840 
L 3558 4186 
L 2195 4186 
L 2195 4582 
L 3334 4582 
L 3334 4922 
L 2195 4922 
L 2195 5376 
L 1766 5376 
L 1766 4922 
L 1178 4922 
C 1229 5037 1274 5152 1312 5267 
L 934 5357 
z
" transform="scale(0.015625)"/>
      <path id="NotoSansCJKjp-Regular-5099" d="M 1971 4774 
L 1971 4352 
L 3014 4352 
L 3014 3827 
L 3462 3827 
L 3462 4352 
L 4666 4352 
L 4666 3827 
L 5120 3827 
L 5120 4352 
L 6125 4352 
L 6125 4774 
L 5120 4774 
L 5120 5325 
L 4666 5325 
L 4666 4774 
L 3462 4774 
L 3462 5325 
L 3014 5325 
L 3014 4774 
L 1971 4774 
z
M 4237 1440 
L 4237 890 
L 3334 890 
L 3334 1440 
L 4237 1440 
z
M 4237 1779 
L 3334 1779 
L 3334 2336 
L 4237 2336 
L 4237 1779 
z
M 4627 1440 
L 5574 1440 
L 5574 890 
L 4627 890 
L 4627 1440 
z
M 4627 1779 
L 4627 2336 
L 5574 2336 
L 5574 1779 
L 4627 1779 
z
M 2918 2707 
L 2918 -512 
L 3334 -512 
L 3334 550 
L 4237 550 
L 4237 -480 
L 4627 -480 
L 4627 550 
L 5574 550 
L 5574 -38 
C 5574 -109 5555 -134 5478 -134 
C 5408 -141 5178 -141 4902 -134 
C 4960 -243 5011 -410 5024 -512 
C 5408 -518 5651 -512 5805 -442 
C 5952 -378 5990 -262 5990 -45 
L 5990 2707 
L 2918 2707 
z
M 2086 3603 
L 2086 2227 
C 2086 1498 2042 506 1581 -218 
C 1683 -269 1862 -422 1939 -512 
C 2445 269 2528 1421 2528 2221 
L 2528 3181 
L 6157 3181 
L 6157 3603 
L 2086 3603 
z
M 1491 5344 
C 1184 4352 672 3366 115 2726 
C 198 2605 320 2355 365 2240 
C 576 2490 781 2778 973 3098 
L 973 -512 
L 1434 -512 
L 1434 3962 
C 1626 4365 1798 4794 1933 5222 
L 1491 5344 
z
" transform="scale(0.015625)"/>
      <path id="NotoSansCJKjp-Regular-7684" d="M 3533 2707 
C 3885 2240 4320 1600 4512 1210 
L 4922 1466 
C 4710 1843 4269 2464 3904 2918 
L 3533 2707 
z
M 1536 5389 
C 1485 5082 1376 4659 1274 4346 
L 557 4346 
L 557 -346 
L 998 -346 
L 998 160 
L 2784 160 
L 2784 4346 
L 1715 4346 
C 1824 4621 1946 4979 2054 5299 
L 1536 5389 
z
M 998 3917 
L 2342 3917 
L 2342 2566 
L 998 2566 
L 998 3917 
z
M 998 595 
L 998 2144 
L 2342 2144 
L 2342 595 
L 998 595 
z
M 3827 5402 
C 3622 4518 3277 3635 2835 3066 
C 2950 3002 3149 2867 3238 2790 
C 3456 3098 3661 3488 3840 3923 
L 5478 3923 
C 5402 1357 5299 371 5094 154 
C 5018 64 4947 45 4819 45 
C 4672 45 4288 51 3866 83 
C 3955 -38 4013 -243 4026 -378 
C 4384 -397 4762 -410 4979 -390 
C 5210 -365 5350 -314 5498 -122 
C 5754 192 5843 1184 5939 4122 
C 5946 4186 5946 4365 5946 4365 
L 4013 4365 
C 4115 4666 4211 4986 4288 5299 
L 3827 5402 
z
" transform="scale(0.015625)"/>
      <path id="NotoSansCJKjp-Regular-662f" d="M 1510 3885 
L 4845 3885 
L 4845 3360 
L 1510 3360 
L 1510 3885 
z
M 1510 4749 
L 4845 4749 
L 4845 4230 
L 1510 4230 
L 1510 4749 
z
M 1050 5114 
L 1050 2995 
L 5331 2995 
L 5331 5114 
L 1050 5114 
z
M 1478 1914 
C 1312 979 902 256 224 -186 
C 333 -256 518 -435 589 -518 
C 1011 -218 1344 192 1587 698 
C 2112 -186 2938 -384 4230 -384 
L 5984 -384 
C 6010 -250 6086 -38 6163 77 
C 5830 70 4493 64 4250 70 
C 3981 70 3725 77 3494 102 
L 3494 986 
L 5619 986 
L 5619 1408 
L 3494 1408 
L 3494 2125 
L 6035 2125 
L 6035 2554 
L 378 2554 
L 378 2125 
L 3014 2125 
L 3014 186 
C 2458 326 2048 627 1798 1216 
C 1862 1414 1914 1626 1958 1850 
L 1478 1914 
z
" transform="scale(0.015625)"/>
      <path id="NotoSansCJKjp-Regular-5b83" d="M 1446 3437 
L 1446 544 
C 1446 -147 1715 -326 2598 -326 
C 2797 -326 4346 -326 4550 -326 
C 5382 -326 5562 -45 5651 954 
C 5504 986 5299 1069 5171 1152 
C 5114 314 5030 147 4544 147 
C 4198 147 2867 147 2598 147 
C 2048 147 1946 218 1946 538 
L 1946 1581 
C 3021 1862 4179 2221 4992 2618 
L 4589 2995 
C 3974 2656 2938 2291 1946 2010 
L 1946 3437 
L 1446 3437 
z
M 550 4570 
L 550 3104 
L 1030 3104 
L 1030 4096 
L 5344 4096 
L 5344 3104 
L 5843 3104 
L 5843 4570 
L 3443 4570 
L 3443 5382 
L 2925 5382 
L 2925 4570 
L 550 4570 
z
" transform="scale(0.015625)"/>
      <path id="NotoSansCJKjp-Regular-6700" d="M 1600 4064 
L 4813 4064 
L 4813 3610 
L 1600 3610 
L 1600 4064 
z
M 1600 4832 
L 4813 4832 
L 4813 4384 
L 1600 4384 
L 1600 4832 
z
M 1139 5171 
L 1139 3270 
L 5293 3270 
L 5293 5171 
L 1139 5171 
z
M 2534 2509 
L 2534 2074 
L 1370 2074 
L 1370 2509 
L 2534 2509 
z
M 314 282 
L 358 -147 
L 2534 115 
L 2534 -512 
L 2995 -512 
L 2995 -109 
C 3091 -198 3200 -365 3251 -474 
C 3699 -320 4141 -96 4531 205 
C 4909 -115 5363 -358 5875 -506 
C 5939 -397 6061 -218 6163 -134 
C 5664 -6 5229 205 4858 486 
C 5280 883 5613 1389 5811 2010 
L 5517 2131 
L 5434 2112 
L 3219 2112 
L 3219 1722 
L 3776 1722 
L 3501 1638 
C 3674 1216 3910 832 4205 512 
C 3840 237 3418 32 2995 -90 
L 2995 2509 
L 6016 2509 
L 6016 2912 
L 371 2912 
L 371 2509 
L 928 2509 
L 928 339 
L 314 282 
z
M 3898 1722 
L 5222 1722 
C 5056 1363 4813 1050 4531 781 
C 4262 1050 4045 1370 3898 1722 
z
M 2534 1709 
L 2534 1261 
L 1370 1261 
L 1370 1709 
L 2534 1709 
z
M 2534 902 
L 2534 518 
L 1370 384 
L 1370 902 
L 2534 902 
z
" transform="scale(0.015625)"/>
      <path id="NotoSansCJKjp-Regular-9ad8" d="M 1939 3635 
L 4448 3635 
L 4448 3021 
L 1939 3021 
L 1939 3635 
z
M 1478 3987 
L 1478 2662 
L 4928 2662 
L 4928 3987 
L 1478 3987 
z
M 2918 5382 
L 2918 4768 
L 416 4768 
L 416 4346 
L 5978 4346 
L 5978 4768 
L 3411 4768 
L 3411 5382 
L 2918 5382 
z
M 704 2266 
L 704 -512 
L 1171 -512 
L 1171 1856 
L 5261 1856 
L 5261 70 
C 5261 -19 5235 -45 5120 -51 
C 5018 -58 4653 -58 4237 -45 
C 4301 -179 4371 -365 4390 -499 
C 4922 -499 5267 -499 5478 -422 
C 5683 -346 5741 -205 5741 64 
L 5741 2266 
L 704 2266 
z
M 2406 1088 
L 3994 1088 
L 3994 435 
L 2406 435 
L 2406 1088 
z
M 1984 1440 
L 1984 -243 
L 2406 -243 
L 2406 83 
L 4422 83 
L 4422 1440 
L 1984 1440 
z
" transform="scale(0.015625)"/>
      <path id="NotoSansCJKjp-Regular-672c" d="M 2944 5370 
L 2944 4026 
L 416 4026 
L 416 3539 
L 2643 3539 
C 2099 2438 1171 1402 198 896 
C 307 800 461 621 544 499 
C 1478 1050 2355 2016 2944 3130 
L 2944 1171 
L 1690 1171 
L 1690 685 
L 2944 685 
L 2944 -512 
L 3450 -512 
L 3450 685 
L 4672 685 
L 4672 1171 
L 3450 1171 
L 3450 3123 
C 4026 2016 4896 1043 5856 512 
C 5939 646 6106 838 6221 934 
C 5210 1427 4288 2438 3744 3539 
L 5997 3539 
L 5997 4026 
L 3450 4026 
L 3450 5370 
L 2944 5370 
z
" transform="scale(0.015625)"/>
      <path id="NotoSansCJKjp-Regular-5fb5" d="M 1267 5376 
C 1037 4954 582 4435 179 4102 
C 256 4019 378 3840 435 3738 
C 896 4122 1389 4698 1709 5216 
L 1267 5376 
z
M 1760 1363 
L 1760 992 
L 2752 992 
L 2752 326 
L 1818 224 
L 1926 -173 
C 2515 -90 3296 13 4051 128 
L 4038 474 
L 3168 371 
L 3168 992 
L 4166 992 
L 4166 1363 
L 3168 1363 
L 3168 1946 
C 3462 1990 3738 2048 3962 2112 
L 3699 2445 
C 3258 2304 2464 2189 1818 2125 
C 1862 2029 1914 1888 1933 1798 
C 2189 1818 2470 1850 2752 1882 
L 2752 1363 
L 1760 1363 
z
M 1926 4954 
L 1926 3520 
L 4026 3520 
L 4026 4954 
L 3661 4954 
L 3661 3904 
L 3142 3904 
L 3142 5376 
L 2771 5376 
L 2771 3904 
L 2272 3904 
L 2272 4954 
L 1926 4954 
z
M 4582 5370 
C 4486 4474 4320 3610 4026 2957 
L 4026 3098 
L 1805 3098 
L 1805 2688 
L 3891 2688 
L 3840 2598 
C 3936 2522 4096 2342 4160 2246 
C 4250 2387 4326 2541 4403 2707 
C 4506 2125 4640 1574 4819 1088 
C 4531 550 4141 115 3610 -211 
C 3699 -288 3866 -454 3923 -538 
C 4384 -224 4742 160 5030 614 
C 5261 141 5555 -243 5933 -499 
C 5997 -384 6150 -211 6253 -128 
C 5837 122 5517 538 5267 1056 
C 5600 1760 5798 2611 5920 3635 
L 6150 3635 
L 6150 4058 
L 4819 4058 
C 4909 4454 4973 4877 5030 5306 
L 4582 5370 
z
M 4717 3635 
L 5498 3635 
C 5408 2854 5274 2176 5050 1600 
C 4864 2138 4736 2752 4646 3392 
L 4717 3635 
z
M 1402 4096 
C 1088 3418 589 2739 109 2278 
C 192 2176 333 1958 384 1862 
C 570 2048 755 2266 941 2509 
L 941 -499 
L 1382 -499 
L 1382 3149 
C 1549 3411 1702 3680 1830 3949 
L 1402 4096 
z
" transform="scale(0.015625)"/>
      <path id="NotoSansCJKjp-Regular-614b" d="M 1952 915 
L 1952 128 
C 1952 -333 2118 -448 2784 -448 
C 2925 -448 3917 -448 4058 -448 
C 4576 -448 4717 -294 4768 378 
C 4640 403 4461 467 4358 538 
C 4333 26 4282 -51 4013 -51 
C 3795 -51 2976 -51 2822 -51 
C 2477 -51 2413 -19 2413 134 
L 2413 915 
L 1952 915 
z
M 4621 787 
C 5075 461 5555 -26 5754 -384 
L 6157 -134 
C 5946 230 5453 698 4998 1011 
L 4621 787 
z
M 1152 941 
C 998 525 698 96 250 -141 
L 627 -410 
C 1107 -134 1382 326 1562 794 
L 1152 941 
z
M 710 3718 
L 710 1203 
L 1146 1203 
L 1146 2048 
L 2534 2048 
L 2534 1677 
C 2534 1606 2515 1587 2438 1587 
C 2362 1587 2131 1587 1862 1587 
C 1920 1491 1978 1350 2003 1235 
C 2355 1235 2598 1235 2746 1293 
L 2502 1069 
C 2880 896 3322 614 3533 390 
L 3840 691 
C 3629 915 3194 1178 2822 1325 
C 2944 1389 2976 1491 2976 1677 
L 2976 3718 
L 710 3718 
z
M 2534 3373 
L 2534 3021 
L 1146 3021 
L 1146 3373 
L 2534 3373 
z
M 1146 2714 
L 2534 2714 
L 2534 2362 
L 1146 2362 
L 1146 2714 
z
M 5331 5158 
C 5018 4979 4467 4794 3942 4646 
L 3942 5325 
L 3494 5325 
L 3494 3987 
C 3494 3520 3648 3392 4250 3392 
C 4378 3392 5222 3392 5357 3392 
C 5824 3392 5958 3552 6010 4186 
C 5882 4211 5709 4275 5613 4339 
C 5581 3859 5542 3795 5312 3795 
C 5133 3795 4422 3795 4288 3795 
C 3987 3795 3942 3821 3942 3987 
L 3942 4294 
C 4538 4435 5216 4634 5690 4864 
L 5331 5158 
z
M 5402 3046 
C 5062 2861 4493 2669 3942 2522 
L 3942 3245 
L 3494 3245 
L 3494 1798 
C 3494 1325 3648 1197 4256 1197 
C 4384 1197 5248 1197 5382 1197 
C 5856 1197 5984 1363 6042 2010 
C 5914 2035 5741 2099 5638 2170 
C 5619 1677 5574 1600 5338 1600 
C 5158 1600 4429 1600 4294 1600 
C 3987 1600 3942 1632 3942 1805 
L 3942 2163 
C 4563 2310 5267 2515 5760 2746 
L 5402 3046 
z
M 333 4442 
L 358 4051 
L 2797 4154 
C 2874 4045 2944 3942 2989 3853 
L 3354 4064 
C 3194 4371 2816 4794 2470 5082 
L 2125 4896 
C 2253 4781 2387 4646 2509 4506 
L 1299 4467 
C 1478 4710 1670 5005 1837 5267 
L 1363 5408 
C 1242 5126 1030 4742 832 4454 
L 333 4442 
z
" transform="scale(0.015625)"/>
     </defs>
     <use xlink:href="#NotoSansCJKjp-Regular-539f"/>
     <use xlink:href="#NotoSansCJKjp-Regular-6a21" transform="translate(99.999985 0)"/>
     <use xlink:href="#NotoSansCJKjp-Regular-578b" transform="translate(199.999969 0)"/>
     <use xlink:href="#NotoSansCJKjp-Regular-20" transform="translate(299.999954 0)"/>
     <use xlink:href="#NotoSansCJKjp-Regular-48" transform="translate(322.399948 0)"/>
     <use xlink:href="#NotoSansCJKjp-Regular-28" transform="translate(395.199936 0)"/>
     <use xlink:href="#NotoSansCJKjp-Regular-76" transform="translate(428.999924 0)"/>
     <use xlink:href="#NotoSansCJKjp-Regular-2c" transform="translate(481.099915 0)"/>
     <use xlink:href="#NotoSansCJKjp-Regular-20" transform="translate(508.899902 0)"/>
     <use xlink:href="#NotoSansCJKjp-Regular-77" transform="translate(531.299896 0)"/>
     <use xlink:href="#NotoSansCJKjp-Regular-2c" transform="translate(611.499878 0)"/>
     <use xlink:href="#NotoSansCJKjp-Regular-20" transform="translate(639.299866 0)"/>
     <use xlink:href="#NotoSansCJKjp-Regular-55" transform="translate(661.69986 0)"/>
     <use xlink:href="#NotoSansCJKjp-Regular-29" transform="translate(733.79985 0)"/>
     <use xlink:href="#NotoSansCJKjp-Regular-ff1a" transform="translate(767.599838 0)"/>
     <use xlink:href="#NotoSansCJKjp-Regular-820a" transform="translate(867.599823 0)"/>
     <use xlink:href="#NotoSansCJKjp-Regular-78bc" transform="translate(967.599808 0)"/>
     <use xlink:href="#NotoSansCJKjp-Regular-88fd" transform="translate(1067.599792 0)"/>
     <use xlink:href="#NotoSansCJKjp-Regular-5099" transform="translate(1167.599777 0)"/>
     <use xlink:href="#NotoSansCJKjp-Regular-7684" transform="translate(1267.599762 0)"/>
     <use xlink:href="#NotoSansCJKjp-Regular-662f" transform="translate(1367.599747 0)"/>
     <use xlink:href="#NotoSansCJKjp-Regular-5b83" transform="translate(1467.599731 0)"/>
     <use xlink:href="#NotoSansCJKjp-Regular-7684" transform="translate(1567.599716 0)"/>
     <use xlink:href="#NotoSansCJKjp-Regular-6700" transform="translate(1667.599701 0)"/>
     <use xlink:href="#NotoSansCJKjp-Regular-9ad8" transform="translate(1767.599686 0)"/>
     <use xlink:href="#NotoSansCJKjp-Regular-672c" transform="translate(1867.59967 0)"/>
     <use xlink:href="#NotoSansCJKjp-Regular-5fb5" transform="translate(1967.599655 0)"/>
     <use xlink:href="#NotoSansCJKjp-Regular-614b" transform="translate(2067.59964 0)"/>
    </g>
   </g>
  </g>
  <g id="axes_2">
   <g id="patch_8">
    <path d="M 47.057143 166.582588 
C 51.708048 166.582588 56.169089 165.757905 59.457775 164.290165 
C 62.746462 162.822425 64.594286 160.831463 64.594286 158.755765 
C 64.594286 156.680067 62.746462 154.689105 59.457775 153.221365 
C 56.169089 151.753625 51.708048 150.928941 47.057143 150.928941 
C 42.406238 150.928941 37.945196 151.753625 34.65651 153.221365 
C 31.367824 154.689105 29.52 156.680067 29.52 158.755765 
C 29.52 160.831463 31.367824 162.822425 34.65651 164.290165 
C 37.945196 165.757905 42.406238 166.582588 47.057143 166.582588 
z
" clip-path="url(#p520948c01a)" style="fill: #2a78d6"/>
   </g>
   <g id="patch_9">
    <path d="M 126.771429 166.582588 
C 131.422333 166.582588 135.883375 165.757905 139.172061 164.290165 
C 142.460747 162.822425 144.308571 160.831463 144.308571 158.755765 
C 144.308571 156.680067 142.460747 154.689105 139.172061 153.221365 
C 135.883375 151.753625 131.422333 150.928941 126.771429 150.928941 
C 122.120524 150.928941 117.659482 151.753625 114.370796 153.221365 
C 111.08211 154.689105 109.234286 156.680067 109.234286 158.755765 
C 109.234286 160.831463 111.08211 162.822425 114.370796 164.290165 
C 117.659482 165.757905 122.120524 166.582588 126.771429 166.582588 
z
" clip-path="url(#p520948c01a)" style="fill: #eb6834"/>
   </g>
   <g id="patch_10">
    <path d="M 206.485714 166.582588 
C 211.136619 166.582588 215.597661 165.757905 218.886347 164.290165 
C 222.175033 162.822425 224.022857 160.831463 224.022857 158.755765 
C 224.022857 156.680067 222.175033 154.689105 218.886347 153.221365 
C 215.597661 151.753625 211.136619 150.928941 206.485714 150.928941 
C 201.83481 150.928941 197.373768 151.753625 194.085082 153.221365 
C 190.796395 154.689105 188.948571 156.680067 188.948571 158.755765 
C 188.948571 160.831463 190.796395 162.822425 194.085082 164.290165 
C 197.373768 165.757905 201.83481 166.582588 206.485714 166.582588 
z
" clip-path="url(#p520948c01a)" style="fill: #2a78d6"/>
   </g>
   <g id="patch_11">
    <path d="M 286.2 166.582588 
C 290.850905 166.582588 295.311946 165.757905 298.600633 164.290165 
C 301.889319 162.822425 303.737143 160.831463 303.737143 158.755765 
C 303.737143 156.680067 301.889319 154.689105 298.600633 153.221365 
C 295.311946 151.753625 290.850905 150.928941 286.2 150.928941 
C 281.549095 150.928941 277.088054 151.753625 273.799367 153.221365 
C 270.510681 154.689105 268.662857 156.680067 268.662857 158.755765 
C 268.662857 160.831463 270.510681 162.822425 273.799367 164.290165 
C 277.088054 165.757905 281.549095 166.582588 286.2 166.582588 
z
" clip-path="url(#p520948c01a)" style="fill: #eb6834"/>
   </g>
   <g id="patch_12">
    <path d="M 365.914286 166.582588 
C 370.56519 166.582588 375.026232 165.757905 378.314918 164.290165 
C 381.603605 162.822425 383.451429 160.831463 383.451429 158.755765 
C 383.451429 156.680067 381.603605 154.689105 378.314918 153.221365 
C 375.026232 151.753625 370.56519 150.928941 365.914286 150.928941 
C 361.263381 150.928941 356.802339 151.753625 353.513653 153.221365 
C 350.224967 154.689105 348.377143 156.680067 348.377143 158.755765 
C 348.377143 160.831463 350.224967 162.822425 353.513653 164.290165 
C 356.802339 165.757905 361.263381 166.582588 365.914286 166.582588 
z
" clip-path="url(#p520948c01a)" style="fill: #2a78d6"/>
   </g>
   <g id="patch_13">
    <path d="M 445.628571 166.582588 
C 450.279476 166.582588 454.740518 165.757905 458.029204 164.290165 
C 461.31789 162.822425 463.165714 160.831463 463.165714 158.755765 
C 463.165714 156.680067 461.31789 154.689105 458.029204 153.221365 
C 454.740518 151.753625 450.279476 150.928941 445.628571 150.928941 
C 440.977667 150.928941 436.516625 151.753625 433.227939 153.221365 
C 429.939253 154.689105 428.091429 156.680067 428.091429 158.755765 
C 428.091429 160.831463 429.939253 162.822425 433.227939 164.290165 
C 436.516625 165.757905 440.977667 166.582588 445.628571 166.582588 
z
" clip-path="url(#p520948c01a)" style="fill: #eb6834"/>
   </g>
   <g id="line2d_6">
    <path d="M 64.594286 158.755765 
L 109.234286 158.755765 
" clip-path="url(#p520948c01a)" style="fill: none; stroke: #333333; stroke-width: 2; stroke-linecap: square"/>
   </g>
   <g id="line2d_7">
    <path d="M 144.308571 158.755765 
L 188.948571 158.755765 
" clip-path="url(#p520948c01a)" style="fill: none; stroke: #333333; stroke-width: 2; stroke-linecap: square"/>
   </g>
   <g id="line2d_8">
    <path d="M 224.022857 158.755765 
L 268.662857 158.755765 
" clip-path="url(#p520948c01a)" style="fill: none; stroke: #333333; stroke-width: 2; stroke-linecap: square"/>
   </g>
   <g id="line2d_9">
    <path d="M 303.737143 158.755765 
L 348.377143 158.755765 
" clip-path="url(#p520948c01a)" style="fill: none; stroke: #333333; stroke-width: 2; stroke-linecap: square"/>
   </g>
   <g id="line2d_10">
    <path d="M 383.451429 158.755765 
L 428.091429 158.755765 
" clip-path="url(#p520948c01a)" style="fill: none; stroke: #333333; stroke-width: 2; stroke-linecap: square"/>
   </g>
   <g id="text_19">
    <!-- A -->
    <g style="fill: #ffffff" transform="translate(43.852455 161.670608) scale(0.1 -0.1)">
     <use xlink:href="#NotoSansCJKjp-Bold-41"/>
    </g>
   </g>
   <g id="text_20">
    <!-- B -->
    <g style="fill: #ffffff" transform="translate(123.366741 161.670608) scale(0.1 -0.1)">
     <use xlink:href="#NotoSansCJKjp-Bold-42"/>
    </g>
   </g>
   <g id="text_21">
    <!-- −v -->
    <g transform="translate(81.534598 147.371294) scale(0.1 -0.1)">
     <defs>
      <path id="NotoSansCJKjp-Regular-2212" d="M 243 2144 
L 3315 2144 
L 3315 2579 
L 243 2579 
L 243 2144 
z
" transform="scale(0.015625)"/>
     </defs>
     <use xlink:href="#NotoSansCJKjp-Regular-2212"/>
     <use xlink:href="#NotoSansCJKjp-Regular-76" transform="translate(55.499985 0)"/>
    </g>
   </g>
   <g id="text_22">
    <!-- −w -->
    <g transform="translate(159.843415 147.371294) scale(0.1 -0.1)">
     <use xlink:href="#NotoSansCJKjp-Regular-2212"/>
     <use xlink:href="#NotoSansCJKjp-Regular-77" transform="translate(55.499985 0)"/>
    </g>
   </g>
   <g id="text_23">
    <!-- −U_A n↑n↓ -->
    <g style="fill: #444444" transform="translate(22.03726 178.322824) scale(0.085 -0.085)">
     <use xlink:href="#NotoSansCJKjp-Regular-2212"/>
     <use xlink:href="#NotoSansCJKjp-Regular-55" transform="translate(55.499985 0)"/>
     <use xlink:href="#NotoSansCJKjp-Regular-5f" transform="translate(127.599976 0)"/>
     <use xlink:href="#NotoSansCJKjp-Regular-41" transform="translate(183.499969 0)"/>
     <use xlink:href="#NotoSansCJKjp-Regular-20" transform="translate(244.299957 0)"/>
     <use xlink:href="#NotoSansCJKjp-Regular-6e" transform="translate(266.699951 0)"/>
     <use xlink:href="#NotoSansCJKjp-Regular-2191" transform="translate(327.699936 0)"/>
     <use xlink:href="#NotoSansCJKjp-Regular-6e" transform="translate(427.699921 0)"/>
     <use xlink:href="#NotoSansCJKjp-Regular-2193" transform="translate(488.699905 0)"/>
    </g>
   </g>
   <g id="text_24">
    <!-- −U_B n↑n↓ -->
    <g style="fill: #444444" transform="translate(101.54303 178.322824) scale(0.085 -0.085)">
     <use xlink:href="#NotoSansCJKjp-Regular-2212"/>
     <use xlink:href="#NotoSansCJKjp-Regular-55" transform="translate(55.499985 0)"/>
     <use xlink:href="#NotoSansCJKjp-Regular-5f" transform="translate(127.599976 0)"/>
     <use xlink:href="#NotoSansCJKjp-Regular-42" transform="translate(183.499969 0)"/>
     <use xlink:href="#NotoSansCJKjp-Regular-20" transform="translate(249.199966 0)"/>
     <use xlink:href="#NotoSansCJKjp-Regular-6e" transform="translate(271.59996 0)"/>
     <use xlink:href="#NotoSansCJKjp-Regular-2191" transform="translate(332.599945 0)"/>
     <use xlink:href="#NotoSansCJKjp-Regular-6e" transform="translate(432.59993 0)"/>
     <use xlink:href="#NotoSansCJKjp-Regular-2193" transform="translate(493.599915 0)"/>
    </g>
   </g>
   <g id="text_25">
    <!-- A -->
    <g style="fill: #ffffff" transform="translate(203.281027 161.670608) scale(0.1 -0.1)">
     <use xlink:href="#NotoSansCJKjp-Bold-41"/>
    </g>
   </g>
   <g id="text_26">
    <!-- B -->
    <g style="fill: #ffffff" transform="translate(282.795312 161.670608) scale(0.1 -0.1)">
     <use xlink:href="#NotoSansCJKjp-Bold-42"/>
    </g>
   </g>
   <g id="text_27">
    <!-- −v -->
    <g transform="translate(240.96317 147.371294) scale(0.1 -0.1)">
     <use xlink:href="#NotoSansCJKjp-Regular-2212"/>
     <use xlink:href="#NotoSansCJKjp-Regular-76" transform="translate(55.499985 0)"/>
    </g>
   </g>
   <g id="text_28">
    <!-- −w -->
    <g transform="translate(319.271987 147.371294) scale(0.1 -0.1)">
     <use xlink:href="#NotoSansCJKjp-Regular-2212"/>
     <use xlink:href="#NotoSansCJKjp-Regular-77" transform="translate(55.499985 0)"/>
    </g>
   </g>
   <g id="text_29">
    <!-- −U_A n↑n↓ -->
    <g style="fill: #444444" transform="translate(181.465831 178.322824) scale(0.085 -0.085)">
     <use xlink:href="#NotoSansCJKjp-Regular-2212"/>
     <use xlink:href="#NotoSansCJKjp-Regular-55" transform="translate(55.499985 0)"/>
     <use xlink:href="#NotoSansCJKjp-Regular-5f" transform="translate(127.599976 0)"/>
     <use xlink:href="#NotoSansCJKjp-Regular-41" transform="translate(183.499969 0)"/>
     <use xlink:href="#NotoSansCJKjp-Regular-20" transform="translate(244.299957 0)"/>
     <use xlink:href="#NotoSansCJKjp-Regular-6e" transform="translate(266.699951 0)"/>
     <use xlink:href="#NotoSansCJKjp-Regular-2191" transform="translate(327.699936 0)"/>
     <use xlink:href="#NotoSansCJKjp-Regular-6e" transform="translate(427.699921 0)"/>
     <use xlink:href="#NotoSansCJKjp-Regular-2193" transform="translate(488.699905 0)"/>
    </g>
   </g>
   <g id="text_30">
    <!-- −U_B n↑n↓ -->
    <g style="fill: #444444" transform="translate(260.971602 178.322824) scale(0.085 -0.085)">
     <use xlink:href="#NotoSansCJKjp-Regular-2212"/>
     <use xlink:href="#NotoSansCJKjp-Regular-55" transform="translate(55.499985 0)"/>
     <use xlink:href="#NotoSansCJKjp-Regular-5f" transform="translate(127.599976 0)"/>
     <use xlink:href="#NotoSansCJKjp-Regular-42" transform="translate(183.499969 0)"/>
     <use xlink:href="#NotoSansCJKjp-Regular-20" transform="translate(249.199966 0)"/>
     <use xlink:href="#NotoSansCJKjp-Regular-6e" transform="translate(271.59996 0)"/>
     <use xlink:href="#NotoSansCJKjp-Regular-2191" transform="translate(332.599945 0)"/>
     <use xlink:href="#NotoSansCJKjp-Regular-6e" transform="translate(432.59993 0)"/>
     <use xlink:href="#NotoSansCJKjp-Regular-2193" transform="translate(493.599915 0)"/>
    </g>
   </g>
   <g id="text_31">
    <!-- A -->
    <g style="fill: #ffffff" transform="translate(362.709598 161.670608) scale(0.1 -0.1)">
     <use xlink:href="#NotoSansCJKjp-Bold-41"/>
    </g>
   </g>
   <g id="text_32">
    <!-- B -->
    <g style="fill: #ffffff" transform="translate(442.223884 161.670608) scale(0.1 -0.1)">
     <use xlink:href="#NotoSansCJKjp-Bold-42"/>
    </g>
   </g>
   <g id="text_33">
    <!-- −v -->
    <g transform="translate(400.391741 147.371294) scale(0.1 -0.1)">
     <use xlink:href="#NotoSansCJKjp-Regular-2212"/>
     <use xlink:href="#NotoSansCJKjp-Regular-76" transform="translate(55.499985 0)"/>
    </g>
   </g>
   <g id="text_34">
    <!-- −U_A n↑n↓ -->
    <g style="fill: #444444" transform="translate(340.894403 178.322824) scale(0.085 -0.085)">
     <use xlink:href="#NotoSansCJKjp-Regular-2212"/>
     <use xlink:href="#NotoSansCJKjp-Regular-55" transform="translate(55.499985 0)"/>
     <use xlink:href="#NotoSansCJKjp-Regular-5f" transform="translate(127.599976 0)"/>
     <use xlink:href="#NotoSansCJKjp-Regular-41" transform="translate(183.499969 0)"/>
     <use xlink:href="#NotoSansCJKjp-Regular-20" transform="translate(244.299957 0)"/>
     <use xlink:href="#NotoSansCJKjp-Regular-6e" transform="translate(266.699951 0)"/>
     <use xlink:href="#NotoSansCJKjp-Regular-2191" transform="translate(327.699936 0)"/>
     <use xlink:href="#NotoSansCJKjp-Regular-6e" transform="translate(427.699921 0)"/>
     <use xlink:href="#NotoSansCJKjp-Regular-2193" transform="translate(488.699905 0)"/>
    </g>
   </g>
   <g id="text_35">
    <!-- −U_B n↑n↓ -->
    <g style="fill: #444444" transform="translate(420.400173 178.322824) scale(0.085 -0.085)">
     <use xlink:href="#NotoSansCJKjp-Regular-2212"/>
     <use xlink:href="#NotoSansCJKjp-Regular-55" transform="translate(55.499985 0)"/>
     <use xlink:href="#NotoSansCJKjp-Regular-5f" transform="translate(127.599976 0)"/>
     <use xlink:href="#NotoSansCJKjp-Regular-42" transform="translate(183.499969 0)"/>
     <use xlink:href="#NotoSansCJKjp-Regular-20" transform="translate(249.199966 0)"/>
     <use xlink:href="#NotoSansCJKjp-Regular-6e" transform="translate(271.59996 0)"/>
     <use xlink:href="#NotoSansCJKjp-Regular-2191" transform="translate(332.599945 0)"/>
     <use xlink:href="#NotoSansCJKjp-Regular-6e" transform="translate(432.59993 0)"/>
     <use xlink:href="#NotoSansCJKjp-Regular-2193" transform="translate(493.599915 0)"/>
    </g>
   </g>
   <g id="text_36">
    <!-- 作 b → −b 之後：−H(v, w, −U)，最高本徵態變成「U 反號模型」的基態 -->
    <g style="fill: #eb6834" transform="translate(15.171429 124.958118) scale(0.105 -0.105)">
     <defs>
      <path id="NotoSansCJKjp-Regular-4f5c" d="M 3366 5299 
C 3046 4358 2528 3430 1952 2829 
C 2061 2752 2246 2586 2323 2502 
C 2650 2861 2963 3328 3238 3846 
L 3680 3846 
L 3680 -506 
L 4166 -506 
L 4166 1050 
L 6093 1050 
L 6093 1504 
L 4166 1504 
L 4166 2477 
L 6010 2477 
L 6010 2918 
L 4166 2918 
L 4166 3846 
L 6157 3846 
L 6157 4307 
L 3469 4307 
C 3603 4589 3725 4883 3827 5178 
L 3366 5299 
z
M 1824 5350 
C 1466 4378 864 3418 230 2797 
C 320 2688 461 2426 512 2317 
C 730 2541 941 2797 1146 3078 
L 1146 -499 
L 1626 -499 
L 1626 3834 
C 1875 4269 2106 4742 2285 5210 
L 1824 5350 
z
" transform="scale(0.015625)"/>
      <path id="NotoSansCJKjp-Regular-62" d="M 2118 -83 
C 2912 -83 3629 602 3629 1792 
C 3629 2867 3142 3565 2246 3565 
C 1856 3565 1472 3347 1152 3078 
L 1178 3699 
L 1178 5094 
L 589 5094 
L 589 0 
L 1056 0 
L 1107 358 
L 1133 358 
C 1434 83 1798 -83 2118 -83 
z
M 2022 410 
C 1792 410 1478 499 1178 768 
L 1178 2598 
C 1504 2906 1811 3072 2099 3072 
C 2765 3072 3021 2560 3021 1786 
C 3021 928 2598 410 2022 410 
z
" transform="scale(0.015625)"/>
      <path id="NotoSansCJKjp-Regular-2192" d="M 5190 2650 
L 256 2650 
L 256 2214 
L 5190 2214 
C 4864 1965 4442 1562 4154 1165 
L 4538 941 
C 4966 1504 5606 2067 6176 2432 
C 5606 2797 4966 3360 4538 3923 
L 4154 3699 
C 4442 3302 4864 2899 5190 2650 
z
" transform="scale(0.015625)"/>
      <path id="NotoSansCJKjp-Regular-4e4b" d="M 666 -506 
C 941 -96 1203 378 1427 819 
C 2054 -179 3066 -403 4486 -403 
L 5984 -403 
C 6003 -262 6086 -38 6163 77 
C 5862 70 4730 70 4512 70 
C 3686 70 2970 147 2438 454 
C 3693 1306 5043 2694 5792 3904 
L 5434 4134 
L 5331 4109 
L 3430 4109 
L 3430 5370 
L 2944 5370 
L 2944 4109 
L 627 4109 
L 627 3635 
L 4998 3635 
C 4320 2650 3136 1466 2048 755 
C 1894 909 1766 1088 1664 1312 
L 1862 1760 
L 1395 1946 
C 1139 1261 659 339 198 -230 
L 666 -506 
z
" transform="scale(0.015625)"/>
      <path id="NotoSansCJKjp-Regular-5f8c" d="M 1562 5376 
C 1280 4922 710 4371 211 4032 
C 288 3949 416 3776 474 3680 
C 1024 4070 1619 4666 1997 5203 
L 1562 5376 
z
M 1933 2944 
L 1978 2509 
L 3456 2554 
C 3072 1984 2470 1485 1862 1152 
C 1965 1069 2125 883 2189 787 
C 2451 947 2714 1139 2963 1357 
C 3168 1062 3418 794 3699 557 
C 3142 230 2490 13 1843 -115 
C 1933 -218 2035 -410 2080 -531 
C 2784 -365 3482 -109 4083 269 
C 4614 -90 5248 -358 5939 -518 
C 6003 -397 6125 -211 6234 -109 
C 5581 19 4979 243 4467 544 
C 4934 909 5318 1363 5562 1926 
L 5254 2074 
L 5171 2054 
L 3629 2054 
C 3763 2221 3885 2394 3994 2573 
L 5542 2624 
C 5664 2451 5760 2291 5824 2157 
L 6227 2394 
C 6029 2784 5568 3366 5165 3782 
L 4787 3584 
C 4947 3411 5114 3213 5261 3014 
L 3539 2976 
C 4141 3469 4794 4102 5306 4653 
L 4870 4890 
C 4570 4512 4147 4064 3712 3654 
C 3565 3808 3360 3981 3142 4154 
C 3437 4435 3776 4813 4058 5158 
L 3629 5376 
C 3430 5082 3110 4691 2822 4390 
L 2445 4653 
L 2150 4339 
C 2579 4058 3072 3661 3379 3347 
C 3226 3206 3072 3078 2931 2963 
L 1933 2944 
z
M 3258 1638 
L 3290 1670 
L 4915 1670 
C 4704 1338 4416 1043 4077 800 
C 3744 1043 3469 1325 3258 1638 
z
M 1715 4070 
C 1338 3392 723 2726 134 2285 
C 218 2189 358 1958 410 1862 
C 646 2054 896 2291 1133 2547 
L 1133 -531 
L 1587 -531 
L 1587 3085 
C 1798 3354 1984 3635 2144 3917 
L 1715 4070 
z
" transform="scale(0.015625)"/>
      <path id="NotoSansCJKjp-Regular-ff0c" d="M 1005 -685 
C 1677 -448 2112 77 2112 768 
C 2112 1216 1920 1504 1568 1504 
C 1306 1504 1082 1344 1082 1043 
C 1082 742 1299 589 1562 589 
L 1670 602 
C 1638 160 1357 -141 864 -346 
L 1005 -685 
z
" transform="scale(0.015625)"/>
      <path id="NotoSansCJKjp-Regular-8b8a" d="M 1664 2874 
C 1798 2650 1933 2342 1984 2150 
L 2291 2285 
C 2240 2470 2099 2765 1965 2982 
L 1664 2874 
z
M 640 2970 
C 563 2624 442 2259 262 2003 
C 358 1958 512 1869 582 1818 
C 755 2093 909 2502 998 2886 
L 640 2970 
z
M 5376 2848 
C 5568 2560 5760 2170 5830 1926 
L 6150 2080 
C 6067 2317 5869 2694 5677 2976 
L 5376 2848 
z
M 4275 2963 
C 4198 2630 4077 2298 3898 2048 
C 3987 2010 4141 1926 4211 1882 
C 4384 2138 4538 2522 4627 2886 
L 4275 2963 
z
M 2477 5203 
L 2477 4922 
L 3853 4922 
L 3853 5203 
L 2477 5203 
z
M 2464 4077 
L 2464 3802 
L 3866 3802 
L 3866 4077 
L 2464 4077 
z
M 2464 3533 
L 2464 3251 
L 3866 3251 
L 3866 3533 
L 2464 3533 
z
M 2803 2688 
L 3520 2688 
L 3520 2214 
L 2803 2214 
L 2803 2688 
z
M 1709 4832 
C 1587 4653 1427 4435 1254 4218 
C 1184 4294 1094 4384 998 4474 
C 1178 4691 1376 4973 1542 5242 
L 1197 5382 
C 1094 5178 928 4896 774 4672 
L 614 4800 
L 390 4550 
C 608 4371 858 4134 1018 3942 
C 902 3808 787 3680 678 3571 
L 307 3571 
L 346 3200 
L 1152 3232 
L 1152 1728 
L 1530 1728 
L 1530 3251 
L 2029 3270 
L 2125 3085 
L 2406 3251 
C 2304 3469 2067 3795 1856 4038 
L 1581 3891 
C 1658 3802 1741 3699 1818 3590 
L 1094 3578 
C 1414 3904 1773 4307 2054 4659 
L 1709 4832 
z
M 2208 4659 
L 2208 4352 
L 4064 4352 
L 4064 4474 
C 4269 4320 4499 4109 4653 3936 
C 4531 3802 4416 3680 4301 3571 
L 3942 3571 
L 3987 3200 
L 4813 3232 
L 4813 1728 
L 5190 1728 
L 5190 3251 
L 5734 3277 
C 5792 3187 5843 3110 5875 3040 
L 6163 3226 
C 6042 3462 5754 3814 5504 4077 
L 5235 3917 
C 5325 3821 5421 3706 5510 3590 
L 4730 3578 
C 5075 3910 5459 4339 5766 4704 
L 5421 4883 
C 5286 4685 5094 4442 4896 4211 
C 4819 4288 4723 4378 4621 4461 
C 4800 4678 5018 4966 5190 5242 
L 4838 5382 
C 4736 5171 4550 4877 4390 4653 
L 4250 4755 
L 4064 4538 
L 4064 4659 
L 2208 4659 
z
M 4269 1171 
C 3987 902 3622 685 3194 506 
C 2707 691 2278 909 1965 1171 
L 4269 1171 
z
M 2451 2963 
L 2451 2054 
L 2189 2131 
C 1824 1549 1120 1069 397 781 
C 499 704 666 531 736 448 
C 1030 589 1331 755 1606 960 
C 1901 710 2253 493 2650 307 
C 1933 90 1101 -45 256 -122 
C 339 -224 461 -422 499 -538 
C 1453 -416 2400 -237 3206 77 
C 4026 -230 4966 -422 5914 -525 
C 5971 -403 6080 -218 6176 -115 
C 5338 -45 4493 102 3757 320 
C 4198 544 4582 826 4870 1171 
L 5920 1171 
L 5920 1562 
L 2291 1562 
C 2394 1683 2496 1805 2579 1939 
L 3878 1939 
L 3878 2963 
L 2451 2963 
z
" transform="scale(0.015625)"/>
      <path id="NotoSansCJKjp-Regular-6210" d="M 3482 5370 
C 3482 5005 3494 4640 3514 4288 
L 819 4288 
L 819 2490 
C 819 1658 762 550 230 -237 
C 346 -294 550 -461 634 -557 
C 1222 288 1318 1581 1318 2483 
L 1318 2528 
L 2490 2528 
C 2464 1427 2432 1018 2349 922 
C 2298 864 2240 851 2144 851 
C 2035 851 1760 851 1466 883 
C 1542 762 1594 570 1600 435 
C 1914 416 2208 416 2374 429 
C 2547 448 2656 493 2758 614 
C 2893 787 2925 1331 2957 2771 
C 2957 2835 2963 2976 2963 2976 
L 1318 2976 
L 1318 3821 
L 3546 3821 
C 3622 2784 3776 1837 4019 1101 
C 3597 614 3104 218 2534 -83 
C 2637 -179 2810 -378 2886 -480 
C 3379 -186 3821 166 4211 589 
C 4506 -70 4890 -467 5382 -467 
C 5875 -467 6054 -147 6138 947 
C 6010 992 5830 1101 5722 1210 
C 5683 358 5606 26 5421 26 
C 5094 26 4806 390 4570 1018 
C 5043 1632 5421 2362 5696 3200 
L 5216 3322 
C 5011 2675 4736 2093 4390 1581 
C 4224 2202 4102 2963 4032 3821 
L 6086 3821 
L 6086 4288 
L 4006 4288 
C 3987 4640 3981 4998 3981 5370 
L 3482 5370 
z
M 4294 5056 
C 4704 4845 5197 4518 5440 4288 
L 5741 4621 
C 5491 4838 4986 5152 4582 5350 
L 4294 5056 
z
" transform="scale(0.015625)"/>
      <path id="NotoSansCJKjp-Regular-300c" d="M 4160 5414 
L 4160 1274 
L 4634 1274 
L 4634 4973 
L 6182 4973 
L 6182 5414 
L 4160 5414 
z
" transform="scale(0.015625)"/>
      <path id="NotoSansCJKjp-Regular-53cd" d="M 1088 4973 
L 1088 3226 
C 1088 2202 1030 787 326 -218 
C 442 -269 646 -416 730 -499 
C 1389 448 1549 1830 1568 2886 
L 1990 2886 
C 2285 2048 2694 1357 3245 806 
C 2688 397 2042 102 1363 -70 
C 1459 -179 1581 -384 1645 -512 
C 2362 -294 3034 19 3622 474 
C 4192 19 4890 -314 5728 -525 
C 5792 -390 5933 -186 6048 -77 
C 5242 96 4570 397 4013 806 
C 4659 1408 5158 2208 5440 3238 
L 5107 3379 
L 5011 3354 
L 1574 3354 
L 1574 4499 
L 5792 4499 
L 5792 4973 
L 1088 4973 
z
M 4800 2886 
C 4544 2176 4134 1594 3629 1126 
C 3130 1600 2752 2189 2496 2886 
L 4800 2886 
z
" transform="scale(0.015625)"/>
      <path id="NotoSansCJKjp-Regular-865f" d="M 986 4736 
L 1946 4736 
L 1946 3757 
L 986 3757 
L 986 4736 
z
M 557 5133 
L 557 3354 
L 2394 3354 
L 2394 5133 
L 557 5133 
z
M 3802 1728 
C 3757 794 3616 166 2918 -192 
C 3021 -262 3149 -429 3200 -531 
C 3987 -102 4166 640 4218 1728 
L 3802 1728 
z
M 4736 1734 
L 4736 166 
C 4736 -128 4762 -224 4870 -307 
C 4960 -390 5114 -410 5254 -410 
C 5325 -410 5530 -410 5613 -410 
C 5734 -410 5882 -390 5958 -352 
C 6054 -294 6125 -224 6163 -102 
C 6195 13 6221 326 6227 634 
C 6106 672 5952 755 5862 832 
C 5869 538 5856 294 5843 192 
C 5824 122 5792 70 5754 51 
C 5722 32 5645 26 5581 26 
C 5510 26 5402 26 5350 26 
C 5286 26 5235 32 5203 58 
C 5171 70 5158 115 5158 160 
L 5158 1734 
L 4736 1734 
z
M 256 2899 
L 256 2477 
L 813 2477 
C 717 2035 595 1523 486 1178 
L 922 1094 
L 1024 1498 
L 1901 1498 
C 1824 480 1741 64 1619 -51 
C 1568 -102 1504 -115 1408 -115 
C 1306 -115 1056 -115 787 -90 
C 864 -205 909 -384 922 -506 
C 1184 -525 1446 -525 1587 -512 
C 1760 -499 1875 -461 1984 -346 
C 2163 -154 2253 371 2355 1709 
C 2362 1779 2368 1907 2368 1907 
L 1126 1907 
L 1248 2477 
L 2669 2477 
L 2669 2899 
L 256 2899 
z
M 2848 4109 
L 2848 2470 
C 2848 1638 2784 525 2234 -282 
C 2336 -326 2522 -461 2598 -544 
C 3187 307 3283 1568 3283 2470 
L 3283 3712 
L 5690 3712 
C 5651 3450 5600 3187 5555 3002 
L 5933 2912 
C 6010 3200 6106 3661 6182 4051 
L 5882 4128 
L 5811 4109 
L 4570 4109 
L 4570 4538 
L 5862 4538 
L 5862 4934 
L 4570 4934 
L 4570 5376 
L 4109 5376 
L 4109 4109 
L 2848 4109 
z
M 4128 3667 
L 4128 3117 
L 3430 3046 
L 3475 2701 
L 4128 2771 
L 4128 2522 
C 4128 2112 4243 2010 4710 2010 
C 4806 2010 5312 2010 5414 2010 
C 5760 2010 5875 2138 5920 2630 
C 5805 2662 5638 2714 5542 2778 
C 5530 2419 5504 2368 5357 2368 
C 5254 2368 4845 2368 4762 2368 
C 4582 2368 4557 2387 4557 2522 
L 4557 2816 
L 5376 2899 
L 5331 3238 
L 4557 3162 
L 4557 3667 
L 4128 3667 
z
" transform="scale(0.015625)"/>
      <path id="NotoSansCJKjp-Regular-300d" d="M 2240 -550 
L 2240 3590 
L 1766 3590 
L 1766 -109 
L 218 -109 
L 218 -550 
L 2240 -550 
z
" transform="scale(0.015625)"/>
      <path id="NotoSansCJKjp-Regular-57fa" d="M 4378 5370 
L 4378 4755 
L 2048 4755 
L 2048 5376 
L 1568 5376 
L 1568 4755 
L 589 4755 
L 589 4352 
L 1568 4352 
L 1568 2298 
L 294 2298 
L 294 1888 
L 1690 1888 
C 1318 1434 755 1030 230 819 
C 333 730 474 563 544 448 
C 1165 742 1818 1286 2214 1888 
L 4237 1888 
C 4627 1318 5254 787 5869 525 
C 5946 640 6086 813 6189 902 
C 5651 1094 5107 1466 4742 1888 
L 6112 1888 
L 6112 2298 
L 4864 2298 
L 4864 4352 
L 5830 4352 
L 5830 4755 
L 4864 4755 
L 4864 5370 
L 4378 5370 
z
M 2048 4352 
L 4378 4352 
L 4378 3923 
L 2048 3923 
L 2048 4352 
z
M 2944 1683 
L 2944 1146 
L 1632 1146 
L 1632 749 
L 2944 749 
L 2944 70 
L 794 70 
L 794 -339 
L 5645 -339 
L 5645 70 
L 3430 70 
L 3430 749 
L 4774 749 
L 4774 1146 
L 3430 1146 
L 3430 1683 
L 2944 1683 
z
M 2048 3565 
L 4378 3565 
L 4378 3117 
L 2048 3117 
L 2048 3565 
z
M 2048 2752 
L 4378 2752 
L 4378 2298 
L 2048 2298 
L 2048 2752 
z
" transform="scale(0.015625)"/>
     </defs>
     <use xlink:href="#NotoSansCJKjp-Regular-4f5c"/>
     <use xlink:href="#NotoSansCJKjp-Regular-20" transform="translate(99.999985 0)"/>
     <use xlink:href="#NotoSansCJKjp-Regular-62" transform="translate(122.399979 0)"/>
     <use xlink:href="#NotoSansCJKjp-Regular-20" transform="translate(184.199966 0)"/>
     <use xlink:href="#NotoSansCJKjp-Regular-2192" transform="translate(206.59996 0)"/>
     <use xlink:href="#NotoSansCJKjp-Regular-20" transform="translate(306.599945 0)"/>
     <use xlink:href="#NotoSansCJKjp-Regular-2212" transform="translate(328.999939 0)"/>
     <use xlink:href="#NotoSansCJKjp-Regular-62" transform="translate(384.499924 0)"/>
     <use xlink:href="#NotoSansCJKjp-Regular-20" transform="translate(446.299911 0)"/>
     <use xlink:href="#NotoSansCJKjp-Regular-4e4b" transform="translate(468.699905 0)"/>
     <use xlink:href="#NotoSansCJKjp-Regular-5f8c" transform="translate(568.69989 0)"/>
     <use xlink:href="#NotoSansCJKjp-Regular-ff1a" transform="translate(668.699875 0)"/>
     <use xlink:href="#NotoSansCJKjp-Regular-2212" transform="translate(768.69986 0)"/>
     <use xlink:href="#NotoSansCJKjp-Regular-48" transform="translate(824.199844 0)"/>
     <use xlink:href="#NotoSansCJKjp-Regular-28" transform="translate(896.999832 0)"/>
     <use xlink:href="#NotoSansCJKjp-Regular-76" transform="translate(930.79982 0)"/>
     <use xlink:href="#NotoSansCJKjp-Regular-2c" transform="translate(982.899811 0)"/>
     <use xlink:href="#NotoSansCJKjp-Regular-20" transform="translate(1010.699799 0)"/>
     <use xlink:href="#NotoSansCJKjp-Regular-77" transform="translate(1033.099792 0)"/>
     <use xlink:href="#NotoSansCJKjp-Regular-2c" transform="translate(1113.299774 0)"/>
     <use xlink:href="#NotoSansCJKjp-Regular-20" transform="translate(1141.099762 0)"/>
     <use xlink:href="#NotoSansCJKjp-Regular-2212" transform="translate(1163.499756 0)"/>
     <use xlink:href="#NotoSansCJKjp-Regular-55" transform="translate(1218.999741 0)"/>
     <use xlink:href="#NotoSansCJKjp-Regular-29" transform="translate(1291.099731 0)"/>
     <use xlink:href="#NotoSansCJKjp-Regular-ff0c" transform="translate(1324.899719 0)"/>
     <use xlink:href="#NotoSansCJKjp-Regular-6700" transform="translate(1424.899704 0)"/>
     <use xlink:href="#NotoSansCJKjp-Regular-9ad8" transform="translate(1524.899689 0)"/>
     <use xlink:href="#NotoSansCJKjp-Regular-672c" transform="translate(1624.899673 0)"/>
     <use xlink:href="#NotoSansCJKjp-Regular-5fb5" transform="translate(1724.899658 0)"/>
     <use xlink:href="#NotoSansCJKjp-Regular-614b" transform="translate(1824.899643 0)"/>
     <use xlink:href="#NotoSansCJKjp-Regular-8b8a" transform="translate(1924.899628 0)"/>
     <use xlink:href="#NotoSansCJKjp-Regular-6210" transform="translate(2024.899612 0)"/>
     <use xlink:href="#NotoSansCJKjp-Regular-300c" transform="translate(2124.899597 0)"/>
     <use xlink:href="#NotoSansCJKjp-Regular-55" transform="translate(2224.899582 0)"/>
     <use xlink:href="#NotoSansCJKjp-Regular-20" transform="translate(2296.999573 0)"/>
     <use xlink:href="#NotoSansCJKjp-Regular-53cd" transform="translate(2319.399567 0)"/>
     <use xlink:href="#NotoSansCJKjp-Regular-865f" transform="translate(2419.399551 0)"/>
     <use xlink:href="#NotoSansCJKjp-Regular-6a21" transform="translate(2519.399536 0)"/>
     <use xlink:href="#NotoSansCJKjp-Regular-578b" transform="translate(2619.399521 0)"/>
     <use xlink:href="#NotoSansCJKjp-Regular-300d" transform="translate(2719.399506 0)"/>
     <use xlink:href="#NotoSansCJKjp-Regular-7684" transform="translate(2819.39949 0)"/>
     <use xlink:href="#NotoSansCJKjp-Regular-57fa" transform="translate(2919.399475 0)"/>
     <use xlink:href="#NotoSansCJKjp-Regular-614b" transform="translate(3019.39946 0)"/>
    </g>
   </g>
   <g id="text_37">
    <!-- 躍遷全部反號、Hubbard 項不變 ⇒ 整體乘 −1 後等於 U → −U 的模型 -->
    <g style="fill: #eb6834" transform="translate(142.439766 199.668706) scale(0.095 -0.095)">
     <defs>
      <path id="NotoSansCJKjp-Regular-8e8d" d="M 934 4653 
L 1907 4653 
L 1907 3488 
L 934 3488 
L 934 4653 
z
M 198 205 
L 294 -243 
C 922 -77 1773 141 2579 358 
L 2534 781 
L 1690 563 
L 1690 1728 
L 2310 1728 
L 2176 1600 
C 2278 1523 2426 1382 2496 1299 
C 2630 1421 2765 1568 2886 1722 
L 2886 -512 
L 3322 -512 
L 3322 -320 
L 6131 -320 
L 6131 77 
L 4710 77 
L 4710 582 
L 5811 582 
L 5811 922 
L 4710 922 
L 4710 1402 
L 5811 1402 
L 5811 1747 
L 4710 1747 
L 4710 2208 
L 5990 2208 
L 5990 2598 
L 4794 2598 
L 5062 3085 
L 4710 3181 
L 5946 3181 
L 5946 5126 
L 4390 5126 
L 4390 4768 
L 5517 4768 
L 5517 4339 
L 4493 4339 
L 4493 3981 
L 5517 3981 
L 5517 3539 
L 4378 3539 
L 4378 3181 
L 4608 3181 
C 4550 3008 4448 2790 4352 2598 
L 3456 2598 
C 3552 2765 3629 2931 3699 3091 
L 3379 3181 
L 4134 3181 
L 4134 5126 
L 2618 5126 
L 2618 4768 
L 3712 4768 
L 3712 4339 
L 2707 4339 
L 2707 3981 
L 3712 3981 
L 3712 3539 
L 2598 3539 
L 2598 3181 
L 3232 3181 
C 3059 2752 2771 2246 2426 1856 
L 2426 2144 
L 1690 2144 
L 1690 3085 
L 2323 3085 
L 2323 5062 
L 531 5062 
L 531 3085 
L 1286 3085 
L 1286 461 
L 896 365 
L 896 2483 
L 512 2483 
L 512 275 
L 198 205 
z
M 3322 1402 
L 4288 1402 
L 4288 922 
L 3322 922 
L 3322 1402 
z
M 3322 1747 
L 3322 2208 
L 4288 2208 
L 4288 1747 
L 3322 1747 
z
M 3322 582 
L 4288 582 
L 4288 77 
L 3322 77 
L 3322 582 
z
" transform="scale(0.015625)"/>
      <path id="NotoSansCJKjp-Regular-9077" d="M 326 5005 
C 717 4685 1133 4218 1299 3885 
L 1696 4154 
C 1517 4493 1088 4941 698 5248 
L 326 5005 
z
M 1555 2835 
L 288 2835 
L 288 2387 
L 1101 2387 
L 1101 787 
C 819 499 499 198 237 -13 
L 499 -461 
C 800 -160 1082 134 1357 422 
C 1754 -102 2330 -358 3194 -390 
C 3917 -416 5293 -403 6003 -371 
C 6029 -237 6099 -26 6157 83 
C 5389 32 3904 13 3194 45 
C 2413 70 1856 320 1555 826 
L 1555 2835 
z
M 2509 4115 
L 3162 4115 
L 3162 3571 
L 2509 3571 
L 2509 4115 
z
M 3552 4115 
L 4230 4115 
L 4230 3571 
L 3552 3571 
L 3552 4115 
z
M 4621 4115 
L 5357 4115 
L 5357 3571 
L 4621 3571 
L 4621 4115 
z
M 2630 1504 
L 2630 877 
C 2630 454 2829 358 3514 358 
C 3661 358 4838 358 4986 358 
C 5491 358 5638 493 5683 1075 
C 5574 1094 5408 1146 5312 1210 
C 5286 762 5229 704 4941 704 
C 4691 704 3718 704 3533 704 
C 3142 704 3066 736 3066 883 
L 3066 1210 
L 4934 1210 
L 4934 2086 
C 5229 1811 5574 1574 5907 1427 
C 5971 1536 6099 1683 6195 1766 
C 5760 1926 5299 2227 4973 2566 
L 6067 2566 
L 6067 2925 
L 3494 2925 
C 3558 3034 3610 3149 3661 3264 
L 5798 3264 
L 5798 4422 
L 4621 4422 
L 4621 4781 
L 6042 4781 
L 6042 5133 
L 1869 5133 
L 1869 4781 
L 3162 4781 
L 3162 4422 
L 2080 4422 
L 2080 3264 
L 3194 3264 
C 3142 3149 3078 3034 3014 2925 
L 1792 2925 
L 1792 2566 
L 2739 2566 
C 2432 2227 2042 1952 1606 1754 
C 1702 1683 1862 1530 1926 1446 
C 2202 1587 2470 1760 2707 1965 
L 2707 1907 
L 4525 1907 
L 4525 1504 
L 2630 1504 
z
M 3552 4422 
L 3552 4781 
L 4230 4781 
L 4230 4422 
L 3552 4422 
z
M 3270 2566 
L 4506 2566 
C 4595 2438 4704 2317 4813 2202 
L 2957 2202 
C 3072 2317 3174 2438 3270 2566 
z
" transform="scale(0.015625)"/>
      <path id="NotoSansCJKjp-Regular-5168" d="M 3174 4909 
C 3750 4102 4877 3155 5862 2579 
C 5952 2720 6067 2880 6182 3002 
C 5184 3501 4064 4442 3392 5389 
L 2906 5389 
C 2413 4550 1344 3533 237 2925 
C 346 2829 480 2656 544 2547 
C 1619 3174 2656 4128 3174 4909 
z
M 486 102 
L 486 -333 
L 5946 -333 
L 5946 102 
L 3430 102 
L 3430 1158 
L 5376 1158 
L 5376 1587 
L 3430 1587 
L 3430 2586 
L 5133 2586 
L 5133 3014 
L 1299 3014 
L 1299 2586 
L 2931 2586 
L 2931 1587 
L 1011 1587 
L 1011 1158 
L 2931 1158 
L 2931 102 
L 486 102 
z
" transform="scale(0.015625)"/>
      <path id="NotoSansCJKjp-Regular-90e8" d="M 269 2893 
L 269 2458 
L 3578 2458 
L 3578 2893 
L 269 2893 
z
M 832 4019 
C 960 3686 1075 3258 1101 2970 
L 1530 3078 
C 1491 3354 1376 3782 1229 4102 
L 832 4019 
z
M 2662 4147 
C 2586 3827 2432 3354 2304 3059 
L 2694 2950 
C 2829 3232 2982 3661 3123 4038 
L 2662 4147 
z
M 3840 4998 
L 3840 -512 
L 4307 -512 
L 4307 4544 
L 5523 4544 
C 5318 4032 5043 3334 4768 2797 
C 5421 2234 5606 1747 5613 1350 
C 5613 1114 5562 928 5427 838 
C 5350 794 5254 774 5146 768 
C 5024 762 4838 762 4646 781 
C 4730 640 4774 442 4781 307 
C 4973 294 5178 294 5344 314 
C 5504 333 5645 378 5760 454 
C 5984 602 6080 902 6080 1299 
C 6074 1754 5914 2259 5267 2861 
C 5568 3443 5901 4186 6157 4794 
L 5811 5018 
L 5728 4998 
L 3840 4998 
z
M 1715 5350 
L 1715 4666 
L 429 4666 
L 429 4237 
L 3488 4237 
L 3488 4666 
L 2182 4666 
L 2182 5350 
L 1715 5350 
z
M 698 1894 
L 698 -518 
L 1146 -518 
L 1146 -141 
L 2752 -141 
L 2752 -486 
L 3219 -486 
L 3219 1894 
L 698 1894 
z
M 1146 288 
L 1146 1472 
L 2752 1472 
L 2752 288 
L 1146 288 
z
" transform="scale(0.015625)"/>
      <path id="NotoSansCJKjp-Regular-3001" d="M 1747 -358 
L 2182 13 
C 1786 480 1210 1062 749 1434 
L 333 1069 
C 787 698 1338 147 1747 -358 
z
" transform="scale(0.015625)"/>
      <path id="NotoSansCJKjp-Regular-75" d="M 1606 -83 
C 2080 -83 2426 166 2752 544 
L 2771 544 
L 2816 0 
L 3302 0 
L 3302 3475 
L 2720 3475 
L 2720 1011 
C 2387 602 2138 422 1779 422 
C 1318 422 1126 698 1126 1344 
L 1126 3475 
L 538 3475 
L 538 1274 
C 538 384 870 -83 1606 -83 
z
" transform="scale(0.015625)"/>
      <path id="NotoSansCJKjp-Regular-61" d="M 1389 -83 
C 1818 -83 2208 141 2541 416 
L 2560 416 
L 2611 0 
L 3091 0 
L 3091 2138 
C 3091 3002 2739 3565 1888 3565 
C 1325 3565 838 3315 525 3110 
L 749 2707 
C 1024 2893 1389 3078 1792 3078 
C 2362 3078 2509 2650 2509 2202 
C 1030 2035 378 1658 378 902 
C 378 275 806 -83 1389 -83 
z
M 1555 390 
C 1210 390 941 544 941 941 
C 941 1389 1338 1677 2509 1811 
L 2509 845 
C 2170 544 1888 390 1555 390 
z
" transform="scale(0.015625)"/>
      <path id="NotoSansCJKjp-Regular-72" d="M 589 0 
L 1178 0 
L 1178 2234 
C 1408 2822 1760 3040 2048 3040 
C 2195 3040 2272 3021 2387 2982 
L 2496 3488 
C 2387 3546 2278 3565 2125 3565 
C 1741 3565 1382 3283 1139 2842 
L 1126 2842 
L 1069 3475 
L 589 3475 
L 589 0 
z
" transform="scale(0.015625)"/>
      <path id="NotoSansCJKjp-Regular-64" d="M 1773 -83 
C 2189 -83 2560 141 2829 410 
L 2848 410 
L 2899 0 
L 3379 0 
L 3379 5094 
L 2790 5094 
L 2790 3757 
L 2822 3162 
C 2515 3411 2253 3565 1843 3565 
C 1050 3565 339 2861 339 1734 
C 339 576 902 -83 1773 -83 
z
M 1901 410 
C 1293 410 941 902 941 1741 
C 941 2534 1389 3072 1946 3072 
C 2234 3072 2502 2970 2790 2707 
L 2790 883 
C 2502 563 2221 410 1901 410 
z
" transform="scale(0.015625)"/>
      <path id="NotoSansCJKjp-Regular-9805" d="M 3309 2675 
L 5440 2675 
L 5440 2048 
L 3309 2048 
L 3309 2675 
z
M 3309 1696 
L 5440 1696 
L 5440 1062 
L 3309 1062 
L 3309 1696 
z
M 3309 3648 
L 5440 3648 
L 5440 3027 
L 3309 3027 
L 3309 3648 
z
M 3552 589 
C 3232 314 2573 0 2022 -179 
C 2118 -269 2259 -416 2323 -518 
C 2886 -333 3552 0 3968 320 
L 3552 589 
z
M 4608 307 
C 5050 70 5613 -288 5888 -525 
L 6266 -237 
C 5971 6 5402 352 4973 570 
L 4608 307 
z
M 205 1165 
L 397 704 
C 1024 928 1869 1235 2669 1523 
L 2586 1946 
L 1658 1632 
L 1658 4179 
L 2515 4179 
L 2515 4634 
L 339 4634 
L 339 4179 
L 1178 4179 
L 1178 1478 
L 205 1165 
z
M 2854 4026 
L 2854 691 
L 5914 691 
L 5914 4026 
L 4397 4026 
L 4602 4653 
L 6157 4653 
L 6157 5069 
L 2541 5069 
L 2541 4653 
L 4058 4653 
C 4019 4448 3968 4224 3917 4026 
L 2854 4026 
z
" transform="scale(0.015625)"/>
      <path id="NotoSansCJKjp-Regular-4e0d" d="M 3578 3059 
C 4339 2547 5299 1792 5754 1299 
L 6144 1670 
C 5664 2163 4691 2880 3936 3366 
L 3578 3059 
z
M 442 4928 
L 442 4435 
L 3290 4435 
C 2656 3341 1555 2259 282 1632 
C 384 1523 531 1331 608 1210 
C 1498 1677 2291 2336 2938 3078 
L 2938 -499 
L 3456 -499 
L 3456 3738 
C 3622 3962 3770 4198 3904 4435 
L 5958 4435 
L 5958 4928 
L 442 4928 
z
" transform="scale(0.015625)"/>
      <path id="NotoSansCJKjp-Regular-21d2" d="M 5510 2406 
C 5274 2234 5011 1997 4755 1734 
L 256 1734 
L 256 1293 
L 4371 1293 
C 4141 1030 3930 749 3776 499 
L 4154 282 
C 4646 1062 5485 1920 6246 2406 
C 5485 2886 4646 3744 4154 4525 
L 3776 4307 
C 3930 4058 4141 3776 4371 3514 
L 256 3514 
L 256 3072 
L 4755 3072 
C 5011 2810 5274 2573 5510 2406 
z
" transform="scale(0.015625)"/>
      <path id="NotoSansCJKjp-Regular-6574" d="M 1357 1139 
L 1357 32 
L 301 32 
L 301 -371 
L 6118 -371 
L 6118 32 
L 3430 32 
L 3430 563 
L 5274 563 
L 5274 934 
L 3430 934 
L 3430 1427 
L 5696 1427 
L 5696 1824 
L 730 1824 
L 730 1427 
L 2957 1427 
L 2957 32 
L 1818 32 
L 1818 1139 
L 1357 1139 
z
M 4109 5376 
C 3930 4742 3597 4154 3162 3770 
L 3162 4282 
L 2054 4282 
L 2054 4608 
L 3315 4608 
L 3315 4960 
L 2054 4960 
L 2054 5376 
L 1626 5376 
L 1626 4960 
L 365 4960 
L 365 4608 
L 1626 4608 
L 1626 4282 
L 550 4282 
L 550 3110 
L 1440 3110 
C 1126 2790 646 2470 256 2304 
C 346 2234 474 2093 538 1997 
C 883 2176 1306 2496 1626 2822 
L 1626 1997 
L 2054 1997 
L 2054 2784 
C 2368 2611 2790 2362 2970 2227 
L 3206 2547 
C 3027 2650 2349 2989 2086 3110 
L 3162 3110 
L 3162 3725 
C 3264 3642 3411 3494 3462 3411 
C 3603 3546 3744 3699 3866 3878 
C 4000 3590 4186 3296 4416 3021 
C 4064 2714 3629 2490 3104 2330 
C 3200 2253 3341 2074 3392 1978 
C 3904 2163 4339 2400 4704 2714 
C 5030 2406 5434 2138 5926 1958 
C 5990 2067 6112 2246 6202 2336 
C 5715 2483 5318 2720 4998 3002 
C 5299 3347 5530 3757 5677 4269 
L 6093 4269 
L 6093 4659 
L 4314 4659 
C 4403 4858 4480 5069 4544 5280 
L 4109 5376 
z
M 947 3962 
L 1626 3962 
L 1626 3430 
L 947 3430 
L 947 3962 
z
M 2054 3962 
L 2752 3962 
L 2752 3430 
L 2054 3430 
L 2054 3962 
z
M 4122 4269 
L 5216 4269 
C 5101 3891 4928 3571 4698 3302 
C 4435 3603 4243 3930 4109 4250 
L 4122 4269 
z
" transform="scale(0.015625)"/>
      <path id="NotoSansCJKjp-Regular-9ad4" d="M 2963 2598 
L 2963 2246 
L 6112 2246 
L 6112 2598 
L 2963 2598 
z
M 3686 1619 
L 5363 1619 
L 5363 1062 
L 3686 1062 
L 3686 1619 
z
M 5075 742 
C 5011 525 4883 198 4774 -13 
L 4832 -32 
L 4128 -32 
L 4218 0 
C 4179 205 4070 512 3930 730 
L 3584 614 
C 3693 422 3789 166 3834 -32 
L 2848 -32 
L 2848 -390 
L 6157 -390 
L 6157 -32 
L 5146 -32 
L 5478 627 
L 5075 742 
z
M 3162 4787 
L 3162 2918 
L 5901 2918 
L 5901 4787 
L 5101 4787 
L 5101 5376 
L 4742 5376 
L 4742 4787 
L 4282 4787 
L 4282 5376 
L 3923 5376 
L 3923 4787 
L 3162 4787 
z
M 3283 1939 
L 3283 742 
L 5779 742 
L 5779 1939 
L 3283 1939 
z
M 3533 3693 
L 3981 3693 
L 3981 3251 
L 3533 3251 
L 3533 3693 
z
M 4282 3693 
L 4742 3693 
L 4742 3251 
L 4282 3251 
L 4282 3693 
z
M 5043 3693 
L 5510 3693 
L 5510 3251 
L 5043 3251 
L 5043 3693 
z
M 3533 4454 
L 3981 4454 
L 3981 4019 
L 3533 4019 
L 3533 4454 
z
M 4282 4454 
L 4742 4454 
L 4742 4019 
L 4282 4019 
L 4282 4454 
z
M 5043 4454 
L 5510 4454 
L 5510 4019 
L 5043 4019 
L 5043 4454 
z
M 1178 1440 
L 2138 1440 
L 2138 973 
L 1178 973 
L 1178 1440 
z
M 1178 1792 
L 1178 2246 
L 2138 2246 
L 2138 1792 
L 1178 1792 
z
M 390 3373 
L 390 2445 
L 762 2445 
L 762 -512 
L 1178 -512 
L 1178 621 
L 2138 621 
L 2138 -51 
C 2138 -115 2118 -134 2048 -141 
C 1990 -141 1792 -141 1562 -134 
C 1619 -243 1677 -403 1690 -512 
C 2035 -512 2240 -506 2381 -442 
C 2522 -378 2554 -262 2554 -58 
L 2554 2592 
L 762 2592 
L 762 3021 
L 2560 3021 
L 2560 2445 
L 2944 2445 
L 2944 3373 
L 2566 3373 
L 2566 5152 
L 762 5152 
L 762 3373 
L 390 3373 
z
M 1466 4371 
L 1466 3373 
L 1126 3373 
L 1126 4787 
L 2182 4787 
L 2182 4371 
L 1466 4371 
z
M 2182 3373 
L 1766 3373 
L 1766 4064 
L 2182 4064 
L 2182 3373 
z
" transform="scale(0.015625)"/>
      <path id="NotoSansCJKjp-Regular-4e58" d="M 5197 5344 
C 4154 5126 2310 4992 819 4941 
C 864 4832 922 4646 928 4531 
C 1562 4544 2266 4576 2944 4627 
L 2944 4032 
L 416 4032 
L 416 3590 
L 2944 3590 
L 2944 2106 
C 2400 1216 1350 429 218 109 
C 326 6 467 -173 538 -288 
C 1472 26 2336 653 2944 1427 
L 2944 -506 
L 3443 -506 
L 3443 1453 
C 4045 659 4915 6 5856 -320 
C 5926 -192 6067 -13 6170 83 
C 5043 410 3987 1222 3443 2118 
L 3443 3590 
L 5984 3590 
L 5984 4032 
L 3443 4032 
L 3443 4666 
C 4179 4730 4877 4819 5414 4928 
L 5197 5344 
z
M 397 1779 
L 506 1370 
L 1818 1619 
L 1818 1318 
L 2266 1318 
L 2266 3411 
L 1818 3411 
L 1818 2963 
L 589 2963 
L 589 2573 
L 1818 2573 
L 1818 1997 
L 397 1779 
z
M 5478 3174 
C 5242 3046 4902 2893 4563 2765 
L 4563 3418 
L 4115 3418 
L 4115 1850 
C 4115 1389 4237 1267 4723 1267 
C 4826 1267 5357 1267 5459 1267 
C 5837 1267 5958 1414 6010 1990 
C 5882 2016 5702 2080 5606 2157 
C 5594 1734 5562 1677 5414 1677 
C 5299 1677 4864 1677 4774 1677 
C 4589 1677 4563 1702 4563 1850 
L 4563 2368 
C 4960 2496 5414 2656 5773 2816 
L 5478 3174 
z
" transform="scale(0.015625)"/>
      <path id="NotoSansCJKjp-Regular-31" d="M 563 0 
L 3136 0 
L 3136 486 
L 2195 486 
L 2195 4691 
L 1747 4691 
C 1491 4544 1190 4435 774 4358 
L 774 3987 
L 1613 3987 
L 1613 486 
L 563 486 
L 563 0 
z
" transform="scale(0.015625)"/>
      <path id="NotoSansCJKjp-Regular-7b49" d="M 3699 5408 
C 3514 4864 3168 4352 2771 4019 
L 2944 3910 
L 2944 3469 
L 941 3469 
L 941 3066 
L 2944 3066 
L 2944 2490 
L 307 2490 
L 307 2067 
L 4256 2067 
L 4256 1504 
L 512 1504 
L 512 1082 
L 4256 1082 
L 4256 64 
C 4256 -26 4224 -51 4109 -58 
C 3994 -64 3616 -64 3181 -51 
C 3251 -179 3334 -371 3360 -506 
C 3885 -506 4243 -499 4461 -435 
C 4678 -358 4742 -224 4742 58 
L 4742 1082 
L 5946 1082 
L 5946 1504 
L 4742 1504 
L 4742 2067 
L 6118 2067 
L 6118 2490 
L 3437 2490 
L 3437 3066 
L 5510 3066 
L 5510 3469 
L 3437 3469 
L 3437 3910 
L 3334 3910 
C 3475 4064 3610 4237 3731 4429 
L 4166 4429 
C 4358 4179 4544 3878 4621 3667 
L 5037 3846 
C 4966 4013 4832 4224 4685 4429 
L 6048 4429 
L 6048 4838 
L 3962 4838 
C 4038 4986 4102 5139 4160 5299 
L 3699 5408 
z
M 1427 806 
C 1843 531 2304 122 2515 -179 
L 2886 122 
C 2669 422 2195 819 1779 1082 
L 1427 806 
z
M 1190 5408 
C 973 4838 614 4282 211 3904 
C 326 3846 525 3712 614 3635 
C 826 3846 1030 4122 1222 4429 
L 1478 4429 
C 1600 4179 1715 3891 1754 3699 
L 2182 3859 
C 2144 4006 2054 4224 1958 4429 
L 3123 4429 
L 3123 4838 
L 1446 4838 
C 1517 4986 1587 5133 1645 5286 
L 1190 5408 
z
" transform="scale(0.015625)"/>
      <path id="NotoSansCJKjp-Regular-65bc" d="M 4454 4826 
C 4749 4013 5318 3130 5958 2605 
C 6029 2752 6125 2944 6214 3066 
C 5606 3507 5011 4435 4678 5370 
L 4186 5370 
C 3942 4506 3379 3533 2739 3027 
C 2822 2918 2938 2726 2982 2592 
C 3642 3130 4192 4045 4454 4826 
z
M 3757 2605 
C 4198 2323 4704 1907 4934 1606 
L 5274 1952 
C 5030 2246 4506 2643 4070 2906 
L 3757 2605 
z
M 3238 870 
C 4019 512 4960 -77 5408 -512 
L 5715 -96 
C 5261 339 4301 896 3526 1242 
L 3238 870 
z
M 1414 5363 
L 1414 4333 
L 282 4333 
L 282 3878 
L 986 3878 
C 960 2234 890 672 186 -198 
C 307 -275 474 -429 550 -538 
C 1126 186 1331 1299 1408 2554 
L 2234 2554 
C 2195 774 2144 147 2035 6 
C 1990 -70 1933 -83 1843 -83 
C 1741 -83 1504 -83 1235 -58 
C 1306 -179 1357 -371 1363 -499 
C 1632 -512 1901 -512 2061 -499 
C 2227 -480 2342 -435 2445 -288 
C 2611 -70 2650 653 2694 2778 
C 2701 2842 2701 3002 2701 3002 
L 1427 3002 
L 1453 3878 
L 3008 3878 
L 3008 4333 
L 1894 4333 
L 1894 5363 
L 1414 5363 
z
" transform="scale(0.015625)"/>
     </defs>
     <use xlink:href="#NotoSansCJKjp-Regular-8e8d"/>
     <use xlink:href="#NotoSansCJKjp-Regular-9077" transform="translate(99.999985 0)"/>
     <use xlink:href="#NotoSansCJKjp-Regular-5168" transform="translate(199.999969 0)"/>
     <use xlink:href="#NotoSansCJKjp-Regular-90e8" transform="translate(299.999954 0)"/>
     <use xlink:href="#NotoSansCJKjp-Regular-53cd" transform="translate(399.999939 0)"/>
     <use xlink:href="#NotoSansCJKjp-Regular-865f" transform="translate(499.999924 0)"/>
     <use xlink:href="#NotoSansCJKjp-Regular-3001" transform="translate(599.999908 0)"/>
     <use xlink:href="#NotoSansCJKjp-Regular-48" transform="translate(699.999893 0)"/>
     <use xlink:href="#NotoSansCJKjp-Regular-75" transform="translate(772.799881 0)"/>
     <use xlink:href="#NotoSansCJKjp-Regular-62" transform="translate(833.499878 0)"/>
     <use xlink:href="#NotoSansCJKjp-Regular-62" transform="translate(895.299866 0)"/>
     <use xlink:href="#NotoSansCJKjp-Regular-61" transform="translate(957.099854 0)"/>
     <use xlink:href="#NotoSansCJKjp-Regular-72" transform="translate(1013.399841 0)"/>
     <use xlink:href="#NotoSansCJKjp-Regular-64" transform="translate(1052.199829 0)"/>
     <use xlink:href="#NotoSansCJKjp-Regular-20" transform="translate(1114.199814 0)"/>
     <use xlink:href="#NotoSansCJKjp-Regular-9805" transform="translate(1136.599808 0)"/>
     <use xlink:href="#NotoSansCJKjp-Regular-4e0d" transform="translate(1236.599792 0)"/>
     <use xlink:href="#NotoSansCJKjp-Regular-8b8a" transform="translate(1336.599777 0)"/>
     <use xlink:href="#NotoSansCJKjp-Regular-20" transform="translate(1436.599762 0)"/>
     <use xlink:href="#NotoSansCJKjp-Regular-21d2" transform="translate(1458.999756 0)"/>
     <use xlink:href="#NotoSansCJKjp-Regular-20" transform="translate(1558.999741 0)"/>
     <use xlink:href="#NotoSansCJKjp-Regular-6574" transform="translate(1581.399734 0)"/>
     <use xlink:href="#NotoSansCJKjp-Regular-9ad4" transform="translate(1681.399719 0)"/>
     <use xlink:href="#NotoSansCJKjp-Regular-4e58" transform="translate(1781.399704 0)"/>
     <use xlink:href="#NotoSansCJKjp-Regular-20" transform="translate(1881.399689 0)"/>
     <use xlink:href="#NotoSansCJKjp-Regular-2212" transform="translate(1903.799683 0)"/>
     <use xlink:href="#NotoSansCJKjp-Regular-31" transform="translate(1959.299667 0)"/>
     <use xlink:href="#NotoSansCJKjp-Regular-20" transform="translate(2014.799652 0)"/>
     <use xlink:href="#NotoSansCJKjp-Regular-5f8c" transform="translate(2037.199646 0)"/>
     <use xlink:href="#NotoSansCJKjp-Regular-7b49" transform="translate(2137.199631 0)"/>
     <use xlink:href="#NotoSansCJKjp-Regular-65bc" transform="translate(2237.199615 0)"/>
     <use xlink:href="#NotoSansCJKjp-Regular-20" transform="translate(2337.1996 0)"/>
     <use xlink:href="#NotoSansCJKjp-Regular-55" transform="translate(2359.599594 0)"/>
     <use xlink:href="#NotoSansCJKjp-Regular-20" transform="translate(2431.699585 0)"/>
     <use xlink:href="#NotoSansCJKjp-Regular-2192" transform="translate(2454.099579 0)"/>
     <use xlink:href="#NotoSansCJKjp-Regular-20" transform="translate(2554.099564 0)"/>
     <use xlink:href="#NotoSansCJKjp-Regular-2212" transform="translate(2576.499557 0)"/>
     <use xlink:href="#NotoSansCJKjp-Regular-55" transform="translate(2631.999542 0)"/>
     <use xlink:href="#NotoSansCJKjp-Regular-20" transform="translate(2704.099533 0)"/>
     <use xlink:href="#NotoSansCJKjp-Regular-7684" transform="translate(2726.499527 0)"/>
     <use xlink:href="#NotoSansCJKjp-Regular-6a21" transform="translate(2826.499512 0)"/>
     <use xlink:href="#NotoSansCJKjp-Regular-578b" transform="translate(2926.499496 0)"/>
    </g>
   </g>
  </g>
 </g>
 <defs>
  <clipPath id="p65c8fde16d">
   <rect x="7.2" y="7.2" width="558" height="90.72"/>
  </clipPath>
  <clipPath id="p520948c01a">
   <rect x="7.2" y="116.064" width="558" height="90.72"/>
  </clipPath>
 </defs>
</svg>
